M48
; DRILL file KiCad 10.0.3 date 2026-05-26T23:57:51
; FORMAT={-:-/ absolute / metric / decimal}
; #@! TF.CreationDate,2026-05-26T23:57:51+09:00
; #@! TF.GenerationSoftware,Kicad,Pcbnew,10.0.3
; #@! TF.FileFunction,Plated,1,4,PTH
FMAT,2
METRIC
; #@! TA.AperFunction,Plated,PTH,ViaDrill
T1C0.200
; #@! TA.AperFunction,Plated,PTH,ComponentDrill
T2C1.000
%
G90
G05
T1
X26.0Y-31.1
X26.0Y-44.1
X28.7Y-26.1
X28.93Y-28.91
X29.6Y-26.1
X30.05Y-28.9
X30.5Y-26.1
X30.95Y-28.9
X31.4Y-26.1
X31.85Y-28.9
X32.3Y-26.1
X32.75Y-28.9
X33.2Y-26.1
X33.65Y-28.9
X34.1Y-26.1
X34.55Y-28.9
X35.0Y-26.1
X35.45Y-28.9
X35.9Y-26.1
X36.35Y-28.9
X36.8Y-26.1
X37.25Y-28.9
X37.7Y-26.1
X38.15Y-28.9
X38.6Y-26.1
X39.05Y-28.9
X39.5Y-26.1
X39.95Y-28.9
X40.4Y-26.1
X40.6Y-30.4
X41.075Y-28.895
X41.1Y-30.4
X41.3Y-26.1
X41.6Y-30.4
X44.0Y-31.1
X44.0Y-44.1
T2
X28.675Y-32.788
X28.675Y-35.328
X28.675Y-37.868
X28.675Y-40.408
X28.675Y-42.948
X31.215Y-32.788
X31.215Y-35.328
X31.215Y-37.868
X31.215Y-40.408
X31.215Y-42.948
X33.73Y-32.788
X33.73Y-35.328
X33.73Y-37.868
X33.73Y-40.408
X33.73Y-42.948
X36.27Y-32.788
X36.27Y-35.328
X36.27Y-37.868
X36.27Y-40.408
X36.27Y-42.948
X38.835Y-32.788
X38.835Y-35.328
X38.835Y-37.868
X38.835Y-40.408
X38.835Y-42.948
X41.375Y-32.788
X41.375Y-35.328
X41.375Y-37.868
X41.375Y-40.408
X41.375Y-42.948
M30
