G04 #@! TF.GenerationSoftware,KiCad,Pcbnew,10.0.3*
G04 #@! TF.CreationDate,2026-05-26T23:57:48+09:00*
G04 #@! TF.ProjectId,ax02-29-pin,61783032-2d32-4392-9d70-696e2e6b6963,v1.0*
G04 #@! TF.SameCoordinates,Original*
G04 #@! TF.FileFunction,Copper,L2,Inr*
G04 #@! TF.FilePolarity,Positive*
%FSLAX46Y46*%
G04 Gerber Fmt 4.6, Leading zero omitted, Abs format (unit mm)*
G04 Created by KiCad (PCBNEW 10.0.3) date 2026-05-26 23:57:48*
%MOMM*%
%LPD*%
G01*
G04 APERTURE LIST*
G04 #@! TA.AperFunction,Conductor*
%ADD10C,0.200000*%
G04 #@! TD*
G04 #@! TA.AperFunction,ComponentPad*
%ADD11C,1.700000*%
G04 #@! TD*
G04 #@! TA.AperFunction,ViaPad*
%ADD12C,0.330000*%
G04 #@! TD*
G04 APERTURE END LIST*
D10*
X40650000Y-28600000D02*
X41550000Y-28600000D01*
X41550000Y-30100000D01*
X40650000Y-30100000D01*
X40650000Y-28600000D01*
G04 #@! TA.AperFunction,Conductor*
G36*
X40650000Y-28600000D02*
G01*
X41550000Y-28600000D01*
X41550000Y-30100000D01*
X40650000Y-30100000D01*
X40650000Y-28600000D01*
G37*
G04 #@! TD.AperFunction*
D11*
X28675005Y-32788500D03*
X28675005Y-35328500D03*
X28675005Y-37868500D03*
X28675005Y-40408500D03*
X28675005Y-42948500D03*
X31215005Y-32788500D03*
X31215005Y-35328500D03*
X31215005Y-37868500D03*
X31215005Y-40408500D03*
X31215005Y-42948500D03*
X33730000Y-32788500D03*
X33730000Y-35328500D03*
X33730000Y-37868500D03*
X33730000Y-40408500D03*
X33730000Y-42948500D03*
X36270000Y-32788500D03*
X36270000Y-35328500D03*
X36270000Y-37868500D03*
X36270000Y-40408500D03*
X36270000Y-42948500D03*
X38835005Y-32788500D03*
X38835005Y-35328500D03*
X38835005Y-37868500D03*
X38835005Y-40408500D03*
X38835005Y-42948500D03*
X41375005Y-32788500D03*
X41375005Y-35328500D03*
X41375005Y-37868500D03*
X41375005Y-40408500D03*
X41375005Y-42948500D03*
D12*
X39500000Y-26100000D03*
X30950000Y-28900000D03*
X33650000Y-28900000D03*
X32300000Y-26100000D03*
X30050000Y-28900000D03*
X37700000Y-26100000D03*
X40400000Y-26100000D03*
X41300000Y-26100000D03*
X31850000Y-28900000D03*
X40600000Y-30400000D03*
X44000000Y-44100000D03*
X26000000Y-44100000D03*
X41600000Y-30400000D03*
X41075000Y-28895000D03*
X41100000Y-30400000D03*
X44000000Y-31100000D03*
X26000000Y-31100000D03*
X28930000Y-28910000D03*
X36350000Y-28900000D03*
X30500000Y-26100000D03*
X35450000Y-28900000D03*
X29600000Y-26100000D03*
X38600000Y-26100000D03*
X38150000Y-28900000D03*
X35900000Y-26100000D03*
X37250000Y-28900000D03*
X33200000Y-26100000D03*
X32750000Y-28900000D03*
X34100000Y-26100000D03*
X34550000Y-28900000D03*
X39050000Y-28900000D03*
X35000000Y-26100000D03*
X31400000Y-26100000D03*
X28700000Y-26100000D03*
X39950000Y-28900000D03*
X36800000Y-26100000D03*
D10*
X29600000Y-30860000D02*
X30047000Y-31307000D01*
X30047000Y-39036505D02*
X28675005Y-40408500D01*
X29600000Y-26100000D02*
X29600000Y-30860000D01*
X30047000Y-31307000D02*
X30047000Y-39036505D01*
X39500000Y-26100000D02*
X39500000Y-30913495D01*
X39500000Y-30913495D02*
X41375005Y-32788500D01*
X37700000Y-26100000D02*
X37700000Y-29689000D01*
X40080000Y-34083505D02*
X38835005Y-35328500D01*
X37700000Y-29689000D02*
X40080000Y-32069000D01*
X40080000Y-32069000D02*
X40080000Y-34083505D01*
X43001000Y-29402000D02*
X43001000Y-36641000D01*
X41375005Y-37868500D02*
X41773500Y-37868500D01*
X41773500Y-37868500D02*
X43001000Y-36641000D01*
X40400000Y-26100000D02*
X40400000Y-26801000D01*
X40400000Y-26801000D02*
X43001000Y-29402000D01*
X30500000Y-32073495D02*
X31215005Y-32788500D01*
X30500000Y-26100000D02*
X30500000Y-32073495D01*
X37540000Y-31434000D02*
X37540000Y-37022000D01*
X35900000Y-26100000D02*
X35900000Y-29794000D01*
X35900000Y-29794000D02*
X37540000Y-31434000D01*
X36693500Y-37868500D02*
X36270000Y-37868500D01*
X37540000Y-37022000D02*
X36693500Y-37868500D01*
X35000000Y-39138500D02*
X33730000Y-40408500D01*
X34100000Y-30534000D02*
X35000000Y-31434000D01*
X35000000Y-31434000D02*
X35000000Y-39138500D01*
X34100000Y-26100000D02*
X34100000Y-30534000D01*
X35000000Y-26100000D02*
X35000000Y-30291000D01*
X35000000Y-30291000D02*
X36270000Y-31561000D01*
X36270000Y-31561000D02*
X36270000Y-32788500D01*
X31400000Y-26100000D02*
X31400000Y-30510000D01*
X32430000Y-31540000D02*
X32430000Y-36653505D01*
X31400000Y-30510000D02*
X32430000Y-31540000D01*
X32430000Y-36653505D02*
X31215005Y-37868500D01*
X27130000Y-33783495D02*
X28675005Y-35328500D01*
X27130000Y-31710000D02*
X27130000Y-33783495D01*
X28220000Y-26580000D02*
X28220000Y-30620000D01*
X28700000Y-26100000D02*
X28220000Y-26580000D01*
X28220000Y-30620000D02*
X27130000Y-31710000D01*
G04 #@! TA.AperFunction,Conductor*
G36*
X27986339Y-30019685D02*
G01*
X28032094Y-30072489D01*
X28043300Y-30124000D01*
X28043300Y-30495446D01*
X28023615Y-30562485D01*
X28006981Y-30583127D01*
X26980202Y-31609905D01*
X26980201Y-31609906D01*
X26953300Y-31674850D01*
X26953300Y-33818644D01*
X26980201Y-33883588D01*
X27047343Y-33950730D01*
X27047349Y-33950735D01*
X27834857Y-34738243D01*
X27868342Y-34799566D01*
X27863358Y-34869258D01*
X27856537Y-34884372D01*
X27853775Y-34889539D01*
X27783917Y-35058191D01*
X27783915Y-35058199D01*
X27748305Y-35237223D01*
X27748305Y-35419776D01*
X27783915Y-35598800D01*
X27783917Y-35598808D01*
X27853772Y-35767454D01*
X27853777Y-35767463D01*
X27955189Y-35919236D01*
X27955192Y-35919240D01*
X28084264Y-36048312D01*
X28084268Y-36048315D01*
X28236041Y-36149727D01*
X28236047Y-36149730D01*
X28236048Y-36149731D01*
X28404697Y-36219588D01*
X28583728Y-36255199D01*
X28583732Y-36255200D01*
X28583733Y-36255200D01*
X28766278Y-36255200D01*
X28766279Y-36255199D01*
X28945313Y-36219588D01*
X29113962Y-36149731D01*
X29265742Y-36048315D01*
X29394820Y-35919237D01*
X29496236Y-35767457D01*
X29566093Y-35598808D01*
X29601705Y-35419772D01*
X29601705Y-35237228D01*
X29566093Y-35058192D01*
X29508198Y-34918422D01*
X29496237Y-34889545D01*
X29496232Y-34889536D01*
X29394820Y-34737763D01*
X29394817Y-34737759D01*
X29265745Y-34608687D01*
X29265741Y-34608684D01*
X29113968Y-34507272D01*
X29113959Y-34507267D01*
X28945313Y-34437412D01*
X28945305Y-34437410D01*
X28766281Y-34401800D01*
X28766277Y-34401800D01*
X28583733Y-34401800D01*
X28583728Y-34401800D01*
X28404704Y-34437410D01*
X28404696Y-34437412D01*
X28236044Y-34507270D01*
X28230877Y-34510032D01*
X28162473Y-34524271D01*
X28097231Y-34499267D01*
X28084748Y-34488352D01*
X27343019Y-33746623D01*
X27309534Y-33685300D01*
X27306700Y-33658942D01*
X27306700Y-32697223D01*
X27748305Y-32697223D01*
X27748305Y-32879776D01*
X27783915Y-33058800D01*
X27783917Y-33058808D01*
X27853772Y-33227454D01*
X27853777Y-33227463D01*
X27955189Y-33379236D01*
X27955192Y-33379240D01*
X28084264Y-33508312D01*
X28084268Y-33508315D01*
X28236041Y-33609727D01*
X28236047Y-33609730D01*
X28236048Y-33609731D01*
X28404697Y-33679588D01*
X28559119Y-33710304D01*
X28583728Y-33715199D01*
X28583732Y-33715200D01*
X28583733Y-33715200D01*
X28766278Y-33715200D01*
X28766279Y-33715199D01*
X28945313Y-33679588D01*
X29113962Y-33609731D01*
X29265742Y-33508315D01*
X29394820Y-33379237D01*
X29496236Y-33227457D01*
X29566093Y-33058808D01*
X29601705Y-32879772D01*
X29601705Y-32697228D01*
X29566093Y-32518192D01*
X29504739Y-32370071D01*
X29496237Y-32349545D01*
X29496232Y-32349536D01*
X29394820Y-32197763D01*
X29394817Y-32197759D01*
X29265745Y-32068687D01*
X29265741Y-32068684D01*
X29113968Y-31967272D01*
X29113959Y-31967267D01*
X28945313Y-31897412D01*
X28945305Y-31897410D01*
X28766281Y-31861800D01*
X28766277Y-31861800D01*
X28583733Y-31861800D01*
X28583728Y-31861800D01*
X28404704Y-31897410D01*
X28404696Y-31897412D01*
X28236050Y-31967267D01*
X28236041Y-31967272D01*
X28084268Y-32068684D01*
X28084264Y-32068687D01*
X27955192Y-32197759D01*
X27955189Y-32197763D01*
X27853777Y-32349536D01*
X27853772Y-32349545D01*
X27783917Y-32518191D01*
X27783915Y-32518199D01*
X27748305Y-32697223D01*
X27306700Y-32697223D01*
X27306700Y-31834552D01*
X27326385Y-31767513D01*
X27343014Y-31746875D01*
X28302651Y-30787238D01*
X28302654Y-30787237D01*
X28320092Y-30769799D01*
X28320093Y-30769799D01*
X28369799Y-30720093D01*
X28396700Y-30655148D01*
X28396700Y-30124000D01*
X28416385Y-30056961D01*
X28469189Y-30011206D01*
X28520700Y-30000000D01*
X29299300Y-30000000D01*
X29366339Y-30019685D01*
X29412094Y-30072489D01*
X29423300Y-30124000D01*
X29423300Y-30895149D01*
X29450201Y-30960093D01*
X29517343Y-31027235D01*
X29517349Y-31027240D01*
X29833981Y-31343872D01*
X29867466Y-31405195D01*
X29870300Y-31431553D01*
X29870300Y-38911951D01*
X29850615Y-38978990D01*
X29833981Y-38999632D01*
X29265260Y-39568352D01*
X29203937Y-39601837D01*
X29134245Y-39596853D01*
X29119123Y-39590028D01*
X29113958Y-39587267D01*
X28945313Y-39517412D01*
X28945305Y-39517410D01*
X28766281Y-39481800D01*
X28766277Y-39481800D01*
X28583733Y-39481800D01*
X28583728Y-39481800D01*
X28404704Y-39517410D01*
X28404696Y-39517412D01*
X28236050Y-39587267D01*
X28236041Y-39587272D01*
X28084268Y-39688684D01*
X28084264Y-39688687D01*
X27955192Y-39817759D01*
X27955189Y-39817763D01*
X27853777Y-39969536D01*
X27853772Y-39969545D01*
X27783917Y-40138191D01*
X27783915Y-40138199D01*
X27748305Y-40317223D01*
X27748305Y-40499776D01*
X27783915Y-40678800D01*
X27783917Y-40678808D01*
X27853772Y-40847454D01*
X27853777Y-40847463D01*
X27955189Y-40999236D01*
X27955192Y-40999240D01*
X28084264Y-41128312D01*
X28084268Y-41128315D01*
X28236041Y-41229727D01*
X28236047Y-41229730D01*
X28236048Y-41229731D01*
X28404697Y-41299588D01*
X28583728Y-41335199D01*
X28583732Y-41335200D01*
X28583733Y-41335200D01*
X28766278Y-41335200D01*
X28766279Y-41335199D01*
X28945313Y-41299588D01*
X29113962Y-41229731D01*
X29265742Y-41128315D01*
X29394820Y-40999237D01*
X29496236Y-40847457D01*
X29566093Y-40678808D01*
X29601705Y-40499772D01*
X29601705Y-40317228D01*
X29601704Y-40317223D01*
X30288305Y-40317223D01*
X30288305Y-40499776D01*
X30323915Y-40678800D01*
X30323917Y-40678808D01*
X30393772Y-40847454D01*
X30393777Y-40847463D01*
X30495189Y-40999236D01*
X30495192Y-40999240D01*
X30624264Y-41128312D01*
X30624268Y-41128315D01*
X30776041Y-41229727D01*
X30776047Y-41229730D01*
X30776048Y-41229731D01*
X30944697Y-41299588D01*
X31123728Y-41335199D01*
X31123732Y-41335200D01*
X31123733Y-41335200D01*
X31306278Y-41335200D01*
X31306279Y-41335199D01*
X31485313Y-41299588D01*
X31653962Y-41229731D01*
X31805742Y-41128315D01*
X31934820Y-40999237D01*
X32036236Y-40847457D01*
X32106093Y-40678808D01*
X32141705Y-40499772D01*
X32141705Y-40317228D01*
X32106093Y-40138192D01*
X32036236Y-39969543D01*
X32036235Y-39969542D01*
X32036232Y-39969536D01*
X31934820Y-39817763D01*
X31934817Y-39817759D01*
X31805745Y-39688687D01*
X31805741Y-39688684D01*
X31653968Y-39587272D01*
X31653959Y-39587267D01*
X31485313Y-39517412D01*
X31485305Y-39517410D01*
X31306281Y-39481800D01*
X31306277Y-39481800D01*
X31123733Y-39481800D01*
X31123728Y-39481800D01*
X30944704Y-39517410D01*
X30944696Y-39517412D01*
X30776050Y-39587267D01*
X30776041Y-39587272D01*
X30624268Y-39688684D01*
X30624264Y-39688687D01*
X30495192Y-39817759D01*
X30495189Y-39817763D01*
X30393777Y-39969536D01*
X30393772Y-39969545D01*
X30323917Y-40138191D01*
X30323915Y-40138199D01*
X30288305Y-40317223D01*
X29601704Y-40317223D01*
X29566093Y-40138192D01*
X29496236Y-39969543D01*
X29496231Y-39969536D01*
X29493479Y-39964388D01*
X29479231Y-39895986D01*
X29504225Y-39830740D01*
X29515144Y-39818250D01*
X30129651Y-39203744D01*
X30129654Y-39203742D01*
X30147092Y-39186304D01*
X30147093Y-39186304D01*
X30196799Y-39136598D01*
X30223700Y-39071653D01*
X30223700Y-38461697D01*
X30243385Y-38394658D01*
X30296189Y-38348903D01*
X30365347Y-38338959D01*
X30428903Y-38367984D01*
X30450802Y-38392806D01*
X30495189Y-38459237D01*
X30624264Y-38588312D01*
X30624268Y-38588315D01*
X30776041Y-38689727D01*
X30776047Y-38689730D01*
X30776048Y-38689731D01*
X30944697Y-38759588D01*
X31123728Y-38795199D01*
X31123732Y-38795200D01*
X31123733Y-38795200D01*
X31306278Y-38795200D01*
X31306279Y-38795199D01*
X31485313Y-38759588D01*
X31653962Y-38689731D01*
X31805742Y-38588315D01*
X31934820Y-38459237D01*
X32036236Y-38307457D01*
X32106093Y-38138808D01*
X32141705Y-37959772D01*
X32141705Y-37777228D01*
X32106093Y-37598192D01*
X32036236Y-37429543D01*
X32036235Y-37429542D01*
X32033476Y-37424380D01*
X32019233Y-37355977D01*
X32044231Y-37290733D01*
X32055144Y-37278251D01*
X32579799Y-36753598D01*
X32606700Y-36688653D01*
X32606700Y-36618358D01*
X32606700Y-35661588D01*
X32626385Y-35594549D01*
X32679189Y-35548794D01*
X32748347Y-35538850D01*
X32811903Y-35567875D01*
X32845260Y-35614133D01*
X32850256Y-35626194D01*
X32908767Y-35767454D01*
X32908772Y-35767463D01*
X33010184Y-35919236D01*
X33010187Y-35919240D01*
X33139259Y-36048312D01*
X33139263Y-36048315D01*
X33291036Y-36149727D01*
X33291042Y-36149730D01*
X33291043Y-36149731D01*
X33459692Y-36219588D01*
X33638723Y-36255199D01*
X33638727Y-36255200D01*
X33638728Y-36255200D01*
X33821273Y-36255200D01*
X33821274Y-36255199D01*
X34000308Y-36219588D01*
X34168957Y-36149731D01*
X34320737Y-36048315D01*
X34449815Y-35919237D01*
X34551231Y-35767457D01*
X34554684Y-35759122D01*
X34584739Y-35686562D01*
X34628580Y-35632158D01*
X34694874Y-35610093D01*
X34762573Y-35627372D01*
X34810184Y-35678509D01*
X34823300Y-35734014D01*
X34823300Y-37462985D01*
X34803615Y-37530024D01*
X34750811Y-37575779D01*
X34681653Y-37585723D01*
X34618097Y-37556698D01*
X34584739Y-37510438D01*
X34551232Y-37429545D01*
X34551227Y-37429536D01*
X34449815Y-37277763D01*
X34449812Y-37277759D01*
X34320740Y-37148687D01*
X34320736Y-37148684D01*
X34168963Y-37047272D01*
X34168954Y-37047267D01*
X34000308Y-36977412D01*
X34000300Y-36977410D01*
X33821276Y-36941800D01*
X33821272Y-36941800D01*
X33638728Y-36941800D01*
X33638723Y-36941800D01*
X33459699Y-36977410D01*
X33459691Y-36977412D01*
X33291045Y-37047267D01*
X33291036Y-37047272D01*
X33139263Y-37148684D01*
X33139259Y-37148687D01*
X33010187Y-37277759D01*
X33010184Y-37277763D01*
X32908772Y-37429536D01*
X32908767Y-37429545D01*
X32838912Y-37598191D01*
X32838910Y-37598199D01*
X32803300Y-37777223D01*
X32803300Y-37959776D01*
X32838910Y-38138800D01*
X32838912Y-38138808D01*
X32908767Y-38307454D01*
X32908772Y-38307463D01*
X33010184Y-38459236D01*
X33010187Y-38459240D01*
X33139259Y-38588312D01*
X33139263Y-38588315D01*
X33291036Y-38689727D01*
X33291042Y-38689730D01*
X33291043Y-38689731D01*
X33459692Y-38759588D01*
X33638723Y-38795199D01*
X33638727Y-38795200D01*
X33638728Y-38795200D01*
X33821273Y-38795200D01*
X33821274Y-38795199D01*
X34000308Y-38759588D01*
X34168957Y-38689731D01*
X34320737Y-38588315D01*
X34449815Y-38459237D01*
X34551231Y-38307457D01*
X34584739Y-38226562D01*
X34628580Y-38172158D01*
X34694874Y-38150093D01*
X34762573Y-38167372D01*
X34810184Y-38218509D01*
X34823300Y-38274014D01*
X34823300Y-39013945D01*
X34803615Y-39080984D01*
X34786981Y-39101626D01*
X34320255Y-39568351D01*
X34258932Y-39601836D01*
X34189240Y-39596852D01*
X34174126Y-39590031D01*
X34168960Y-39587270D01*
X34000308Y-39517412D01*
X34000300Y-39517410D01*
X33821276Y-39481800D01*
X33821272Y-39481800D01*
X33638728Y-39481800D01*
X33638723Y-39481800D01*
X33459699Y-39517410D01*
X33459691Y-39517412D01*
X33291045Y-39587267D01*
X33291036Y-39587272D01*
X33139263Y-39688684D01*
X33139259Y-39688687D01*
X33010187Y-39817759D01*
X33010184Y-39817763D01*
X32908772Y-39969536D01*
X32908767Y-39969545D01*
X32838912Y-40138191D01*
X32838910Y-40138199D01*
X32803300Y-40317223D01*
X32803300Y-40499776D01*
X32838910Y-40678800D01*
X32838912Y-40678808D01*
X32908767Y-40847454D01*
X32908772Y-40847463D01*
X33010184Y-40999236D01*
X33010187Y-40999240D01*
X33139259Y-41128312D01*
X33139263Y-41128315D01*
X33291036Y-41229727D01*
X33291042Y-41229730D01*
X33291043Y-41229731D01*
X33459692Y-41299588D01*
X33638723Y-41335199D01*
X33638727Y-41335200D01*
X33638728Y-41335200D01*
X33821273Y-41335200D01*
X33821274Y-41335199D01*
X34000308Y-41299588D01*
X34168957Y-41229731D01*
X34320737Y-41128315D01*
X34449815Y-40999237D01*
X34551231Y-40847457D01*
X34621088Y-40678808D01*
X34656700Y-40499772D01*
X34656700Y-40317228D01*
X34656699Y-40317223D01*
X35343300Y-40317223D01*
X35343300Y-40499776D01*
X35378910Y-40678800D01*
X35378912Y-40678808D01*
X35448767Y-40847454D01*
X35448772Y-40847463D01*
X35550184Y-40999236D01*
X35550187Y-40999240D01*
X35679259Y-41128312D01*
X35679263Y-41128315D01*
X35831036Y-41229727D01*
X35831042Y-41229730D01*
X35831043Y-41229731D01*
X35999692Y-41299588D01*
X36178723Y-41335199D01*
X36178727Y-41335200D01*
X36178728Y-41335200D01*
X36361273Y-41335200D01*
X36361274Y-41335199D01*
X36540308Y-41299588D01*
X36708957Y-41229731D01*
X36860737Y-41128315D01*
X36989815Y-40999237D01*
X37091231Y-40847457D01*
X37161088Y-40678808D01*
X37196700Y-40499772D01*
X37196700Y-40317228D01*
X37196699Y-40317223D01*
X37908305Y-40317223D01*
X37908305Y-40499776D01*
X37943915Y-40678800D01*
X37943917Y-40678808D01*
X38013772Y-40847454D01*
X38013777Y-40847463D01*
X38115189Y-40999236D01*
X38115192Y-40999240D01*
X38244264Y-41128312D01*
X38244268Y-41128315D01*
X38396041Y-41229727D01*
X38396047Y-41229730D01*
X38396048Y-41229731D01*
X38564697Y-41299588D01*
X38743728Y-41335199D01*
X38743732Y-41335200D01*
X38743733Y-41335200D01*
X38926278Y-41335200D01*
X38926279Y-41335199D01*
X39105313Y-41299588D01*
X39273962Y-41229731D01*
X39425742Y-41128315D01*
X39554820Y-40999237D01*
X39656236Y-40847457D01*
X39726093Y-40678808D01*
X39761705Y-40499772D01*
X39761705Y-40317228D01*
X39761704Y-40317223D01*
X40448305Y-40317223D01*
X40448305Y-40499776D01*
X40483915Y-40678800D01*
X40483917Y-40678808D01*
X40553772Y-40847454D01*
X40553777Y-40847463D01*
X40655189Y-40999236D01*
X40655192Y-40999240D01*
X40784264Y-41128312D01*
X40784268Y-41128315D01*
X40936041Y-41229727D01*
X40936047Y-41229730D01*
X40936048Y-41229731D01*
X41104697Y-41299588D01*
X41283728Y-41335199D01*
X41283732Y-41335200D01*
X41283733Y-41335200D01*
X41466278Y-41335200D01*
X41466279Y-41335199D01*
X41645313Y-41299588D01*
X41813962Y-41229731D01*
X41965742Y-41128315D01*
X42094820Y-40999237D01*
X42196236Y-40847457D01*
X42266093Y-40678808D01*
X42301705Y-40499772D01*
X42301705Y-40317228D01*
X42266093Y-40138192D01*
X42196236Y-39969543D01*
X42196235Y-39969542D01*
X42196232Y-39969536D01*
X42094820Y-39817763D01*
X42094817Y-39817759D01*
X41965745Y-39688687D01*
X41965741Y-39688684D01*
X41813968Y-39587272D01*
X41813959Y-39587267D01*
X41645313Y-39517412D01*
X41645305Y-39517410D01*
X41466281Y-39481800D01*
X41466277Y-39481800D01*
X41283733Y-39481800D01*
X41283728Y-39481800D01*
X41104704Y-39517410D01*
X41104696Y-39517412D01*
X40936050Y-39587267D01*
X40936041Y-39587272D01*
X40784268Y-39688684D01*
X40784264Y-39688687D01*
X40655192Y-39817759D01*
X40655189Y-39817763D01*
X40553777Y-39969536D01*
X40553772Y-39969545D01*
X40483917Y-40138191D01*
X40483915Y-40138199D01*
X40448305Y-40317223D01*
X39761704Y-40317223D01*
X39726093Y-40138192D01*
X39656236Y-39969543D01*
X39656235Y-39969542D01*
X39656232Y-39969536D01*
X39554820Y-39817763D01*
X39554817Y-39817759D01*
X39425745Y-39688687D01*
X39425741Y-39688684D01*
X39273968Y-39587272D01*
X39273959Y-39587267D01*
X39105313Y-39517412D01*
X39105305Y-39517410D01*
X38926281Y-39481800D01*
X38926277Y-39481800D01*
X38743733Y-39481800D01*
X38743728Y-39481800D01*
X38564704Y-39517410D01*
X38564696Y-39517412D01*
X38396050Y-39587267D01*
X38396041Y-39587272D01*
X38244268Y-39688684D01*
X38244264Y-39688687D01*
X38115192Y-39817759D01*
X38115189Y-39817763D01*
X38013777Y-39969536D01*
X38013772Y-39969545D01*
X37943917Y-40138191D01*
X37943915Y-40138199D01*
X37908305Y-40317223D01*
X37196699Y-40317223D01*
X37161088Y-40138192D01*
X37091231Y-39969543D01*
X37091230Y-39969542D01*
X37091227Y-39969536D01*
X36989815Y-39817763D01*
X36989812Y-39817759D01*
X36860740Y-39688687D01*
X36860736Y-39688684D01*
X36708963Y-39587272D01*
X36708954Y-39587267D01*
X36540308Y-39517412D01*
X36540300Y-39517410D01*
X36361276Y-39481800D01*
X36361272Y-39481800D01*
X36178728Y-39481800D01*
X36178723Y-39481800D01*
X35999699Y-39517410D01*
X35999691Y-39517412D01*
X35831045Y-39587267D01*
X35831036Y-39587272D01*
X35679263Y-39688684D01*
X35679259Y-39688687D01*
X35550187Y-39817759D01*
X35550184Y-39817763D01*
X35448772Y-39969536D01*
X35448767Y-39969545D01*
X35378912Y-40138191D01*
X35378910Y-40138199D01*
X35343300Y-40317223D01*
X34656699Y-40317223D01*
X34621088Y-40138192D01*
X34551231Y-39969543D01*
X34551230Y-39969542D01*
X34548471Y-39964380D01*
X34534228Y-39895977D01*
X34559226Y-39830733D01*
X34570139Y-39818251D01*
X35149799Y-39238593D01*
X35176700Y-39173648D01*
X35176700Y-39103353D01*
X35176700Y-38274014D01*
X35196385Y-38206975D01*
X35249189Y-38161220D01*
X35318347Y-38151276D01*
X35381903Y-38180301D01*
X35415261Y-38226562D01*
X35448765Y-38307450D01*
X35448772Y-38307463D01*
X35550184Y-38459236D01*
X35550187Y-38459240D01*
X35679259Y-38588312D01*
X35679263Y-38588315D01*
X35831036Y-38689727D01*
X35831042Y-38689730D01*
X35831043Y-38689731D01*
X35999692Y-38759588D01*
X36178723Y-38795199D01*
X36178727Y-38795200D01*
X36178728Y-38795200D01*
X36361273Y-38795200D01*
X36361274Y-38795199D01*
X36540308Y-38759588D01*
X36708957Y-38689731D01*
X36860737Y-38588315D01*
X36989815Y-38459237D01*
X37091231Y-38307457D01*
X37161088Y-38138808D01*
X37196700Y-37959772D01*
X37196700Y-37777228D01*
X37196699Y-37777223D01*
X37908305Y-37777223D01*
X37908305Y-37959776D01*
X37943915Y-38138800D01*
X37943917Y-38138808D01*
X38013772Y-38307454D01*
X38013777Y-38307463D01*
X38115189Y-38459236D01*
X38115192Y-38459240D01*
X38244264Y-38588312D01*
X38244268Y-38588315D01*
X38396041Y-38689727D01*
X38396047Y-38689730D01*
X38396048Y-38689731D01*
X38564697Y-38759588D01*
X38743728Y-38795199D01*
X38743732Y-38795200D01*
X38743733Y-38795200D01*
X38926278Y-38795200D01*
X38926279Y-38795199D01*
X39105313Y-38759588D01*
X39273962Y-38689731D01*
X39425742Y-38588315D01*
X39554820Y-38459237D01*
X39656236Y-38307457D01*
X39726093Y-38138808D01*
X39761705Y-37959772D01*
X39761705Y-37777228D01*
X39726093Y-37598192D01*
X39656236Y-37429543D01*
X39656235Y-37429542D01*
X39656232Y-37429536D01*
X39554820Y-37277763D01*
X39554817Y-37277759D01*
X39425745Y-37148687D01*
X39425741Y-37148684D01*
X39273968Y-37047272D01*
X39273959Y-37047267D01*
X39105313Y-36977412D01*
X39105305Y-36977410D01*
X38926281Y-36941800D01*
X38926277Y-36941800D01*
X38743733Y-36941800D01*
X38743728Y-36941800D01*
X38564704Y-36977410D01*
X38564696Y-36977412D01*
X38396050Y-37047267D01*
X38396041Y-37047272D01*
X38244268Y-37148684D01*
X38244264Y-37148687D01*
X38115192Y-37277759D01*
X38115189Y-37277763D01*
X38013777Y-37429536D01*
X38013772Y-37429545D01*
X37943917Y-37598191D01*
X37943915Y-37598199D01*
X37908305Y-37777223D01*
X37196699Y-37777223D01*
X37182577Y-37706232D01*
X37182435Y-37705460D01*
X37185930Y-37671486D01*
X37188973Y-37637489D01*
X37189514Y-37636662D01*
X37189587Y-37635957D01*
X37191763Y-37633230D01*
X37216680Y-37595209D01*
X37622651Y-37189239D01*
X37622654Y-37189237D01*
X37640092Y-37171799D01*
X37640093Y-37171799D01*
X37689799Y-37122093D01*
X37716700Y-37057148D01*
X37716700Y-35673647D01*
X37736385Y-35606608D01*
X37789189Y-35560853D01*
X37858347Y-35550909D01*
X37921903Y-35579934D01*
X37955261Y-35626194D01*
X38013772Y-35767454D01*
X38013777Y-35767463D01*
X38115189Y-35919236D01*
X38115192Y-35919240D01*
X38244264Y-36048312D01*
X38244268Y-36048315D01*
X38396041Y-36149727D01*
X38396047Y-36149730D01*
X38396048Y-36149731D01*
X38564697Y-36219588D01*
X38743728Y-36255199D01*
X38743732Y-36255200D01*
X38743733Y-36255200D01*
X38926278Y-36255200D01*
X38926279Y-36255199D01*
X39105313Y-36219588D01*
X39273962Y-36149731D01*
X39425742Y-36048315D01*
X39554820Y-35919237D01*
X39656236Y-35767457D01*
X39726093Y-35598808D01*
X39761705Y-35419772D01*
X39761705Y-35237228D01*
X39726093Y-35058192D01*
X39668198Y-34918422D01*
X39656240Y-34889552D01*
X39656237Y-34889546D01*
X39656236Y-34889543D01*
X39656231Y-34889536D01*
X39653479Y-34884388D01*
X39639231Y-34815986D01*
X39664225Y-34750740D01*
X39675144Y-34738250D01*
X40162651Y-34250744D01*
X40162654Y-34250742D01*
X40180092Y-34233304D01*
X40180093Y-34233304D01*
X40229799Y-34183598D01*
X40256700Y-34118653D01*
X40256700Y-33133647D01*
X40276385Y-33066608D01*
X40329189Y-33020853D01*
X40398347Y-33010909D01*
X40461903Y-33039934D01*
X40495261Y-33086194D01*
X40553772Y-33227454D01*
X40553777Y-33227463D01*
X40655189Y-33379236D01*
X40655192Y-33379240D01*
X40784264Y-33508312D01*
X40784268Y-33508315D01*
X40936041Y-33609727D01*
X40936047Y-33609730D01*
X40936048Y-33609731D01*
X41104697Y-33679588D01*
X41259119Y-33710304D01*
X41283728Y-33715199D01*
X41283732Y-33715200D01*
X41283733Y-33715200D01*
X41466278Y-33715200D01*
X41466279Y-33715199D01*
X41645313Y-33679588D01*
X41813962Y-33609731D01*
X41965742Y-33508315D01*
X42094820Y-33379237D01*
X42196236Y-33227457D01*
X42266093Y-33058808D01*
X42301705Y-32879772D01*
X42301705Y-32697228D01*
X42266093Y-32518192D01*
X42204739Y-32370071D01*
X42196237Y-32349545D01*
X42196232Y-32349536D01*
X42094820Y-32197763D01*
X42094817Y-32197759D01*
X41965745Y-32068687D01*
X41965741Y-32068684D01*
X41813968Y-31967272D01*
X41813959Y-31967267D01*
X41645313Y-31897412D01*
X41645305Y-31897410D01*
X41466281Y-31861800D01*
X41466277Y-31861800D01*
X41283733Y-31861800D01*
X41283728Y-31861800D01*
X41104704Y-31897410D01*
X41104696Y-31897412D01*
X40936047Y-31967268D01*
X40930882Y-31970030D01*
X40862479Y-31984271D01*
X40797236Y-31959270D01*
X40784749Y-31948352D01*
X39713019Y-30876622D01*
X39679534Y-30815299D01*
X39676700Y-30788941D01*
X39676700Y-30124000D01*
X39696385Y-30056961D01*
X39749189Y-30011206D01*
X39800700Y-30000000D01*
X42700300Y-30000000D01*
X42767339Y-30019685D01*
X42813094Y-30072489D01*
X42824300Y-30124000D01*
X42824300Y-36516446D01*
X42804615Y-36583485D01*
X42787981Y-36604127D01*
X42192264Y-37199844D01*
X42130941Y-37233329D01*
X42061249Y-37228345D01*
X42016902Y-37199844D01*
X41965745Y-37148687D01*
X41965741Y-37148684D01*
X41813968Y-37047272D01*
X41813959Y-37047267D01*
X41645313Y-36977412D01*
X41645305Y-36977410D01*
X41466281Y-36941800D01*
X41466277Y-36941800D01*
X41283733Y-36941800D01*
X41283728Y-36941800D01*
X41104704Y-36977410D01*
X41104696Y-36977412D01*
X40936050Y-37047267D01*
X40936041Y-37047272D01*
X40784268Y-37148684D01*
X40784264Y-37148687D01*
X40655192Y-37277759D01*
X40655189Y-37277763D01*
X40553777Y-37429536D01*
X40553772Y-37429545D01*
X40483917Y-37598191D01*
X40483915Y-37598199D01*
X40448305Y-37777223D01*
X40448305Y-37959776D01*
X40483915Y-38138800D01*
X40483917Y-38138808D01*
X40553772Y-38307454D01*
X40553777Y-38307463D01*
X40655189Y-38459236D01*
X40655192Y-38459240D01*
X40784264Y-38588312D01*
X40784268Y-38588315D01*
X40936041Y-38689727D01*
X40936047Y-38689730D01*
X40936048Y-38689731D01*
X41104697Y-38759588D01*
X41283728Y-38795199D01*
X41283732Y-38795200D01*
X41283733Y-38795200D01*
X41466278Y-38795200D01*
X41466279Y-38795199D01*
X41645313Y-38759588D01*
X41813962Y-38689731D01*
X41965742Y-38588315D01*
X42094820Y-38459237D01*
X42196236Y-38307457D01*
X42266093Y-38138808D01*
X42301705Y-37959772D01*
X42301705Y-37777228D01*
X42283603Y-37686222D01*
X42289830Y-37616631D01*
X42317537Y-37574352D01*
X43083651Y-36808239D01*
X43083654Y-36808237D01*
X43101092Y-36790799D01*
X43101093Y-36790799D01*
X43150799Y-36741093D01*
X43177700Y-36676148D01*
X43177700Y-30124000D01*
X43197385Y-30056961D01*
X43250189Y-30011206D01*
X43301700Y-30000000D01*
X44317815Y-30000000D01*
X44384854Y-30019685D01*
X44409961Y-30041024D01*
X44461411Y-30098164D01*
X44597546Y-30197072D01*
X44625934Y-30209710D01*
X44679171Y-30254959D01*
X44699494Y-30321808D01*
X44699500Y-30322991D01*
X44699500Y-43993907D01*
X44698903Y-44006061D01*
X44698903Y-44006062D01*
X44687256Y-44124311D01*
X44682514Y-44148151D01*
X44649798Y-44256002D01*
X44640495Y-44278461D01*
X44587370Y-44377850D01*
X44573865Y-44398061D01*
X44502368Y-44485180D01*
X44485180Y-44502368D01*
X44398061Y-44573865D01*
X44377850Y-44587370D01*
X44278461Y-44640495D01*
X44256002Y-44649798D01*
X44148151Y-44682514D01*
X44124311Y-44687256D01*
X44037215Y-44695834D01*
X44006060Y-44698903D01*
X43993907Y-44699500D01*
X26006093Y-44699500D01*
X25993939Y-44698903D01*
X25943081Y-44693893D01*
X25875688Y-44687256D01*
X25851848Y-44682514D01*
X25743997Y-44649798D01*
X25721540Y-44640496D01*
X25622149Y-44587370D01*
X25601938Y-44573865D01*
X25514819Y-44502368D01*
X25497631Y-44485180D01*
X25426134Y-44398061D01*
X25412629Y-44377850D01*
X25359501Y-44278454D01*
X25350201Y-44256002D01*
X25317483Y-44148145D01*
X25312744Y-44124317D01*
X25301097Y-44006061D01*
X25300500Y-43993907D01*
X25300500Y-42857223D01*
X27748305Y-42857223D01*
X27748305Y-43039776D01*
X27783915Y-43218800D01*
X27783917Y-43218808D01*
X27853772Y-43387454D01*
X27853777Y-43387463D01*
X27955189Y-43539236D01*
X27955192Y-43539240D01*
X28084264Y-43668312D01*
X28084268Y-43668315D01*
X28236041Y-43769727D01*
X28236047Y-43769730D01*
X28236048Y-43769731D01*
X28404697Y-43839588D01*
X28583728Y-43875199D01*
X28583732Y-43875200D01*
X28583733Y-43875200D01*
X28766278Y-43875200D01*
X28766279Y-43875199D01*
X28945313Y-43839588D01*
X29113962Y-43769731D01*
X29265742Y-43668315D01*
X29394820Y-43539237D01*
X29496236Y-43387457D01*
X29566093Y-43218808D01*
X29601705Y-43039772D01*
X29601705Y-42857228D01*
X29601704Y-42857223D01*
X30288305Y-42857223D01*
X30288305Y-43039776D01*
X30323915Y-43218800D01*
X30323917Y-43218808D01*
X30393772Y-43387454D01*
X30393777Y-43387463D01*
X30495189Y-43539236D01*
X30495192Y-43539240D01*
X30624264Y-43668312D01*
X30624268Y-43668315D01*
X30776041Y-43769727D01*
X30776047Y-43769730D01*
X30776048Y-43769731D01*
X30944697Y-43839588D01*
X31123728Y-43875199D01*
X31123732Y-43875200D01*
X31123733Y-43875200D01*
X31306278Y-43875200D01*
X31306279Y-43875199D01*
X31485313Y-43839588D01*
X31653962Y-43769731D01*
X31805742Y-43668315D01*
X31934820Y-43539237D01*
X32036236Y-43387457D01*
X32106093Y-43218808D01*
X32141705Y-43039772D01*
X32141705Y-42857228D01*
X32141704Y-42857223D01*
X32803300Y-42857223D01*
X32803300Y-43039776D01*
X32838910Y-43218800D01*
X32838912Y-43218808D01*
X32908767Y-43387454D01*
X32908772Y-43387463D01*
X33010184Y-43539236D01*
X33010187Y-43539240D01*
X33139259Y-43668312D01*
X33139263Y-43668315D01*
X33291036Y-43769727D01*
X33291042Y-43769730D01*
X33291043Y-43769731D01*
X33459692Y-43839588D01*
X33638723Y-43875199D01*
X33638727Y-43875200D01*
X33638728Y-43875200D01*
X33821273Y-43875200D01*
X33821274Y-43875199D01*
X34000308Y-43839588D01*
X34168957Y-43769731D01*
X34320737Y-43668315D01*
X34449815Y-43539237D01*
X34551231Y-43387457D01*
X34621088Y-43218808D01*
X34656700Y-43039772D01*
X34656700Y-42857228D01*
X34656699Y-42857223D01*
X35343300Y-42857223D01*
X35343300Y-43039776D01*
X35378910Y-43218800D01*
X35378912Y-43218808D01*
X35448767Y-43387454D01*
X35448772Y-43387463D01*
X35550184Y-43539236D01*
X35550187Y-43539240D01*
X35679259Y-43668312D01*
X35679263Y-43668315D01*
X35831036Y-43769727D01*
X35831042Y-43769730D01*
X35831043Y-43769731D01*
X35999692Y-43839588D01*
X36178723Y-43875199D01*
X36178727Y-43875200D01*
X36178728Y-43875200D01*
X36361273Y-43875200D01*
X36361274Y-43875199D01*
X36540308Y-43839588D01*
X36708957Y-43769731D01*
X36860737Y-43668315D01*
X36989815Y-43539237D01*
X37091231Y-43387457D01*
X37161088Y-43218808D01*
X37196700Y-43039772D01*
X37196700Y-42857228D01*
X37196699Y-42857223D01*
X37908305Y-42857223D01*
X37908305Y-43039776D01*
X37943915Y-43218800D01*
X37943917Y-43218808D01*
X38013772Y-43387454D01*
X38013777Y-43387463D01*
X38115189Y-43539236D01*
X38115192Y-43539240D01*
X38244264Y-43668312D01*
X38244268Y-43668315D01*
X38396041Y-43769727D01*
X38396047Y-43769730D01*
X38396048Y-43769731D01*
X38564697Y-43839588D01*
X38743728Y-43875199D01*
X38743732Y-43875200D01*
X38743733Y-43875200D01*
X38926278Y-43875200D01*
X38926279Y-43875199D01*
X39105313Y-43839588D01*
X39273962Y-43769731D01*
X39425742Y-43668315D01*
X39554820Y-43539237D01*
X39656236Y-43387457D01*
X39726093Y-43218808D01*
X39761705Y-43039772D01*
X39761705Y-42857228D01*
X39761704Y-42857223D01*
X40448305Y-42857223D01*
X40448305Y-43039776D01*
X40483915Y-43218800D01*
X40483917Y-43218808D01*
X40553772Y-43387454D01*
X40553777Y-43387463D01*
X40655189Y-43539236D01*
X40655192Y-43539240D01*
X40784264Y-43668312D01*
X40784268Y-43668315D01*
X40936041Y-43769727D01*
X40936047Y-43769730D01*
X40936048Y-43769731D01*
X41104697Y-43839588D01*
X41283728Y-43875199D01*
X41283732Y-43875200D01*
X41283733Y-43875200D01*
X41466278Y-43875200D01*
X41466279Y-43875199D01*
X41645313Y-43839588D01*
X41813962Y-43769731D01*
X41965742Y-43668315D01*
X42094820Y-43539237D01*
X42196236Y-43387457D01*
X42266093Y-43218808D01*
X42301705Y-43039772D01*
X42301705Y-42857228D01*
X42266093Y-42678192D01*
X42196236Y-42509543D01*
X42196235Y-42509542D01*
X42196232Y-42509536D01*
X42094820Y-42357763D01*
X42094817Y-42357759D01*
X41965745Y-42228687D01*
X41965741Y-42228684D01*
X41813968Y-42127272D01*
X41813959Y-42127267D01*
X41645313Y-42057412D01*
X41645305Y-42057410D01*
X41466281Y-42021800D01*
X41466277Y-42021800D01*
X41283733Y-42021800D01*
X41283728Y-42021800D01*
X41104704Y-42057410D01*
X41104696Y-42057412D01*
X40936050Y-42127267D01*
X40936041Y-42127272D01*
X40784268Y-42228684D01*
X40784264Y-42228687D01*
X40655192Y-42357759D01*
X40655189Y-42357763D01*
X40553777Y-42509536D01*
X40553772Y-42509545D01*
X40483917Y-42678191D01*
X40483915Y-42678199D01*
X40448305Y-42857223D01*
X39761704Y-42857223D01*
X39726093Y-42678192D01*
X39656236Y-42509543D01*
X39656235Y-42509542D01*
X39656232Y-42509536D01*
X39554820Y-42357763D01*
X39554817Y-42357759D01*
X39425745Y-42228687D01*
X39425741Y-42228684D01*
X39273968Y-42127272D01*
X39273959Y-42127267D01*
X39105313Y-42057412D01*
X39105305Y-42057410D01*
X38926281Y-42021800D01*
X38926277Y-42021800D01*
X38743733Y-42021800D01*
X38743728Y-42021800D01*
X38564704Y-42057410D01*
X38564696Y-42057412D01*
X38396050Y-42127267D01*
X38396041Y-42127272D01*
X38244268Y-42228684D01*
X38244264Y-42228687D01*
X38115192Y-42357759D01*
X38115189Y-42357763D01*
X38013777Y-42509536D01*
X38013772Y-42509545D01*
X37943917Y-42678191D01*
X37943915Y-42678199D01*
X37908305Y-42857223D01*
X37196699Y-42857223D01*
X37161088Y-42678192D01*
X37091231Y-42509543D01*
X37091230Y-42509542D01*
X37091227Y-42509536D01*
X36989815Y-42357763D01*
X36989812Y-42357759D01*
X36860740Y-42228687D01*
X36860736Y-42228684D01*
X36708963Y-42127272D01*
X36708954Y-42127267D01*
X36540308Y-42057412D01*
X36540300Y-42057410D01*
X36361276Y-42021800D01*
X36361272Y-42021800D01*
X36178728Y-42021800D01*
X36178723Y-42021800D01*
X35999699Y-42057410D01*
X35999691Y-42057412D01*
X35831045Y-42127267D01*
X35831036Y-42127272D01*
X35679263Y-42228684D01*
X35679259Y-42228687D01*
X35550187Y-42357759D01*
X35550184Y-42357763D01*
X35448772Y-42509536D01*
X35448767Y-42509545D01*
X35378912Y-42678191D01*
X35378910Y-42678199D01*
X35343300Y-42857223D01*
X34656699Y-42857223D01*
X34621088Y-42678192D01*
X34551231Y-42509543D01*
X34551230Y-42509542D01*
X34551227Y-42509536D01*
X34449815Y-42357763D01*
X34449812Y-42357759D01*
X34320740Y-42228687D01*
X34320736Y-42228684D01*
X34168963Y-42127272D01*
X34168954Y-42127267D01*
X34000308Y-42057412D01*
X34000300Y-42057410D01*
X33821276Y-42021800D01*
X33821272Y-42021800D01*
X33638728Y-42021800D01*
X33638723Y-42021800D01*
X33459699Y-42057410D01*
X33459691Y-42057412D01*
X33291045Y-42127267D01*
X33291036Y-42127272D01*
X33139263Y-42228684D01*
X33139259Y-42228687D01*
X33010187Y-42357759D01*
X33010184Y-42357763D01*
X32908772Y-42509536D01*
X32908767Y-42509545D01*
X32838912Y-42678191D01*
X32838910Y-42678199D01*
X32803300Y-42857223D01*
X32141704Y-42857223D01*
X32106093Y-42678192D01*
X32036236Y-42509543D01*
X32036235Y-42509542D01*
X32036232Y-42509536D01*
X31934820Y-42357763D01*
X31934817Y-42357759D01*
X31805745Y-42228687D01*
X31805741Y-42228684D01*
X31653968Y-42127272D01*
X31653959Y-42127267D01*
X31485313Y-42057412D01*
X31485305Y-42057410D01*
X31306281Y-42021800D01*
X31306277Y-42021800D01*
X31123733Y-42021800D01*
X31123728Y-42021800D01*
X30944704Y-42057410D01*
X30944696Y-42057412D01*
X30776050Y-42127267D01*
X30776041Y-42127272D01*
X30624268Y-42228684D01*
X30624264Y-42228687D01*
X30495192Y-42357759D01*
X30495189Y-42357763D01*
X30393777Y-42509536D01*
X30393772Y-42509545D01*
X30323917Y-42678191D01*
X30323915Y-42678199D01*
X30288305Y-42857223D01*
X29601704Y-42857223D01*
X29566093Y-42678192D01*
X29496236Y-42509543D01*
X29496235Y-42509542D01*
X29496232Y-42509536D01*
X29394820Y-42357763D01*
X29394817Y-42357759D01*
X29265745Y-42228687D01*
X29265741Y-42228684D01*
X29113968Y-42127272D01*
X29113959Y-42127267D01*
X28945313Y-42057412D01*
X28945305Y-42057410D01*
X28766281Y-42021800D01*
X28766277Y-42021800D01*
X28583733Y-42021800D01*
X28583728Y-42021800D01*
X28404704Y-42057410D01*
X28404696Y-42057412D01*
X28236050Y-42127267D01*
X28236041Y-42127272D01*
X28084268Y-42228684D01*
X28084264Y-42228687D01*
X27955192Y-42357759D01*
X27955189Y-42357763D01*
X27853777Y-42509536D01*
X27853772Y-42509545D01*
X27783917Y-42678191D01*
X27783915Y-42678199D01*
X27748305Y-42857223D01*
X25300500Y-42857223D01*
X25300500Y-37777223D01*
X27748305Y-37777223D01*
X27748305Y-37959776D01*
X27783915Y-38138800D01*
X27783917Y-38138808D01*
X27853772Y-38307454D01*
X27853777Y-38307463D01*
X27955189Y-38459236D01*
X27955192Y-38459240D01*
X28084264Y-38588312D01*
X28084268Y-38588315D01*
X28236041Y-38689727D01*
X28236047Y-38689730D01*
X28236048Y-38689731D01*
X28404697Y-38759588D01*
X28583728Y-38795199D01*
X28583732Y-38795200D01*
X28583733Y-38795200D01*
X28766278Y-38795200D01*
X28766279Y-38795199D01*
X28945313Y-38759588D01*
X29113962Y-38689731D01*
X29265742Y-38588315D01*
X29394820Y-38459237D01*
X29496236Y-38307457D01*
X29566093Y-38138808D01*
X29601705Y-37959772D01*
X29601705Y-37777228D01*
X29566093Y-37598192D01*
X29496236Y-37429543D01*
X29496235Y-37429542D01*
X29496232Y-37429536D01*
X29394820Y-37277763D01*
X29394817Y-37277759D01*
X29265745Y-37148687D01*
X29265741Y-37148684D01*
X29113968Y-37047272D01*
X29113959Y-37047267D01*
X28945313Y-36977412D01*
X28945305Y-36977410D01*
X28766281Y-36941800D01*
X28766277Y-36941800D01*
X28583733Y-36941800D01*
X28583728Y-36941800D01*
X28404704Y-36977410D01*
X28404696Y-36977412D01*
X28236050Y-37047267D01*
X28236041Y-37047272D01*
X28084268Y-37148684D01*
X28084264Y-37148687D01*
X27955192Y-37277759D01*
X27955189Y-37277763D01*
X27853777Y-37429536D01*
X27853772Y-37429545D01*
X27783917Y-37598191D01*
X27783915Y-37598199D01*
X27748305Y-37777223D01*
X25300500Y-37777223D01*
X25300500Y-30322991D01*
X25320185Y-30255952D01*
X25372989Y-30210197D01*
X25373980Y-30209749D01*
X25402455Y-30197072D01*
X25538589Y-30098164D01*
X25590036Y-30041025D01*
X25649522Y-30004379D01*
X25682185Y-30000000D01*
X27919300Y-30000000D01*
X27986339Y-30019685D01*
G37*
G04 #@! TD.AperFunction*
M02*
