G04 #@! TF.GenerationSoftware,KiCad,Pcbnew,10.0.3*
G04 #@! TF.CreationDate,2026-06-27T15:52:58+07:00*
G04 #@! TF.ProjectId,ax02-29-pin_panelized,61783032-2d32-4392-9d70-696e5f70616e,v1.0*
G04 #@! TF.SameCoordinates,Original*
G04 #@! TF.FileFunction,Soldermask,Bot*
G04 #@! TF.FilePolarity,Negative*
%FSLAX46Y46*%
G04 Gerber Fmt 4.6, Leading zero omitted, Abs format (unit mm)*
G04 Created by KiCad (PCBNEW 10.0.3) date 2026-06-27 15:52:58*
%MOMM*%
%LPD*%
G01*
G04 APERTURE LIST*
G04 Aperture macros list*
%AMRoundRect*
0 Rectangle with rounded corners*
0 $1 Rounding radius*
0 $2 $3 $4 $5 $6 $7 $8 $9 X,Y pos of 4 corners*
0 Add a 4 corners polygon primitive as box body*
4,1,4,$2,$3,$4,$5,$6,$7,$8,$9,$2,$3,0*
0 Add four circle primitives for the rounded corners*
1,1,$1+$1,$2,$3*
1,1,$1+$1,$4,$5*
1,1,$1+$1,$6,$7*
1,1,$1+$1,$8,$9*
0 Add four rect primitives between the rounded corners*
20,1,$1+$1,$2,$3,$4,$5,0*
20,1,$1+$1,$4,$5,$6,$7,0*
20,1,$1+$1,$6,$7,$8,$9,0*
20,1,$1+$1,$8,$9,$2,$3,0*%
%AMFreePoly0*
4,1,43,0.052099,0.920729,0.127746,0.900460,0.139805,0.895465,0.207628,0.856307,0.217983,0.848361,0.273361,0.792983,0.281307,0.782628,0.320465,0.714805,0.325460,0.702746,0.345729,0.627099,0.347433,0.614158,0.347433,0.535842,0.345729,0.522901,0.325460,0.447254,0.320465,0.435195,0.281307,0.367372,0.275000,0.359152,0.275000,-0.575000,0.260355,-0.610355,0.225000,-0.625000,
-0.225000,-0.625000,-0.260355,-0.610355,-0.275000,-0.575000,-0.275000,0.359152,-0.281307,0.367372,-0.320465,0.435195,-0.325460,0.447254,-0.345729,0.522901,-0.347433,0.535842,-0.347433,0.614158,-0.345729,0.627099,-0.325460,0.702746,-0.320465,0.714805,-0.281307,0.782628,-0.273361,0.792983,-0.217983,0.848361,-0.207628,0.856307,-0.139805,0.895465,-0.127746,0.900460,-0.052099,0.920729,
-0.039158,0.922433,0.039158,0.922433,0.052099,0.920729,0.052099,0.920729,$1*%
G04 Aperture macros list end*
%ADD10C,0.150000*%
%ADD11C,1.800000*%
%ADD12C,2.590000*%
%ADD13RoundRect,0.050000X-0.450000X-0.725000X0.450000X-0.725000X0.450000X0.725000X-0.450000X0.725000X0*%
%ADD14FreePoly0,0.000000*%
%ADD15FreePoly0,180.000000*%
%ADD16C,2.100000*%
%ADD17C,2.000000*%
%ADD18C,2.250000*%
G04 APERTURE END LIST*
D10*
X125600000Y-104088500D02*
X126900000Y-104088500D01*
X126900000Y-106488500D01*
X125600000Y-106488500D01*
X125600000Y-104088500D01*
G36*
X126900000Y-106488500D02*
G01*
X125600000Y-106488500D01*
X125600000Y-104088500D01*
X126900000Y-104088500D01*
X126900000Y-106488500D01*
G37*
X110400000Y-104088500D02*
X111700000Y-104088500D01*
X111700000Y-106488500D01*
X110400000Y-106488500D01*
X110400000Y-104088500D01*
G36*
X111700000Y-106488500D02*
G01*
X110400000Y-106488500D01*
X110400000Y-104088500D01*
X111700000Y-104088500D01*
X111700000Y-106488500D01*
G37*
X111700000Y-106688500D02*
X125600000Y-106688500D01*
X125600000Y-103788500D01*
X111700000Y-103788500D01*
X111700000Y-106688500D01*
G36*
X125600000Y-106688500D02*
G01*
X111700000Y-106688500D01*
X111700000Y-103788500D01*
X125600000Y-103788500D01*
X125600000Y-106688500D01*
G37*
X105600000Y-104088500D02*
X106900000Y-104088500D01*
X106900000Y-106488500D01*
X105600000Y-106488500D01*
X105600000Y-104088500D01*
G36*
X106900000Y-106488500D02*
G01*
X105600000Y-106488500D01*
X105600000Y-104088500D01*
X106900000Y-104088500D01*
X106900000Y-106488500D01*
G37*
X90400000Y-104088500D02*
X91700000Y-104088500D01*
X91700000Y-106488500D01*
X90400000Y-106488500D01*
X90400000Y-104088500D01*
G36*
X91700000Y-106488500D02*
G01*
X90400000Y-106488500D01*
X90400000Y-104088500D01*
X91700000Y-104088500D01*
X91700000Y-106488500D01*
G37*
X91700000Y-106688500D02*
X105600000Y-106688500D01*
X105600000Y-103788500D01*
X91700000Y-103788500D01*
X91700000Y-106688500D01*
G36*
X105600000Y-106688500D02*
G01*
X91700000Y-106688500D01*
X91700000Y-103788500D01*
X105600000Y-103788500D01*
X105600000Y-106688500D01*
G37*
X125600000Y-84088500D02*
X126900000Y-84088500D01*
X126900000Y-86488500D01*
X125600000Y-86488500D01*
X125600000Y-84088500D01*
G36*
X126900000Y-86488500D02*
G01*
X125600000Y-86488500D01*
X125600000Y-84088500D01*
X126900000Y-84088500D01*
X126900000Y-86488500D01*
G37*
X110400000Y-84088500D02*
X111700000Y-84088500D01*
X111700000Y-86488500D01*
X110400000Y-86488500D01*
X110400000Y-84088500D01*
G36*
X111700000Y-86488500D02*
G01*
X110400000Y-86488500D01*
X110400000Y-84088500D01*
X111700000Y-84088500D01*
X111700000Y-86488500D01*
G37*
X111700000Y-86688500D02*
X125600000Y-86688500D01*
X125600000Y-83788500D01*
X111700000Y-83788500D01*
X111700000Y-86688500D01*
G36*
X125600000Y-86688500D02*
G01*
X111700000Y-86688500D01*
X111700000Y-83788500D01*
X125600000Y-83788500D01*
X125600000Y-86688500D01*
G37*
X105600000Y-84088500D02*
X106900000Y-84088500D01*
X106900000Y-86488500D01*
X105600000Y-86488500D01*
X105600000Y-84088500D01*
G36*
X106900000Y-86488500D02*
G01*
X105600000Y-86488500D01*
X105600000Y-84088500D01*
X106900000Y-84088500D01*
X106900000Y-86488500D01*
G37*
X90400000Y-84088500D02*
X91700000Y-84088500D01*
X91700000Y-86488500D01*
X90400000Y-86488500D01*
X90400000Y-84088500D01*
G36*
X91700000Y-86488500D02*
G01*
X90400000Y-86488500D01*
X90400000Y-84088500D01*
X91700000Y-84088500D01*
X91700000Y-86488500D01*
G37*
X91700000Y-86688500D02*
X105600000Y-86688500D01*
X105600000Y-83788500D01*
X91700000Y-83788500D01*
X91700000Y-86688500D01*
G36*
X105600000Y-86688500D02*
G01*
X91700000Y-86688500D01*
X91700000Y-83788500D01*
X105600000Y-83788500D01*
X105600000Y-86688500D01*
G37*
X125600000Y-64088500D02*
X126900000Y-64088500D01*
X126900000Y-66488500D01*
X125600000Y-66488500D01*
X125600000Y-64088500D01*
G36*
X126900000Y-66488500D02*
G01*
X125600000Y-66488500D01*
X125600000Y-64088500D01*
X126900000Y-64088500D01*
X126900000Y-66488500D01*
G37*
X110400000Y-64088500D02*
X111700000Y-64088500D01*
X111700000Y-66488500D01*
X110400000Y-66488500D01*
X110400000Y-64088500D01*
G36*
X111700000Y-66488500D02*
G01*
X110400000Y-66488500D01*
X110400000Y-64088500D01*
X111700000Y-64088500D01*
X111700000Y-66488500D01*
G37*
X111700000Y-66688500D02*
X125600000Y-66688500D01*
X125600000Y-63788500D01*
X111700000Y-63788500D01*
X111700000Y-66688500D01*
G36*
X125600000Y-66688500D02*
G01*
X111700000Y-66688500D01*
X111700000Y-63788500D01*
X125600000Y-63788500D01*
X125600000Y-66688500D01*
G37*
X105600000Y-64088500D02*
X106900000Y-64088500D01*
X106900000Y-66488500D01*
X105600000Y-66488500D01*
X105600000Y-64088500D01*
G36*
X106900000Y-66488500D02*
G01*
X105600000Y-66488500D01*
X105600000Y-64088500D01*
X106900000Y-64088500D01*
X106900000Y-66488500D01*
G37*
X90400000Y-64088500D02*
X91700000Y-64088500D01*
X91700000Y-66488500D01*
X90400000Y-66488500D01*
X90400000Y-64088500D01*
G36*
X91700000Y-66488500D02*
G01*
X90400000Y-66488500D01*
X90400000Y-64088500D01*
X91700000Y-64088500D01*
X91700000Y-66488500D01*
G37*
X91700000Y-66688500D02*
X105600000Y-66688500D01*
X105600000Y-63788500D01*
X91700000Y-63788500D01*
X91700000Y-66688500D01*
G36*
X105600000Y-66688500D02*
G01*
X91700000Y-66688500D01*
X91700000Y-63788500D01*
X105600000Y-63788500D01*
X105600000Y-66688500D01*
G37*
X125600000Y-44088500D02*
X126900000Y-44088500D01*
X126900000Y-46488500D01*
X125600000Y-46488500D01*
X125600000Y-44088500D01*
G36*
X126900000Y-46488500D02*
G01*
X125600000Y-46488500D01*
X125600000Y-44088500D01*
X126900000Y-44088500D01*
X126900000Y-46488500D01*
G37*
X110400000Y-44088500D02*
X111700000Y-44088500D01*
X111700000Y-46488500D01*
X110400000Y-46488500D01*
X110400000Y-44088500D01*
G36*
X111700000Y-46488500D02*
G01*
X110400000Y-46488500D01*
X110400000Y-44088500D01*
X111700000Y-44088500D01*
X111700000Y-46488500D01*
G37*
X111700000Y-46688500D02*
X125600000Y-46688500D01*
X125600000Y-43788500D01*
X111700000Y-43788500D01*
X111700000Y-46688500D01*
G36*
X125600000Y-46688500D02*
G01*
X111700000Y-46688500D01*
X111700000Y-43788500D01*
X125600000Y-43788500D01*
X125600000Y-46688500D01*
G37*
X105600000Y-44088500D02*
X106900000Y-44088500D01*
X106900000Y-46488500D01*
X105600000Y-46488500D01*
X105600000Y-44088500D01*
G36*
X106900000Y-46488500D02*
G01*
X105600000Y-46488500D01*
X105600000Y-44088500D01*
X106900000Y-44088500D01*
X106900000Y-46488500D01*
G37*
X90400000Y-44088500D02*
X91700000Y-44088500D01*
X91700000Y-46488500D01*
X90400000Y-46488500D01*
X90400000Y-44088500D01*
G36*
X91700000Y-46488500D02*
G01*
X90400000Y-46488500D01*
X90400000Y-44088500D01*
X91700000Y-44088500D01*
X91700000Y-46488500D01*
G37*
X91700000Y-46688500D02*
X105600000Y-46688500D01*
X105600000Y-43788500D01*
X91700000Y-43788500D01*
X91700000Y-46688500D01*
G36*
X105600000Y-46688500D02*
G01*
X91700000Y-46688500D01*
X91700000Y-43788500D01*
X105600000Y-43788500D01*
X105600000Y-46688500D01*
G37*
X85600000Y-44088500D02*
X86900000Y-44088500D01*
X86900000Y-46488500D01*
X85600000Y-46488500D01*
X85600000Y-44088500D01*
G36*
X86900000Y-46488500D02*
G01*
X85600000Y-46488500D01*
X85600000Y-44088500D01*
X86900000Y-44088500D01*
X86900000Y-46488500D01*
G37*
X70400000Y-44088500D02*
X71700000Y-44088500D01*
X71700000Y-46488500D01*
X70400000Y-46488500D01*
X70400000Y-44088500D01*
G36*
X71700000Y-46488500D02*
G01*
X70400000Y-46488500D01*
X70400000Y-44088500D01*
X71700000Y-44088500D01*
X71700000Y-46488500D01*
G37*
X71700000Y-46688500D02*
X85600000Y-46688500D01*
X85600000Y-43788500D01*
X71700000Y-43788500D01*
X71700000Y-46688500D01*
G36*
X85600000Y-46688500D02*
G01*
X71700000Y-46688500D01*
X71700000Y-43788500D01*
X85600000Y-43788500D01*
X85600000Y-46688500D01*
G37*
X85600000Y-64088500D02*
X86900000Y-64088500D01*
X86900000Y-66488500D01*
X85600000Y-66488500D01*
X85600000Y-64088500D01*
G36*
X86900000Y-66488500D02*
G01*
X85600000Y-66488500D01*
X85600000Y-64088500D01*
X86900000Y-64088500D01*
X86900000Y-66488500D01*
G37*
X70400000Y-64088500D02*
X71700000Y-64088500D01*
X71700000Y-66488500D01*
X70400000Y-66488500D01*
X70400000Y-64088500D01*
G36*
X71700000Y-66488500D02*
G01*
X70400000Y-66488500D01*
X70400000Y-64088500D01*
X71700000Y-64088500D01*
X71700000Y-66488500D01*
G37*
X71700000Y-66688500D02*
X85600000Y-66688500D01*
X85600000Y-63788500D01*
X71700000Y-63788500D01*
X71700000Y-66688500D01*
G36*
X85600000Y-66688500D02*
G01*
X71700000Y-66688500D01*
X71700000Y-63788500D01*
X85600000Y-63788500D01*
X85600000Y-66688500D01*
G37*
X85600000Y-84088500D02*
X86900000Y-84088500D01*
X86900000Y-86488500D01*
X85600000Y-86488500D01*
X85600000Y-84088500D01*
G36*
X86900000Y-86488500D02*
G01*
X85600000Y-86488500D01*
X85600000Y-84088500D01*
X86900000Y-84088500D01*
X86900000Y-86488500D01*
G37*
X70400000Y-84088500D02*
X71700000Y-84088500D01*
X71700000Y-86488500D01*
X70400000Y-86488500D01*
X70400000Y-84088500D01*
G36*
X71700000Y-86488500D02*
G01*
X70400000Y-86488500D01*
X70400000Y-84088500D01*
X71700000Y-84088500D01*
X71700000Y-86488500D01*
G37*
X71700000Y-86688500D02*
X85600000Y-86688500D01*
X85600000Y-83788500D01*
X71700000Y-83788500D01*
X71700000Y-86688500D01*
G36*
X85600000Y-86688500D02*
G01*
X71700000Y-86688500D01*
X71700000Y-83788500D01*
X85600000Y-83788500D01*
X85600000Y-86688500D01*
G37*
X85600000Y-104088500D02*
X86900000Y-104088500D01*
X86900000Y-106488500D01*
X85600000Y-106488500D01*
X85600000Y-104088500D01*
G36*
X86900000Y-106488500D02*
G01*
X85600000Y-106488500D01*
X85600000Y-104088500D01*
X86900000Y-104088500D01*
X86900000Y-106488500D01*
G37*
X70400000Y-104088500D02*
X71700000Y-104088500D01*
X71700000Y-106488500D01*
X70400000Y-106488500D01*
X70400000Y-104088500D01*
G36*
X71700000Y-106488500D02*
G01*
X70400000Y-106488500D01*
X70400000Y-104088500D01*
X71700000Y-104088500D01*
X71700000Y-106488500D01*
G37*
X71700000Y-106688500D02*
X85600000Y-106688500D01*
X85600000Y-103788500D01*
X71700000Y-103788500D01*
X71700000Y-106688500D01*
G36*
X85600000Y-106688500D02*
G01*
X71700000Y-106688500D01*
X71700000Y-103788500D01*
X85600000Y-103788500D01*
X85600000Y-106688500D01*
G37*
X65600000Y-104088500D02*
X66900000Y-104088500D01*
X66900000Y-106488500D01*
X65600000Y-106488500D01*
X65600000Y-104088500D01*
G36*
X66900000Y-106488500D02*
G01*
X65600000Y-106488500D01*
X65600000Y-104088500D01*
X66900000Y-104088500D01*
X66900000Y-106488500D01*
G37*
X50400000Y-104088500D02*
X51700000Y-104088500D01*
X51700000Y-106488500D01*
X50400000Y-106488500D01*
X50400000Y-104088500D01*
G36*
X51700000Y-106488500D02*
G01*
X50400000Y-106488500D01*
X50400000Y-104088500D01*
X51700000Y-104088500D01*
X51700000Y-106488500D01*
G37*
X51700000Y-106688500D02*
X65600000Y-106688500D01*
X65600000Y-103788500D01*
X51700000Y-103788500D01*
X51700000Y-106688500D01*
G36*
X65600000Y-106688500D02*
G01*
X51700000Y-106688500D01*
X51700000Y-103788500D01*
X65600000Y-103788500D01*
X65600000Y-106688500D01*
G37*
X65600000Y-84088500D02*
X66900000Y-84088500D01*
X66900000Y-86488500D01*
X65600000Y-86488500D01*
X65600000Y-84088500D01*
G36*
X66900000Y-86488500D02*
G01*
X65600000Y-86488500D01*
X65600000Y-84088500D01*
X66900000Y-84088500D01*
X66900000Y-86488500D01*
G37*
X50400000Y-84088500D02*
X51700000Y-84088500D01*
X51700000Y-86488500D01*
X50400000Y-86488500D01*
X50400000Y-84088500D01*
G36*
X51700000Y-86488500D02*
G01*
X50400000Y-86488500D01*
X50400000Y-84088500D01*
X51700000Y-84088500D01*
X51700000Y-86488500D01*
G37*
X51700000Y-86688500D02*
X65600000Y-86688500D01*
X65600000Y-83788500D01*
X51700000Y-83788500D01*
X51700000Y-86688500D01*
G36*
X65600000Y-86688500D02*
G01*
X51700000Y-86688500D01*
X51700000Y-83788500D01*
X65600000Y-83788500D01*
X65600000Y-86688500D01*
G37*
X65600000Y-64088500D02*
X66900000Y-64088500D01*
X66900000Y-66488500D01*
X65600000Y-66488500D01*
X65600000Y-64088500D01*
G36*
X66900000Y-66488500D02*
G01*
X65600000Y-66488500D01*
X65600000Y-64088500D01*
X66900000Y-64088500D01*
X66900000Y-66488500D01*
G37*
X50400000Y-64088500D02*
X51700000Y-64088500D01*
X51700000Y-66488500D01*
X50400000Y-66488500D01*
X50400000Y-64088500D01*
G36*
X51700000Y-66488500D02*
G01*
X50400000Y-66488500D01*
X50400000Y-64088500D01*
X51700000Y-64088500D01*
X51700000Y-66488500D01*
G37*
X51700000Y-66688500D02*
X65600000Y-66688500D01*
X65600000Y-63788500D01*
X51700000Y-63788500D01*
X51700000Y-66688500D01*
G36*
X65600000Y-66688500D02*
G01*
X51700000Y-66688500D01*
X51700000Y-63788500D01*
X65600000Y-63788500D01*
X65600000Y-66688500D01*
G37*
X65600000Y-44088500D02*
X66900000Y-44088500D01*
X66900000Y-46488500D01*
X65600000Y-46488500D01*
X65600000Y-44088500D01*
G36*
X66900000Y-46488500D02*
G01*
X65600000Y-46488500D01*
X65600000Y-44088500D01*
X66900000Y-44088500D01*
X66900000Y-46488500D01*
G37*
X50400000Y-44088500D02*
X51700000Y-44088500D01*
X51700000Y-46488500D01*
X50400000Y-46488500D01*
X50400000Y-44088500D01*
G36*
X51700000Y-46488500D02*
G01*
X50400000Y-46488500D01*
X50400000Y-44088500D01*
X51700000Y-44088500D01*
X51700000Y-46488500D01*
G37*
X51700000Y-46688500D02*
X65600000Y-46688500D01*
X65600000Y-43788500D01*
X51700000Y-43788500D01*
X51700000Y-46688500D01*
G36*
X65600000Y-46688500D02*
G01*
X51700000Y-46688500D01*
X51700000Y-43788500D01*
X65600000Y-43788500D01*
X65600000Y-46688500D01*
G37*
X45600000Y-104088500D02*
X46900000Y-104088500D01*
X46900000Y-106488500D01*
X45600000Y-106488500D01*
X45600000Y-104088500D01*
G36*
X46900000Y-106488500D02*
G01*
X45600000Y-106488500D01*
X45600000Y-104088500D01*
X46900000Y-104088500D01*
X46900000Y-106488500D01*
G37*
X31700000Y-106688500D02*
X45600000Y-106688500D01*
X45600000Y-103788500D01*
X31700000Y-103788500D01*
X31700000Y-106688500D01*
G36*
X45600000Y-106688500D02*
G01*
X31700000Y-106688500D01*
X31700000Y-103788500D01*
X45600000Y-103788500D01*
X45600000Y-106688500D01*
G37*
X30400000Y-104088500D02*
X31700000Y-104088500D01*
X31700000Y-106488500D01*
X30400000Y-106488500D01*
X30400000Y-104088500D01*
G36*
X31700000Y-106488500D02*
G01*
X30400000Y-106488500D01*
X30400000Y-104088500D01*
X31700000Y-104088500D01*
X31700000Y-106488500D01*
G37*
X45600000Y-84088500D02*
X46900000Y-84088500D01*
X46900000Y-86488500D01*
X45600000Y-86488500D01*
X45600000Y-84088500D01*
G36*
X46900000Y-86488500D02*
G01*
X45600000Y-86488500D01*
X45600000Y-84088500D01*
X46900000Y-84088500D01*
X46900000Y-86488500D01*
G37*
X31700000Y-86688500D02*
X45600000Y-86688500D01*
X45600000Y-83788500D01*
X31700000Y-83788500D01*
X31700000Y-86688500D01*
G36*
X45600000Y-86688500D02*
G01*
X31700000Y-86688500D01*
X31700000Y-83788500D01*
X45600000Y-83788500D01*
X45600000Y-86688500D01*
G37*
X30400000Y-84088500D02*
X31700000Y-84088500D01*
X31700000Y-86488500D01*
X30400000Y-86488500D01*
X30400000Y-84088500D01*
G36*
X31700000Y-86488500D02*
G01*
X30400000Y-86488500D01*
X30400000Y-84088500D01*
X31700000Y-84088500D01*
X31700000Y-86488500D01*
G37*
X45600000Y-64088500D02*
X46900000Y-64088500D01*
X46900000Y-66488500D01*
X45600000Y-66488500D01*
X45600000Y-64088500D01*
G36*
X46900000Y-66488500D02*
G01*
X45600000Y-66488500D01*
X45600000Y-64088500D01*
X46900000Y-64088500D01*
X46900000Y-66488500D01*
G37*
X31700000Y-66688500D02*
X45600000Y-66688500D01*
X45600000Y-63788500D01*
X31700000Y-63788500D01*
X31700000Y-66688500D01*
G36*
X45600000Y-66688500D02*
G01*
X31700000Y-66688500D01*
X31700000Y-63788500D01*
X45600000Y-63788500D01*
X45600000Y-66688500D01*
G37*
X30400000Y-64088500D02*
X31700000Y-64088500D01*
X31700000Y-66488500D01*
X30400000Y-66488500D01*
X30400000Y-64088500D01*
G36*
X31700000Y-66488500D02*
G01*
X30400000Y-66488500D01*
X30400000Y-64088500D01*
X31700000Y-64088500D01*
X31700000Y-66488500D01*
G37*
X31700000Y-46688500D02*
X45600000Y-46688500D01*
X45600000Y-43788500D01*
X31700000Y-43788500D01*
X31700000Y-46688500D01*
G36*
X45600000Y-46688500D02*
G01*
X31700000Y-46688500D01*
X31700000Y-43788500D01*
X45600000Y-43788500D01*
X45600000Y-46688500D01*
G37*
X45600000Y-44088500D02*
X46900000Y-44088500D01*
X46900000Y-46488500D01*
X45600000Y-46488500D01*
X45600000Y-44088500D01*
G36*
X46900000Y-46488500D02*
G01*
X45600000Y-46488500D01*
X45600000Y-44088500D01*
X46900000Y-44088500D01*
X46900000Y-46488500D01*
G37*
X30400000Y-44088500D02*
X31700000Y-44088500D01*
X31700000Y-46488500D01*
X30400000Y-46488500D01*
X30400000Y-44088500D01*
G36*
X31700000Y-46488500D02*
G01*
X30400000Y-46488500D01*
X30400000Y-44088500D01*
X31700000Y-44088500D01*
X31700000Y-46488500D01*
G37*
D11*
X117380000Y-110577000D03*
X117380000Y-113117000D03*
X117380000Y-115657000D03*
X117380000Y-118197000D03*
X117380000Y-120737000D03*
X119920000Y-110577000D03*
X119920000Y-113117000D03*
X119920000Y-115657000D03*
X119920000Y-118197000D03*
X119920000Y-120737000D03*
D12*
X110400000Y-105288500D03*
X126900000Y-105288500D03*
D13*
X112575000Y-106263500D03*
D14*
X112350000Y-104463500D03*
D15*
X113700000Y-106113500D03*
D14*
X113250000Y-104463500D03*
D15*
X114600000Y-106113500D03*
D14*
X114150000Y-104463500D03*
D15*
X115500000Y-106113500D03*
D14*
X115050000Y-104463500D03*
D15*
X116400000Y-106113500D03*
D14*
X115950000Y-104463500D03*
D15*
X117300000Y-106113500D03*
D14*
X116850000Y-104463500D03*
D15*
X118200000Y-106113500D03*
D14*
X117750000Y-104463500D03*
D15*
X119100000Y-106113500D03*
D14*
X118650000Y-104463500D03*
D15*
X120000000Y-106113500D03*
D14*
X119550000Y-104463500D03*
D15*
X120900000Y-106113500D03*
D14*
X120450000Y-104463500D03*
D15*
X121800000Y-106113500D03*
D14*
X121350000Y-104463500D03*
D15*
X122700000Y-106113500D03*
D14*
X122250000Y-104463500D03*
D15*
X123600000Y-106113500D03*
D14*
X123150000Y-104463500D03*
D13*
X124725000Y-106263500D03*
D14*
X124050000Y-104463500D03*
X124950000Y-104463500D03*
D11*
X112300000Y-110577000D03*
X112300000Y-113117000D03*
X112300000Y-115657000D03*
X112300000Y-118197000D03*
X112300000Y-120737000D03*
X114840000Y-110577000D03*
X114840000Y-113117000D03*
X114840000Y-115657000D03*
X114840000Y-118197000D03*
X114840000Y-120737000D03*
X122460000Y-110577000D03*
X122460000Y-113117000D03*
X122460000Y-115657000D03*
X122460000Y-118197000D03*
X122460000Y-120737000D03*
X125000000Y-110577000D03*
X125000000Y-113117000D03*
X125000000Y-115657000D03*
X125000000Y-118197000D03*
X125000000Y-120737000D03*
X97380000Y-110577000D03*
X97380000Y-113117000D03*
X97380000Y-115657000D03*
X97380000Y-118197000D03*
X97380000Y-120737000D03*
X99920000Y-110577000D03*
X99920000Y-113117000D03*
X99920000Y-115657000D03*
X99920000Y-118197000D03*
X99920000Y-120737000D03*
D12*
X90400000Y-105288500D03*
X106900000Y-105288500D03*
D13*
X92575000Y-106263500D03*
D14*
X92350000Y-104463500D03*
D15*
X93700000Y-106113500D03*
D14*
X93250000Y-104463500D03*
D15*
X94600000Y-106113500D03*
D14*
X94150000Y-104463500D03*
D15*
X95500000Y-106113500D03*
D14*
X95050000Y-104463500D03*
D15*
X96400000Y-106113500D03*
D14*
X95950000Y-104463500D03*
D15*
X97300000Y-106113500D03*
D14*
X96850000Y-104463500D03*
D15*
X98200000Y-106113500D03*
D14*
X97750000Y-104463500D03*
D15*
X99100000Y-106113500D03*
D14*
X98650000Y-104463500D03*
D15*
X100000000Y-106113500D03*
D14*
X99550000Y-104463500D03*
D15*
X100900000Y-106113500D03*
D14*
X100450000Y-104463500D03*
D15*
X101800000Y-106113500D03*
D14*
X101350000Y-104463500D03*
D15*
X102700000Y-106113500D03*
D14*
X102250000Y-104463500D03*
D15*
X103600000Y-106113500D03*
D14*
X103150000Y-104463500D03*
D13*
X104725000Y-106263500D03*
D14*
X104050000Y-104463500D03*
X104950000Y-104463500D03*
D11*
X92300000Y-110577000D03*
X92300000Y-113117000D03*
X92300000Y-115657000D03*
X92300000Y-118197000D03*
X92300000Y-120737000D03*
X94840000Y-110577000D03*
X94840000Y-113117000D03*
X94840000Y-115657000D03*
X94840000Y-118197000D03*
X94840000Y-120737000D03*
X102460000Y-110577000D03*
X102460000Y-113117000D03*
X102460000Y-115657000D03*
X102460000Y-118197000D03*
X102460000Y-120737000D03*
X105000000Y-110577000D03*
X105000000Y-113117000D03*
X105000000Y-115657000D03*
X105000000Y-118197000D03*
X105000000Y-120737000D03*
X117380000Y-90577000D03*
X117380000Y-93117000D03*
X117380000Y-95657000D03*
X117380000Y-98197000D03*
X117380000Y-100737000D03*
X119920000Y-90577000D03*
X119920000Y-93117000D03*
X119920000Y-95657000D03*
X119920000Y-98197000D03*
X119920000Y-100737000D03*
D12*
X110400000Y-85288500D03*
X126900000Y-85288500D03*
D13*
X112575000Y-86263500D03*
D14*
X112350000Y-84463500D03*
D15*
X113700000Y-86113500D03*
D14*
X113250000Y-84463500D03*
D15*
X114600000Y-86113500D03*
D14*
X114150000Y-84463500D03*
D15*
X115500000Y-86113500D03*
D14*
X115050000Y-84463500D03*
D15*
X116400000Y-86113500D03*
D14*
X115950000Y-84463500D03*
D15*
X117300000Y-86113500D03*
D14*
X116850000Y-84463500D03*
D15*
X118200000Y-86113500D03*
D14*
X117750000Y-84463500D03*
D15*
X119100000Y-86113500D03*
D14*
X118650000Y-84463500D03*
D15*
X120000000Y-86113500D03*
D14*
X119550000Y-84463500D03*
D15*
X120900000Y-86113500D03*
D14*
X120450000Y-84463500D03*
D15*
X121800000Y-86113500D03*
D14*
X121350000Y-84463500D03*
D15*
X122700000Y-86113500D03*
D14*
X122250000Y-84463500D03*
D15*
X123600000Y-86113500D03*
D14*
X123150000Y-84463500D03*
D13*
X124725000Y-86263500D03*
D14*
X124050000Y-84463500D03*
X124950000Y-84463500D03*
D11*
X112300000Y-90577000D03*
X112300000Y-93117000D03*
X112300000Y-95657000D03*
X112300000Y-98197000D03*
X112300000Y-100737000D03*
X114840000Y-90577000D03*
X114840000Y-93117000D03*
X114840000Y-95657000D03*
X114840000Y-98197000D03*
X114840000Y-100737000D03*
X122460000Y-90577000D03*
X122460000Y-93117000D03*
X122460000Y-95657000D03*
X122460000Y-98197000D03*
X122460000Y-100737000D03*
X125000000Y-90577000D03*
X125000000Y-93117000D03*
X125000000Y-95657000D03*
X125000000Y-98197000D03*
X125000000Y-100737000D03*
X97380000Y-90577000D03*
X97380000Y-93117000D03*
X97380000Y-95657000D03*
X97380000Y-98197000D03*
X97380000Y-100737000D03*
X99920000Y-90577000D03*
X99920000Y-93117000D03*
X99920000Y-95657000D03*
X99920000Y-98197000D03*
X99920000Y-100737000D03*
D12*
X90400000Y-85288500D03*
X106900000Y-85288500D03*
D13*
X92575000Y-86263500D03*
D14*
X92350000Y-84463500D03*
D15*
X93700000Y-86113500D03*
D14*
X93250000Y-84463500D03*
D15*
X94600000Y-86113500D03*
D14*
X94150000Y-84463500D03*
D15*
X95500000Y-86113500D03*
D14*
X95050000Y-84463500D03*
D15*
X96400000Y-86113500D03*
D14*
X95950000Y-84463500D03*
D15*
X97300000Y-86113500D03*
D14*
X96850000Y-84463500D03*
D15*
X98200000Y-86113500D03*
D14*
X97750000Y-84463500D03*
D15*
X99100000Y-86113500D03*
D14*
X98650000Y-84463500D03*
D15*
X100000000Y-86113500D03*
D14*
X99550000Y-84463500D03*
D15*
X100900000Y-86113500D03*
D14*
X100450000Y-84463500D03*
D15*
X101800000Y-86113500D03*
D14*
X101350000Y-84463500D03*
D15*
X102700000Y-86113500D03*
D14*
X102250000Y-84463500D03*
D15*
X103600000Y-86113500D03*
D14*
X103150000Y-84463500D03*
D13*
X104725000Y-86263500D03*
D14*
X104050000Y-84463500D03*
X104950000Y-84463500D03*
D11*
X92300000Y-90577000D03*
X92300000Y-93117000D03*
X92300000Y-95657000D03*
X92300000Y-98197000D03*
X92300000Y-100737000D03*
X94840000Y-90577000D03*
X94840000Y-93117000D03*
X94840000Y-95657000D03*
X94840000Y-98197000D03*
X94840000Y-100737000D03*
X102460000Y-90577000D03*
X102460000Y-93117000D03*
X102460000Y-95657000D03*
X102460000Y-98197000D03*
X102460000Y-100737000D03*
X105000000Y-90577000D03*
X105000000Y-93117000D03*
X105000000Y-95657000D03*
X105000000Y-98197000D03*
X105000000Y-100737000D03*
X117380000Y-70577000D03*
X117380000Y-73117000D03*
X117380000Y-75657000D03*
X117380000Y-78197000D03*
X117380000Y-80737000D03*
X119920000Y-70577000D03*
X119920000Y-73117000D03*
X119920000Y-75657000D03*
X119920000Y-78197000D03*
X119920000Y-80737000D03*
D12*
X110400000Y-65288500D03*
X126900000Y-65288500D03*
D13*
X112575000Y-66263500D03*
D14*
X112350000Y-64463500D03*
D15*
X113700000Y-66113500D03*
D14*
X113250000Y-64463500D03*
D15*
X114600000Y-66113500D03*
D14*
X114150000Y-64463500D03*
D15*
X115500000Y-66113500D03*
D14*
X115050000Y-64463500D03*
D15*
X116400000Y-66113500D03*
D14*
X115950000Y-64463500D03*
D15*
X117300000Y-66113500D03*
D14*
X116850000Y-64463500D03*
D15*
X118200000Y-66113500D03*
D14*
X117750000Y-64463500D03*
D15*
X119100000Y-66113500D03*
D14*
X118650000Y-64463500D03*
D15*
X120000000Y-66113500D03*
D14*
X119550000Y-64463500D03*
D15*
X120900000Y-66113500D03*
D14*
X120450000Y-64463500D03*
D15*
X121800000Y-66113500D03*
D14*
X121350000Y-64463500D03*
D15*
X122700000Y-66113500D03*
D14*
X122250000Y-64463500D03*
D15*
X123600000Y-66113500D03*
D14*
X123150000Y-64463500D03*
D13*
X124725000Y-66263500D03*
D14*
X124050000Y-64463500D03*
X124950000Y-64463500D03*
D11*
X112300000Y-70577000D03*
X112300000Y-73117000D03*
X112300000Y-75657000D03*
X112300000Y-78197000D03*
X112300000Y-80737000D03*
X114840000Y-70577000D03*
X114840000Y-73117000D03*
X114840000Y-75657000D03*
X114840000Y-78197000D03*
X114840000Y-80737000D03*
X122460000Y-70577000D03*
X122460000Y-73117000D03*
X122460000Y-75657000D03*
X122460000Y-78197000D03*
X122460000Y-80737000D03*
X125000000Y-70577000D03*
X125000000Y-73117000D03*
X125000000Y-75657000D03*
X125000000Y-78197000D03*
X125000000Y-80737000D03*
X97380000Y-70577000D03*
X97380000Y-73117000D03*
X97380000Y-75657000D03*
X97380000Y-78197000D03*
X97380000Y-80737000D03*
X99920000Y-70577000D03*
X99920000Y-73117000D03*
X99920000Y-75657000D03*
X99920000Y-78197000D03*
X99920000Y-80737000D03*
D12*
X90400000Y-65288500D03*
X106900000Y-65288500D03*
D13*
X92575000Y-66263500D03*
D14*
X92350000Y-64463500D03*
D15*
X93700000Y-66113500D03*
D14*
X93250000Y-64463500D03*
D15*
X94600000Y-66113500D03*
D14*
X94150000Y-64463500D03*
D15*
X95500000Y-66113500D03*
D14*
X95050000Y-64463500D03*
D15*
X96400000Y-66113500D03*
D14*
X95950000Y-64463500D03*
D15*
X97300000Y-66113500D03*
D14*
X96850000Y-64463500D03*
D15*
X98200000Y-66113500D03*
D14*
X97750000Y-64463500D03*
D15*
X99100000Y-66113500D03*
D14*
X98650000Y-64463500D03*
D15*
X100000000Y-66113500D03*
D14*
X99550000Y-64463500D03*
D15*
X100900000Y-66113500D03*
D14*
X100450000Y-64463500D03*
D15*
X101800000Y-66113500D03*
D14*
X101350000Y-64463500D03*
D15*
X102700000Y-66113500D03*
D14*
X102250000Y-64463500D03*
D15*
X103600000Y-66113500D03*
D14*
X103150000Y-64463500D03*
D13*
X104725000Y-66263500D03*
D14*
X104050000Y-64463500D03*
X104950000Y-64463500D03*
D11*
X92300000Y-70577000D03*
X92300000Y-73117000D03*
X92300000Y-75657000D03*
X92300000Y-78197000D03*
X92300000Y-80737000D03*
X94840000Y-70577000D03*
X94840000Y-73117000D03*
X94840000Y-75657000D03*
X94840000Y-78197000D03*
X94840000Y-80737000D03*
X102460000Y-70577000D03*
X102460000Y-73117000D03*
X102460000Y-75657000D03*
X102460000Y-78197000D03*
X102460000Y-80737000D03*
X105000000Y-70577000D03*
X105000000Y-73117000D03*
X105000000Y-75657000D03*
X105000000Y-78197000D03*
X105000000Y-80737000D03*
X117380000Y-50577000D03*
X117380000Y-53117000D03*
X117380000Y-55657000D03*
X117380000Y-58197000D03*
X117380000Y-60737000D03*
X119920000Y-50577000D03*
X119920000Y-53117000D03*
X119920000Y-55657000D03*
X119920000Y-58197000D03*
X119920000Y-60737000D03*
D12*
X110400000Y-45288500D03*
X126900000Y-45288500D03*
D13*
X112575000Y-46263500D03*
D14*
X112350000Y-44463500D03*
D15*
X113700000Y-46113500D03*
D14*
X113250000Y-44463500D03*
D15*
X114600000Y-46113500D03*
D14*
X114150000Y-44463500D03*
D15*
X115500000Y-46113500D03*
D14*
X115050000Y-44463500D03*
D15*
X116400000Y-46113500D03*
D14*
X115950000Y-44463500D03*
D15*
X117300000Y-46113500D03*
D14*
X116850000Y-44463500D03*
D15*
X118200000Y-46113500D03*
D14*
X117750000Y-44463500D03*
D15*
X119100000Y-46113500D03*
D14*
X118650000Y-44463500D03*
D15*
X120000000Y-46113500D03*
D14*
X119550000Y-44463500D03*
D15*
X120900000Y-46113500D03*
D14*
X120450000Y-44463500D03*
D15*
X121800000Y-46113500D03*
D14*
X121350000Y-44463500D03*
D15*
X122700000Y-46113500D03*
D14*
X122250000Y-44463500D03*
D15*
X123600000Y-46113500D03*
D14*
X123150000Y-44463500D03*
D13*
X124725000Y-46263500D03*
D14*
X124050000Y-44463500D03*
X124950000Y-44463500D03*
D11*
X112300000Y-50577000D03*
X112300000Y-53117000D03*
X112300000Y-55657000D03*
X112300000Y-58197000D03*
X112300000Y-60737000D03*
X114840000Y-50577000D03*
X114840000Y-53117000D03*
X114840000Y-55657000D03*
X114840000Y-58197000D03*
X114840000Y-60737000D03*
X122460000Y-50577000D03*
X122460000Y-53117000D03*
X122460000Y-55657000D03*
X122460000Y-58197000D03*
X122460000Y-60737000D03*
X125000000Y-50577000D03*
X125000000Y-53117000D03*
X125000000Y-55657000D03*
X125000000Y-58197000D03*
X125000000Y-60737000D03*
X97380000Y-50577000D03*
X97380000Y-53117000D03*
X97380000Y-55657000D03*
X97380000Y-58197000D03*
X97380000Y-60737000D03*
X99920000Y-50577000D03*
X99920000Y-53117000D03*
X99920000Y-55657000D03*
X99920000Y-58197000D03*
X99920000Y-60737000D03*
D12*
X90400000Y-45288500D03*
X106900000Y-45288500D03*
D13*
X92575000Y-46263500D03*
D14*
X92350000Y-44463500D03*
D15*
X93700000Y-46113500D03*
D14*
X93250000Y-44463500D03*
D15*
X94600000Y-46113500D03*
D14*
X94150000Y-44463500D03*
D15*
X95500000Y-46113500D03*
D14*
X95050000Y-44463500D03*
D15*
X96400000Y-46113500D03*
D14*
X95950000Y-44463500D03*
D15*
X97300000Y-46113500D03*
D14*
X96850000Y-44463500D03*
D15*
X98200000Y-46113500D03*
D14*
X97750000Y-44463500D03*
D15*
X99100000Y-46113500D03*
D14*
X98650000Y-44463500D03*
D15*
X100000000Y-46113500D03*
D14*
X99550000Y-44463500D03*
D15*
X100900000Y-46113500D03*
D14*
X100450000Y-44463500D03*
D15*
X101800000Y-46113500D03*
D14*
X101350000Y-44463500D03*
D15*
X102700000Y-46113500D03*
D14*
X102250000Y-44463500D03*
D15*
X103600000Y-46113500D03*
D14*
X103150000Y-44463500D03*
D13*
X104725000Y-46263500D03*
D14*
X104050000Y-44463500D03*
X104950000Y-44463500D03*
D11*
X92300000Y-50577000D03*
X92300000Y-53117000D03*
X92300000Y-55657000D03*
X92300000Y-58197000D03*
X92300000Y-60737000D03*
X94840000Y-50577000D03*
X94840000Y-53117000D03*
X94840000Y-55657000D03*
X94840000Y-58197000D03*
X94840000Y-60737000D03*
X102460000Y-50577000D03*
X102460000Y-53117000D03*
X102460000Y-55657000D03*
X102460000Y-58197000D03*
X102460000Y-60737000D03*
X105000000Y-50577000D03*
X105000000Y-53117000D03*
X105000000Y-55657000D03*
X105000000Y-58197000D03*
X105000000Y-60737000D03*
X77380000Y-50577000D03*
X77380000Y-53117000D03*
X77380000Y-55657000D03*
X77380000Y-58197000D03*
X77380000Y-60737000D03*
X79920000Y-50577000D03*
X79920000Y-53117000D03*
X79920000Y-55657000D03*
X79920000Y-58197000D03*
X79920000Y-60737000D03*
D12*
X70400000Y-45288500D03*
X86900000Y-45288500D03*
D13*
X72575000Y-46263500D03*
D14*
X72350000Y-44463500D03*
D15*
X73700000Y-46113500D03*
D14*
X73250000Y-44463500D03*
D15*
X74600000Y-46113500D03*
D14*
X74150000Y-44463500D03*
D15*
X75500000Y-46113500D03*
D14*
X75050000Y-44463500D03*
D15*
X76400000Y-46113500D03*
D14*
X75950000Y-44463500D03*
D15*
X77300000Y-46113500D03*
D14*
X76850000Y-44463500D03*
D15*
X78200000Y-46113500D03*
D14*
X77750000Y-44463500D03*
D15*
X79100000Y-46113500D03*
D14*
X78650000Y-44463500D03*
D15*
X80000000Y-46113500D03*
D14*
X79550000Y-44463500D03*
D15*
X80900000Y-46113500D03*
D14*
X80450000Y-44463500D03*
D15*
X81800000Y-46113500D03*
D14*
X81350000Y-44463500D03*
D15*
X82700000Y-46113500D03*
D14*
X82250000Y-44463500D03*
D15*
X83600000Y-46113500D03*
D14*
X83150000Y-44463500D03*
D13*
X84725000Y-46263500D03*
D14*
X84050000Y-44463500D03*
X84950000Y-44463500D03*
D11*
X72300000Y-50577000D03*
X72300000Y-53117000D03*
X72300000Y-55657000D03*
X72300000Y-58197000D03*
X72300000Y-60737000D03*
X74840000Y-50577000D03*
X74840000Y-53117000D03*
X74840000Y-55657000D03*
X74840000Y-58197000D03*
X74840000Y-60737000D03*
X82460000Y-50577000D03*
X82460000Y-53117000D03*
X82460000Y-55657000D03*
X82460000Y-58197000D03*
X82460000Y-60737000D03*
X85000000Y-50577000D03*
X85000000Y-53117000D03*
X85000000Y-55657000D03*
X85000000Y-58197000D03*
X85000000Y-60737000D03*
X77380000Y-70577000D03*
X77380000Y-73117000D03*
X77380000Y-75657000D03*
X77380000Y-78197000D03*
X77380000Y-80737000D03*
X79920000Y-70577000D03*
X79920000Y-73117000D03*
X79920000Y-75657000D03*
X79920000Y-78197000D03*
X79920000Y-80737000D03*
D12*
X70400000Y-65288500D03*
X86900000Y-65288500D03*
D13*
X72575000Y-66263500D03*
D14*
X72350000Y-64463500D03*
D15*
X73700000Y-66113500D03*
D14*
X73250000Y-64463500D03*
D15*
X74600000Y-66113500D03*
D14*
X74150000Y-64463500D03*
D15*
X75500000Y-66113500D03*
D14*
X75050000Y-64463500D03*
D15*
X76400000Y-66113500D03*
D14*
X75950000Y-64463500D03*
D15*
X77300000Y-66113500D03*
D14*
X76850000Y-64463500D03*
D15*
X78200000Y-66113500D03*
D14*
X77750000Y-64463500D03*
D15*
X79100000Y-66113500D03*
D14*
X78650000Y-64463500D03*
D15*
X80000000Y-66113500D03*
D14*
X79550000Y-64463500D03*
D15*
X80900000Y-66113500D03*
D14*
X80450000Y-64463500D03*
D15*
X81800000Y-66113500D03*
D14*
X81350000Y-64463500D03*
D15*
X82700000Y-66113500D03*
D14*
X82250000Y-64463500D03*
D15*
X83600000Y-66113500D03*
D14*
X83150000Y-64463500D03*
D13*
X84725000Y-66263500D03*
D14*
X84050000Y-64463500D03*
X84950000Y-64463500D03*
D11*
X72300000Y-70577000D03*
X72300000Y-73117000D03*
X72300000Y-75657000D03*
X72300000Y-78197000D03*
X72300000Y-80737000D03*
X74840000Y-70577000D03*
X74840000Y-73117000D03*
X74840000Y-75657000D03*
X74840000Y-78197000D03*
X74840000Y-80737000D03*
X82460000Y-70577000D03*
X82460000Y-73117000D03*
X82460000Y-75657000D03*
X82460000Y-78197000D03*
X82460000Y-80737000D03*
X85000000Y-70577000D03*
X85000000Y-73117000D03*
X85000000Y-75657000D03*
X85000000Y-78197000D03*
X85000000Y-80737000D03*
X77380000Y-90577000D03*
X77380000Y-93117000D03*
X77380000Y-95657000D03*
X77380000Y-98197000D03*
X77380000Y-100737000D03*
X79920000Y-90577000D03*
X79920000Y-93117000D03*
X79920000Y-95657000D03*
X79920000Y-98197000D03*
X79920000Y-100737000D03*
D12*
X70400000Y-85288500D03*
X86900000Y-85288500D03*
D13*
X72575000Y-86263500D03*
D14*
X72350000Y-84463500D03*
D15*
X73700000Y-86113500D03*
D14*
X73250000Y-84463500D03*
D15*
X74600000Y-86113500D03*
D14*
X74150000Y-84463500D03*
D15*
X75500000Y-86113500D03*
D14*
X75050000Y-84463500D03*
D15*
X76400000Y-86113500D03*
D14*
X75950000Y-84463500D03*
D15*
X77300000Y-86113500D03*
D14*
X76850000Y-84463500D03*
D15*
X78200000Y-86113500D03*
D14*
X77750000Y-84463500D03*
D15*
X79100000Y-86113500D03*
D14*
X78650000Y-84463500D03*
D15*
X80000000Y-86113500D03*
D14*
X79550000Y-84463500D03*
D15*
X80900000Y-86113500D03*
D14*
X80450000Y-84463500D03*
D15*
X81800000Y-86113500D03*
D14*
X81350000Y-84463500D03*
D15*
X82700000Y-86113500D03*
D14*
X82250000Y-84463500D03*
D15*
X83600000Y-86113500D03*
D14*
X83150000Y-84463500D03*
D13*
X84725000Y-86263500D03*
D14*
X84050000Y-84463500D03*
X84950000Y-84463500D03*
D11*
X72300000Y-90577000D03*
X72300000Y-93117000D03*
X72300000Y-95657000D03*
X72300000Y-98197000D03*
X72300000Y-100737000D03*
X74840000Y-90577000D03*
X74840000Y-93117000D03*
X74840000Y-95657000D03*
X74840000Y-98197000D03*
X74840000Y-100737000D03*
X82460000Y-90577000D03*
X82460000Y-93117000D03*
X82460000Y-95657000D03*
X82460000Y-98197000D03*
X82460000Y-100737000D03*
X85000000Y-90577000D03*
X85000000Y-93117000D03*
X85000000Y-95657000D03*
X85000000Y-98197000D03*
X85000000Y-100737000D03*
X77380000Y-110577000D03*
X77380000Y-113117000D03*
X77380000Y-115657000D03*
X77380000Y-118197000D03*
X77380000Y-120737000D03*
X79920000Y-110577000D03*
X79920000Y-113117000D03*
X79920000Y-115657000D03*
X79920000Y-118197000D03*
X79920000Y-120737000D03*
D12*
X70400000Y-105288500D03*
X86900000Y-105288500D03*
D13*
X72575000Y-106263500D03*
D14*
X72350000Y-104463500D03*
D15*
X73700000Y-106113500D03*
D14*
X73250000Y-104463500D03*
D15*
X74600000Y-106113500D03*
D14*
X74150000Y-104463500D03*
D15*
X75500000Y-106113500D03*
D14*
X75050000Y-104463500D03*
D15*
X76400000Y-106113500D03*
D14*
X75950000Y-104463500D03*
D15*
X77300000Y-106113500D03*
D14*
X76850000Y-104463500D03*
D15*
X78200000Y-106113500D03*
D14*
X77750000Y-104463500D03*
D15*
X79100000Y-106113500D03*
D14*
X78650000Y-104463500D03*
D15*
X80000000Y-106113500D03*
D14*
X79550000Y-104463500D03*
D15*
X80900000Y-106113500D03*
D14*
X80450000Y-104463500D03*
D15*
X81800000Y-106113500D03*
D14*
X81350000Y-104463500D03*
D15*
X82700000Y-106113500D03*
D14*
X82250000Y-104463500D03*
D15*
X83600000Y-106113500D03*
D14*
X83150000Y-104463500D03*
D13*
X84725000Y-106263500D03*
D14*
X84050000Y-104463500D03*
X84950000Y-104463500D03*
D11*
X72300000Y-110577000D03*
X72300000Y-113117000D03*
X72300000Y-115657000D03*
X72300000Y-118197000D03*
X72300000Y-120737000D03*
X74840000Y-110577000D03*
X74840000Y-113117000D03*
X74840000Y-115657000D03*
X74840000Y-118197000D03*
X74840000Y-120737000D03*
X82460000Y-110577000D03*
X82460000Y-113117000D03*
X82460000Y-115657000D03*
X82460000Y-118197000D03*
X82460000Y-120737000D03*
X85000000Y-110577000D03*
X85000000Y-113117000D03*
X85000000Y-115657000D03*
X85000000Y-118197000D03*
X85000000Y-120737000D03*
X57380000Y-110577000D03*
X57380000Y-113117000D03*
X57380000Y-115657000D03*
X57380000Y-118197000D03*
X57380000Y-120737000D03*
X59920000Y-110577000D03*
X59920000Y-113117000D03*
X59920000Y-115657000D03*
X59920000Y-118197000D03*
X59920000Y-120737000D03*
D12*
X50400000Y-105288500D03*
X66900000Y-105288500D03*
D13*
X52575000Y-106263500D03*
D14*
X52350000Y-104463500D03*
D15*
X53700000Y-106113500D03*
D14*
X53250000Y-104463500D03*
D15*
X54600000Y-106113500D03*
D14*
X54150000Y-104463500D03*
D15*
X55500000Y-106113500D03*
D14*
X55050000Y-104463500D03*
D15*
X56400000Y-106113500D03*
D14*
X55950000Y-104463500D03*
D15*
X57300000Y-106113500D03*
D14*
X56850000Y-104463500D03*
D15*
X58200000Y-106113500D03*
D14*
X57750000Y-104463500D03*
D15*
X59100000Y-106113500D03*
D14*
X58650000Y-104463500D03*
D15*
X60000000Y-106113500D03*
D14*
X59550000Y-104463500D03*
D15*
X60900000Y-106113500D03*
D14*
X60450000Y-104463500D03*
D15*
X61800000Y-106113500D03*
D14*
X61350000Y-104463500D03*
D15*
X62700000Y-106113500D03*
D14*
X62250000Y-104463500D03*
D15*
X63600000Y-106113500D03*
D14*
X63150000Y-104463500D03*
D13*
X64725000Y-106263500D03*
D14*
X64050000Y-104463500D03*
X64950000Y-104463500D03*
D11*
X52300000Y-110577000D03*
X52300000Y-113117000D03*
X52300000Y-115657000D03*
X52300000Y-118197000D03*
X52300000Y-120737000D03*
X54840000Y-110577000D03*
X54840000Y-113117000D03*
X54840000Y-115657000D03*
X54840000Y-118197000D03*
X54840000Y-120737000D03*
X62460000Y-110577000D03*
X62460000Y-113117000D03*
X62460000Y-115657000D03*
X62460000Y-118197000D03*
X62460000Y-120737000D03*
X65000000Y-110577000D03*
X65000000Y-113117000D03*
X65000000Y-115657000D03*
X65000000Y-118197000D03*
X65000000Y-120737000D03*
X57380000Y-90577000D03*
X57380000Y-93117000D03*
X57380000Y-95657000D03*
X57380000Y-98197000D03*
X57380000Y-100737000D03*
X59920000Y-90577000D03*
X59920000Y-93117000D03*
X59920000Y-95657000D03*
X59920000Y-98197000D03*
X59920000Y-100737000D03*
D12*
X50400000Y-85288500D03*
X66900000Y-85288500D03*
D13*
X52575000Y-86263500D03*
D14*
X52350000Y-84463500D03*
D15*
X53700000Y-86113500D03*
D14*
X53250000Y-84463500D03*
D15*
X54600000Y-86113500D03*
D14*
X54150000Y-84463500D03*
D15*
X55500000Y-86113500D03*
D14*
X55050000Y-84463500D03*
D15*
X56400000Y-86113500D03*
D14*
X55950000Y-84463500D03*
D15*
X57300000Y-86113500D03*
D14*
X56850000Y-84463500D03*
D15*
X58200000Y-86113500D03*
D14*
X57750000Y-84463500D03*
D15*
X59100000Y-86113500D03*
D14*
X58650000Y-84463500D03*
D15*
X60000000Y-86113500D03*
D14*
X59550000Y-84463500D03*
D15*
X60900000Y-86113500D03*
D14*
X60450000Y-84463500D03*
D15*
X61800000Y-86113500D03*
D14*
X61350000Y-84463500D03*
D15*
X62700000Y-86113500D03*
D14*
X62250000Y-84463500D03*
D15*
X63600000Y-86113500D03*
D14*
X63150000Y-84463500D03*
D13*
X64725000Y-86263500D03*
D14*
X64050000Y-84463500D03*
X64950000Y-84463500D03*
D11*
X52300000Y-90577000D03*
X52300000Y-93117000D03*
X52300000Y-95657000D03*
X52300000Y-98197000D03*
X52300000Y-100737000D03*
X54840000Y-90577000D03*
X54840000Y-93117000D03*
X54840000Y-95657000D03*
X54840000Y-98197000D03*
X54840000Y-100737000D03*
X62460000Y-90577000D03*
X62460000Y-93117000D03*
X62460000Y-95657000D03*
X62460000Y-98197000D03*
X62460000Y-100737000D03*
X65000000Y-90577000D03*
X65000000Y-93117000D03*
X65000000Y-95657000D03*
X65000000Y-98197000D03*
X65000000Y-100737000D03*
X57380000Y-70577000D03*
X57380000Y-73117000D03*
X57380000Y-75657000D03*
X57380000Y-78197000D03*
X57380000Y-80737000D03*
X59920000Y-70577000D03*
X59920000Y-73117000D03*
X59920000Y-75657000D03*
X59920000Y-78197000D03*
X59920000Y-80737000D03*
D12*
X50400000Y-65288500D03*
X66900000Y-65288500D03*
D13*
X52575000Y-66263500D03*
D14*
X52350000Y-64463500D03*
D15*
X53700000Y-66113500D03*
D14*
X53250000Y-64463500D03*
D15*
X54600000Y-66113500D03*
D14*
X54150000Y-64463500D03*
D15*
X55500000Y-66113500D03*
D14*
X55050000Y-64463500D03*
D15*
X56400000Y-66113500D03*
D14*
X55950000Y-64463500D03*
D15*
X57300000Y-66113500D03*
D14*
X56850000Y-64463500D03*
D15*
X58200000Y-66113500D03*
D14*
X57750000Y-64463500D03*
D15*
X59100000Y-66113500D03*
D14*
X58650000Y-64463500D03*
D15*
X60000000Y-66113500D03*
D14*
X59550000Y-64463500D03*
D15*
X60900000Y-66113500D03*
D14*
X60450000Y-64463500D03*
D15*
X61800000Y-66113500D03*
D14*
X61350000Y-64463500D03*
D15*
X62700000Y-66113500D03*
D14*
X62250000Y-64463500D03*
D15*
X63600000Y-66113500D03*
D14*
X63150000Y-64463500D03*
D13*
X64725000Y-66263500D03*
D14*
X64050000Y-64463500D03*
X64950000Y-64463500D03*
D11*
X52300000Y-70577000D03*
X52300000Y-73117000D03*
X52300000Y-75657000D03*
X52300000Y-78197000D03*
X52300000Y-80737000D03*
X54840000Y-70577000D03*
X54840000Y-73117000D03*
X54840000Y-75657000D03*
X54840000Y-78197000D03*
X54840000Y-80737000D03*
X62460000Y-70577000D03*
X62460000Y-73117000D03*
X62460000Y-75657000D03*
X62460000Y-78197000D03*
X62460000Y-80737000D03*
X65000000Y-70577000D03*
X65000000Y-73117000D03*
X65000000Y-75657000D03*
X65000000Y-78197000D03*
X65000000Y-80737000D03*
X57380000Y-50577000D03*
X57380000Y-53117000D03*
X57380000Y-55657000D03*
X57380000Y-58197000D03*
X57380000Y-60737000D03*
X59920000Y-50577000D03*
X59920000Y-53117000D03*
X59920000Y-55657000D03*
X59920000Y-58197000D03*
X59920000Y-60737000D03*
D12*
X50400000Y-45288500D03*
X66900000Y-45288500D03*
D13*
X52575000Y-46263500D03*
D14*
X52350000Y-44463500D03*
D15*
X53700000Y-46113500D03*
D14*
X53250000Y-44463500D03*
D15*
X54600000Y-46113500D03*
D14*
X54150000Y-44463500D03*
D15*
X55500000Y-46113500D03*
D14*
X55050000Y-44463500D03*
D15*
X56400000Y-46113500D03*
D14*
X55950000Y-44463500D03*
D15*
X57300000Y-46113500D03*
D14*
X56850000Y-44463500D03*
D15*
X58200000Y-46113500D03*
D14*
X57750000Y-44463500D03*
D15*
X59100000Y-46113500D03*
D14*
X58650000Y-44463500D03*
D15*
X60000000Y-46113500D03*
D14*
X59550000Y-44463500D03*
D15*
X60900000Y-46113500D03*
D14*
X60450000Y-44463500D03*
D15*
X61800000Y-46113500D03*
D14*
X61350000Y-44463500D03*
D15*
X62700000Y-46113500D03*
D14*
X62250000Y-44463500D03*
D15*
X63600000Y-46113500D03*
D14*
X63150000Y-44463500D03*
D13*
X64725000Y-46263500D03*
D14*
X64050000Y-44463500D03*
X64950000Y-44463500D03*
D11*
X52300000Y-50577000D03*
X52300000Y-53117000D03*
X52300000Y-55657000D03*
X52300000Y-58197000D03*
X52300000Y-60737000D03*
X54840000Y-50577000D03*
X54840000Y-53117000D03*
X54840000Y-55657000D03*
X54840000Y-58197000D03*
X54840000Y-60737000D03*
X62460000Y-50577000D03*
X62460000Y-53117000D03*
X62460000Y-55657000D03*
X62460000Y-58197000D03*
X62460000Y-60737000D03*
X65000000Y-50577000D03*
X65000000Y-53117000D03*
X65000000Y-55657000D03*
X65000000Y-58197000D03*
X65000000Y-60737000D03*
X37380000Y-110577000D03*
X37380000Y-113117000D03*
X37380000Y-115657000D03*
X37380000Y-118197000D03*
X37380000Y-120737000D03*
X39920000Y-110577000D03*
X39920000Y-113117000D03*
X39920000Y-115657000D03*
X39920000Y-118197000D03*
X39920000Y-120737000D03*
D12*
X30400000Y-105288500D03*
X46900000Y-105288500D03*
D13*
X32575000Y-106263500D03*
D14*
X32350000Y-104463500D03*
D15*
X33700000Y-106113500D03*
D14*
X33250000Y-104463500D03*
D15*
X34600000Y-106113500D03*
D14*
X34150000Y-104463500D03*
D15*
X35500000Y-106113500D03*
D14*
X35050000Y-104463500D03*
D15*
X36400000Y-106113500D03*
D14*
X35950000Y-104463500D03*
D15*
X37300000Y-106113500D03*
D14*
X36850000Y-104463500D03*
D15*
X38200000Y-106113500D03*
D14*
X37750000Y-104463500D03*
D15*
X39100000Y-106113500D03*
D14*
X38650000Y-104463500D03*
D15*
X40000000Y-106113500D03*
D14*
X39550000Y-104463500D03*
D15*
X40900000Y-106113500D03*
D14*
X40450000Y-104463500D03*
D15*
X41800000Y-106113500D03*
D14*
X41350000Y-104463500D03*
D15*
X42700000Y-106113500D03*
D14*
X42250000Y-104463500D03*
D15*
X43600000Y-106113500D03*
D14*
X43150000Y-104463500D03*
D13*
X44725000Y-106263500D03*
D14*
X44050000Y-104463500D03*
X44950000Y-104463500D03*
D11*
X32300000Y-110577000D03*
X32300000Y-113117000D03*
X32300000Y-115657000D03*
X32300000Y-118197000D03*
X32300000Y-120737000D03*
X34840000Y-110577000D03*
X34840000Y-113117000D03*
X34840000Y-115657000D03*
X34840000Y-118197000D03*
X34840000Y-120737000D03*
X42460000Y-110577000D03*
X42460000Y-113117000D03*
X42460000Y-115657000D03*
X42460000Y-118197000D03*
X42460000Y-120737000D03*
X45000000Y-110577000D03*
X45000000Y-113117000D03*
X45000000Y-115657000D03*
X45000000Y-118197000D03*
X45000000Y-120737000D03*
X37380000Y-90577000D03*
X37380000Y-93117000D03*
X37380000Y-95657000D03*
X37380000Y-98197000D03*
X37380000Y-100737000D03*
X39920000Y-90577000D03*
X39920000Y-93117000D03*
X39920000Y-95657000D03*
X39920000Y-98197000D03*
X39920000Y-100737000D03*
D12*
X30400000Y-85288500D03*
X46900000Y-85288500D03*
D13*
X32575000Y-86263500D03*
D14*
X32350000Y-84463500D03*
D15*
X33700000Y-86113500D03*
D14*
X33250000Y-84463500D03*
D15*
X34600000Y-86113500D03*
D14*
X34150000Y-84463500D03*
D15*
X35500000Y-86113500D03*
D14*
X35050000Y-84463500D03*
D15*
X36400000Y-86113500D03*
D14*
X35950000Y-84463500D03*
D15*
X37300000Y-86113500D03*
D14*
X36850000Y-84463500D03*
D15*
X38200000Y-86113500D03*
D14*
X37750000Y-84463500D03*
D15*
X39100000Y-86113500D03*
D14*
X38650000Y-84463500D03*
D15*
X40000000Y-86113500D03*
D14*
X39550000Y-84463500D03*
D15*
X40900000Y-86113500D03*
D14*
X40450000Y-84463500D03*
D15*
X41800000Y-86113500D03*
D14*
X41350000Y-84463500D03*
D15*
X42700000Y-86113500D03*
D14*
X42250000Y-84463500D03*
D15*
X43600000Y-86113500D03*
D14*
X43150000Y-84463500D03*
D13*
X44725000Y-86263500D03*
D14*
X44050000Y-84463500D03*
X44950000Y-84463500D03*
D11*
X32300000Y-90577000D03*
X32300000Y-93117000D03*
X32300000Y-95657000D03*
X32300000Y-98197000D03*
X32300000Y-100737000D03*
X34840000Y-90577000D03*
X34840000Y-93117000D03*
X34840000Y-95657000D03*
X34840000Y-98197000D03*
X34840000Y-100737000D03*
X42460000Y-90577000D03*
X42460000Y-93117000D03*
X42460000Y-95657000D03*
X42460000Y-98197000D03*
X42460000Y-100737000D03*
X45000000Y-90577000D03*
X45000000Y-93117000D03*
X45000000Y-95657000D03*
X45000000Y-98197000D03*
X45000000Y-100737000D03*
X37380000Y-70577000D03*
X37380000Y-73117000D03*
X37380000Y-75657000D03*
X37380000Y-78197000D03*
X37380000Y-80737000D03*
X39920000Y-70577000D03*
X39920000Y-73117000D03*
X39920000Y-75657000D03*
X39920000Y-78197000D03*
X39920000Y-80737000D03*
D12*
X30400000Y-65288500D03*
X46900000Y-65288500D03*
D13*
X32575000Y-66263500D03*
D14*
X32350000Y-64463500D03*
D15*
X33700000Y-66113500D03*
D14*
X33250000Y-64463500D03*
D15*
X34600000Y-66113500D03*
D14*
X34150000Y-64463500D03*
D15*
X35500000Y-66113500D03*
D14*
X35050000Y-64463500D03*
D15*
X36400000Y-66113500D03*
D14*
X35950000Y-64463500D03*
D15*
X37300000Y-66113500D03*
D14*
X36850000Y-64463500D03*
D15*
X38200000Y-66113500D03*
D14*
X37750000Y-64463500D03*
D15*
X39100000Y-66113500D03*
D14*
X38650000Y-64463500D03*
D15*
X40000000Y-66113500D03*
D14*
X39550000Y-64463500D03*
D15*
X40900000Y-66113500D03*
D14*
X40450000Y-64463500D03*
D15*
X41800000Y-66113500D03*
D14*
X41350000Y-64463500D03*
D15*
X42700000Y-66113500D03*
D14*
X42250000Y-64463500D03*
D15*
X43600000Y-66113500D03*
D14*
X43150000Y-64463500D03*
D13*
X44725000Y-66263500D03*
D14*
X44050000Y-64463500D03*
X44950000Y-64463500D03*
D11*
X32300000Y-70577000D03*
X32300000Y-73117000D03*
X32300000Y-75657000D03*
X32300000Y-78197000D03*
X32300000Y-80737000D03*
X34840000Y-70577000D03*
X34840000Y-73117000D03*
X34840000Y-75657000D03*
X34840000Y-78197000D03*
X34840000Y-80737000D03*
X42460000Y-70577000D03*
X42460000Y-73117000D03*
X42460000Y-75657000D03*
X42460000Y-78197000D03*
X42460000Y-80737000D03*
X45000000Y-70577000D03*
X45000000Y-73117000D03*
X45000000Y-75657000D03*
X45000000Y-78197000D03*
X45000000Y-80737000D03*
X42460000Y-50577000D03*
X42460000Y-53117000D03*
X42460000Y-55657000D03*
X42460000Y-58197000D03*
X42460000Y-60737000D03*
X45000000Y-50577000D03*
X45000000Y-53117000D03*
X45000000Y-55657000D03*
X45000000Y-58197000D03*
X45000000Y-60737000D03*
D12*
X30400000Y-45288500D03*
X46900000Y-45288500D03*
D13*
X32575000Y-46263500D03*
D14*
X32350000Y-44463500D03*
D15*
X33700000Y-46113500D03*
D14*
X33250000Y-44463500D03*
D15*
X34600000Y-46113500D03*
D14*
X34150000Y-44463500D03*
D15*
X35500000Y-46113500D03*
D14*
X35050000Y-44463500D03*
D15*
X36400000Y-46113500D03*
D14*
X35950000Y-44463500D03*
D15*
X37300000Y-46113500D03*
D14*
X36850000Y-44463500D03*
D15*
X38200000Y-46113500D03*
D14*
X37750000Y-44463500D03*
D15*
X39100000Y-46113500D03*
D14*
X38650000Y-44463500D03*
D15*
X40000000Y-46113500D03*
D14*
X39550000Y-44463500D03*
D15*
X40900000Y-46113500D03*
D14*
X40450000Y-44463500D03*
D15*
X41800000Y-46113500D03*
D14*
X41350000Y-44463500D03*
D15*
X42700000Y-46113500D03*
D14*
X42250000Y-44463500D03*
D15*
X43600000Y-46113500D03*
D14*
X43150000Y-44463500D03*
D13*
X44725000Y-46263500D03*
D14*
X44050000Y-44463500D03*
X44950000Y-44463500D03*
D11*
X37380000Y-50577000D03*
X37380000Y-53117000D03*
X37380000Y-55657000D03*
X37380000Y-58197000D03*
X37380000Y-60737000D03*
X39920000Y-50577000D03*
X39920000Y-53117000D03*
X39920000Y-55657000D03*
X39920000Y-58197000D03*
X39920000Y-60737000D03*
X32300000Y-50577000D03*
X32300000Y-53117000D03*
X32300000Y-55657000D03*
X32300000Y-58197000D03*
X32300000Y-60737000D03*
X34840000Y-50577000D03*
X34840000Y-53117000D03*
X34840000Y-55657000D03*
X34840000Y-58197000D03*
X34840000Y-60737000D03*
D16*
X33650000Y-127788500D03*
X123650000Y-127788500D03*
X123650000Y-37788500D03*
X33650000Y-37788500D03*
D17*
X43650000Y-127788500D03*
X118650000Y-37788500D03*
D18*
X38650000Y-37788500D03*
D17*
X113650000Y-127788500D03*
X38650000Y-37788500D03*
M02*
