G04 #@! TF.GenerationSoftware,KiCad,Pcbnew,10.0.3*
G04 #@! TF.CreationDate,2026-05-27T00:28:23+09:00*
G04 #@! TF.ProjectId,ax02-29-pin_panelized,61783032-2d32-4392-9d70-696e5f70616e,v1.0*
G04 #@! TF.SameCoordinates,Original*
G04 #@! TF.FileFunction,Legend,Bot*
G04 #@! TF.FilePolarity,Positive*
%FSLAX46Y46*%
G04 Gerber Fmt 4.6, Leading zero omitted, Abs format (unit mm)*
G04 Created by KiCad (PCBNEW 10.0.3) date 2026-05-27 00:28:23*
%MOMM*%
%LPD*%
G01*
G04 APERTURE LIST*
G04 Aperture macros list*
%AMRoundRect*
0 Rectangle with rounded corners*
0 $1 Rounding radius*
0 $2 $3 $4 $5 $6 $7 $8 $9 X,Y pos of 4 corners*
0 Add a 4 corners polygon primitive as box body*
4,1,4,$2,$3,$4,$5,$6,$7,$8,$9,$2,$3,0*
0 Add four circle primitives for the rounded corners*
1,1,$1+$1,$2,$3*
1,1,$1+$1,$4,$5*
1,1,$1+$1,$6,$7*
1,1,$1+$1,$8,$9*
0 Add four rect primitives between the rounded corners*
20,1,$1+$1,$2,$3,$4,$5,0*
20,1,$1+$1,$4,$5,$6,$7,0*
20,1,$1+$1,$6,$7,$8,$9,0*
20,1,$1+$1,$8,$9,$2,$3,0*%
%AMFreePoly0*
4,1,43,0.052099,0.920729,0.127746,0.900460,0.139805,0.895465,0.207628,0.856307,0.217983,0.848361,0.273361,0.792983,0.281307,0.782628,0.320465,0.714805,0.325460,0.702746,0.345729,0.627099,0.347433,0.614158,0.347433,0.535842,0.345729,0.522901,0.325460,0.447254,0.320465,0.435195,0.281307,0.367372,0.275000,0.359152,0.275000,-0.575000,0.260355,-0.610355,0.225000,-0.625000,
-0.225000,-0.625000,-0.260355,-0.610355,-0.275000,-0.575000,-0.275000,0.359152,-0.281307,0.367372,-0.320465,0.435195,-0.325460,0.447254,-0.345729,0.522901,-0.347433,0.535842,-0.347433,0.614158,-0.345729,0.627099,-0.325460,0.702746,-0.320465,0.714805,-0.281307,0.782628,-0.273361,0.792983,-0.217983,0.848361,-0.207628,0.856307,-0.139805,0.895465,-0.127746,0.900460,-0.052099,0.920729,
-0.039158,0.922433,0.039158,0.922433,0.052099,0.920729,0.052099,0.920729,$1*%
G04 Aperture macros list end*
%ADD10C,0.150000*%
%ADD11C,0.300000*%
%ADD12C,2.590000*%
%ADD13RoundRect,0.050000X-0.450000X-0.725000X0.450000X-0.725000X0.450000X0.725000X-0.450000X0.725000X0*%
%ADD14FreePoly0,0.000000*%
%ADD15FreePoly0,180.000000*%
%ADD16C,1.800000*%
%ADD17C,2.100000*%
%ADD18C,2.000000*%
%ADD19C,2.250000*%
G04 APERTURE END LIST*
D10*
X54455104Y-109395095D02*
X54455104Y-109871285D01*
X54740819Y-109299857D02*
X53740819Y-109633190D01*
X53740819Y-109633190D02*
X54740819Y-109966523D01*
X53740819Y-110204619D02*
X54740819Y-110871285D01*
X53740819Y-110871285D02*
X54740819Y-110204619D01*
X53740819Y-111442714D02*
X53740819Y-111537952D01*
X53740819Y-111537952D02*
X53788438Y-111633190D01*
X53788438Y-111633190D02*
X53836057Y-111680809D01*
X53836057Y-111680809D02*
X53931295Y-111728428D01*
X53931295Y-111728428D02*
X54121771Y-111776047D01*
X54121771Y-111776047D02*
X54359866Y-111776047D01*
X54359866Y-111776047D02*
X54550342Y-111728428D01*
X54550342Y-111728428D02*
X54645580Y-111680809D01*
X54645580Y-111680809D02*
X54693200Y-111633190D01*
X54693200Y-111633190D02*
X54740819Y-111537952D01*
X54740819Y-111537952D02*
X54740819Y-111442714D01*
X54740819Y-111442714D02*
X54693200Y-111347476D01*
X54693200Y-111347476D02*
X54645580Y-111299857D01*
X54645580Y-111299857D02*
X54550342Y-111252238D01*
X54550342Y-111252238D02*
X54359866Y-111204619D01*
X54359866Y-111204619D02*
X54121771Y-111204619D01*
X54121771Y-111204619D02*
X53931295Y-111252238D01*
X53931295Y-111252238D02*
X53836057Y-111299857D01*
X53836057Y-111299857D02*
X53788438Y-111347476D01*
X53788438Y-111347476D02*
X53740819Y-111442714D01*
X53836057Y-112157000D02*
X53788438Y-112204619D01*
X53788438Y-112204619D02*
X53740819Y-112299857D01*
X53740819Y-112299857D02*
X53740819Y-112537952D01*
X53740819Y-112537952D02*
X53788438Y-112633190D01*
X53788438Y-112633190D02*
X53836057Y-112680809D01*
X53836057Y-112680809D02*
X53931295Y-112728428D01*
X53931295Y-112728428D02*
X54026533Y-112728428D01*
X54026533Y-112728428D02*
X54169390Y-112680809D01*
X54169390Y-112680809D02*
X54740819Y-112109381D01*
X54740819Y-112109381D02*
X54740819Y-112728428D01*
X54217009Y-113490333D02*
X54264628Y-113633190D01*
X54264628Y-113633190D02*
X54312247Y-113680809D01*
X54312247Y-113680809D02*
X54407485Y-113728428D01*
X54407485Y-113728428D02*
X54550342Y-113728428D01*
X54550342Y-113728428D02*
X54645580Y-113680809D01*
X54645580Y-113680809D02*
X54693200Y-113633190D01*
X54693200Y-113633190D02*
X54740819Y-113537952D01*
X54740819Y-113537952D02*
X54740819Y-113157000D01*
X54740819Y-113157000D02*
X53740819Y-113157000D01*
X53740819Y-113157000D02*
X53740819Y-113490333D01*
X53740819Y-113490333D02*
X53788438Y-113585571D01*
X53788438Y-113585571D02*
X53836057Y-113633190D01*
X53836057Y-113633190D02*
X53931295Y-113680809D01*
X53931295Y-113680809D02*
X54026533Y-113680809D01*
X54026533Y-113680809D02*
X54121771Y-113633190D01*
X54121771Y-113633190D02*
X54169390Y-113585571D01*
X54169390Y-113585571D02*
X54217009Y-113490333D01*
X54217009Y-113490333D02*
X54217009Y-113157000D01*
X53836057Y-114871286D02*
X53788438Y-114918905D01*
X53788438Y-114918905D02*
X53740819Y-115014143D01*
X53740819Y-115014143D02*
X53740819Y-115252238D01*
X53740819Y-115252238D02*
X53788438Y-115347476D01*
X53788438Y-115347476D02*
X53836057Y-115395095D01*
X53836057Y-115395095D02*
X53931295Y-115442714D01*
X53931295Y-115442714D02*
X54026533Y-115442714D01*
X54026533Y-115442714D02*
X54169390Y-115395095D01*
X54169390Y-115395095D02*
X54740819Y-114823667D01*
X54740819Y-114823667D02*
X54740819Y-115442714D01*
X54740819Y-115918905D02*
X54740819Y-116109381D01*
X54740819Y-116109381D02*
X54693200Y-116204619D01*
X54693200Y-116204619D02*
X54645580Y-116252238D01*
X54645580Y-116252238D02*
X54502723Y-116347476D01*
X54502723Y-116347476D02*
X54312247Y-116395095D01*
X54312247Y-116395095D02*
X53931295Y-116395095D01*
X53931295Y-116395095D02*
X53836057Y-116347476D01*
X53836057Y-116347476D02*
X53788438Y-116299857D01*
X53788438Y-116299857D02*
X53740819Y-116204619D01*
X53740819Y-116204619D02*
X53740819Y-116014143D01*
X53740819Y-116014143D02*
X53788438Y-115918905D01*
X53788438Y-115918905D02*
X53836057Y-115871286D01*
X53836057Y-115871286D02*
X53931295Y-115823667D01*
X53931295Y-115823667D02*
X54169390Y-115823667D01*
X54169390Y-115823667D02*
X54264628Y-115871286D01*
X54264628Y-115871286D02*
X54312247Y-115918905D01*
X54312247Y-115918905D02*
X54359866Y-116014143D01*
X54359866Y-116014143D02*
X54359866Y-116204619D01*
X54359866Y-116204619D02*
X54312247Y-116299857D01*
X54312247Y-116299857D02*
X54264628Y-116347476D01*
X54264628Y-116347476D02*
X54169390Y-116395095D01*
X54359866Y-116823667D02*
X54359866Y-117585572D01*
X54074152Y-118061762D02*
X55074152Y-118061762D01*
X54121771Y-118061762D02*
X54074152Y-118157000D01*
X54074152Y-118157000D02*
X54074152Y-118347476D01*
X54074152Y-118347476D02*
X54121771Y-118442714D01*
X54121771Y-118442714D02*
X54169390Y-118490333D01*
X54169390Y-118490333D02*
X54264628Y-118537952D01*
X54264628Y-118537952D02*
X54550342Y-118537952D01*
X54550342Y-118537952D02*
X54645580Y-118490333D01*
X54645580Y-118490333D02*
X54693200Y-118442714D01*
X54693200Y-118442714D02*
X54740819Y-118347476D01*
X54740819Y-118347476D02*
X54740819Y-118157000D01*
X54740819Y-118157000D02*
X54693200Y-118061762D01*
X54740819Y-118966524D02*
X54074152Y-118966524D01*
X53740819Y-118966524D02*
X53788438Y-118918905D01*
X53788438Y-118918905D02*
X53836057Y-118966524D01*
X53836057Y-118966524D02*
X53788438Y-119014143D01*
X53788438Y-119014143D02*
X53740819Y-118966524D01*
X53740819Y-118966524D02*
X53836057Y-118966524D01*
X54074152Y-119442714D02*
X54740819Y-119442714D01*
X54169390Y-119442714D02*
X54121771Y-119490333D01*
X54121771Y-119490333D02*
X54074152Y-119585571D01*
X54074152Y-119585571D02*
X54074152Y-119728428D01*
X54074152Y-119728428D02*
X54121771Y-119823666D01*
X54121771Y-119823666D02*
X54217009Y-119871285D01*
X54217009Y-119871285D02*
X54740819Y-119871285D01*
X94730000Y-110847000D02*
X97270000Y-110847000D01*
X97270000Y-113302500D01*
X94730000Y-113302500D01*
X94730000Y-110847000D01*
G36*
X94730000Y-110847000D02*
G01*
X97270000Y-110847000D01*
X97270000Y-113302500D01*
X94730000Y-113302500D01*
X94730000Y-110847000D01*
G37*
X116730000Y-110847000D02*
X119270000Y-110847000D01*
X119270000Y-113302500D01*
X116730000Y-113302500D01*
X116730000Y-110847000D01*
G36*
X116730000Y-110847000D02*
G01*
X119270000Y-110847000D01*
X119270000Y-113302500D01*
X116730000Y-113302500D01*
X116730000Y-110847000D01*
G37*
X59595819Y-111371142D02*
X59595819Y-110894952D01*
X59595819Y-110894952D02*
X58595819Y-110894952D01*
X59548200Y-112085428D02*
X59595819Y-111990190D01*
X59595819Y-111990190D02*
X59595819Y-111799714D01*
X59595819Y-111799714D02*
X59548200Y-111704476D01*
X59548200Y-111704476D02*
X59452961Y-111656857D01*
X59452961Y-111656857D02*
X59072009Y-111656857D01*
X59072009Y-111656857D02*
X58976771Y-111704476D01*
X58976771Y-111704476D02*
X58929152Y-111799714D01*
X58929152Y-111799714D02*
X58929152Y-111990190D01*
X58929152Y-111990190D02*
X58976771Y-112085428D01*
X58976771Y-112085428D02*
X59072009Y-112133047D01*
X59072009Y-112133047D02*
X59167247Y-112133047D01*
X59167247Y-112133047D02*
X59262485Y-111656857D01*
X59595819Y-112990190D02*
X59072009Y-112990190D01*
X59072009Y-112990190D02*
X58976771Y-112942571D01*
X58976771Y-112942571D02*
X58929152Y-112847333D01*
X58929152Y-112847333D02*
X58929152Y-112656857D01*
X58929152Y-112656857D02*
X58976771Y-112561619D01*
X59548200Y-112990190D02*
X59595819Y-112894952D01*
X59595819Y-112894952D02*
X59595819Y-112656857D01*
X59595819Y-112656857D02*
X59548200Y-112561619D01*
X59548200Y-112561619D02*
X59452961Y-112514000D01*
X59452961Y-112514000D02*
X59357723Y-112514000D01*
X59357723Y-112514000D02*
X59262485Y-112561619D01*
X59262485Y-112561619D02*
X59214866Y-112656857D01*
X59214866Y-112656857D02*
X59214866Y-112894952D01*
X59214866Y-112894952D02*
X59167247Y-112990190D01*
X58929152Y-113323524D02*
X58929152Y-113704476D01*
X59595819Y-113466381D02*
X58738676Y-113466381D01*
X58738676Y-113466381D02*
X58643438Y-113514000D01*
X58643438Y-113514000D02*
X58595819Y-113609238D01*
X58595819Y-113609238D02*
X58595819Y-113704476D01*
X59595819Y-114180667D02*
X59548200Y-114085429D01*
X59548200Y-114085429D02*
X59500580Y-114037810D01*
X59500580Y-114037810D02*
X59405342Y-113990191D01*
X59405342Y-113990191D02*
X59119628Y-113990191D01*
X59119628Y-113990191D02*
X59024390Y-114037810D01*
X59024390Y-114037810D02*
X58976771Y-114085429D01*
X58976771Y-114085429D02*
X58929152Y-114180667D01*
X58929152Y-114180667D02*
X58929152Y-114323524D01*
X58929152Y-114323524D02*
X58976771Y-114418762D01*
X58976771Y-114418762D02*
X59024390Y-114466381D01*
X59024390Y-114466381D02*
X59119628Y-114514000D01*
X59119628Y-114514000D02*
X59405342Y-114514000D01*
X59405342Y-114514000D02*
X59500580Y-114466381D01*
X59500580Y-114466381D02*
X59548200Y-114418762D01*
X59548200Y-114418762D02*
X59595819Y-114323524D01*
X59595819Y-114323524D02*
X59595819Y-114180667D01*
X58929152Y-114942572D02*
X59595819Y-114942572D01*
X59024390Y-114942572D02*
X58976771Y-114990191D01*
X58976771Y-114990191D02*
X58929152Y-115085429D01*
X58929152Y-115085429D02*
X58929152Y-115228286D01*
X58929152Y-115228286D02*
X58976771Y-115323524D01*
X58976771Y-115323524D02*
X59072009Y-115371143D01*
X59072009Y-115371143D02*
X59595819Y-115371143D01*
X58929152Y-115752096D02*
X59595819Y-115990191D01*
X58929152Y-116228286D02*
X59595819Y-115990191D01*
X59595819Y-115990191D02*
X59833914Y-115894953D01*
X59833914Y-115894953D02*
X59881533Y-115847334D01*
X59881533Y-115847334D02*
X59929152Y-115752096D01*
X72730000Y-110847000D02*
X75270000Y-110847000D01*
X75270000Y-113302500D01*
X72730000Y-113302500D01*
X72730000Y-110847000D01*
G36*
X72730000Y-110847000D02*
G01*
X75270000Y-110847000D01*
X75270000Y-113302500D01*
X72730000Y-113302500D01*
X72730000Y-110847000D01*
G37*
D11*
X40444323Y-109577000D02*
G75*
G02*
X38155677Y-109577000I-1144323J0D01*
G01*
X38155677Y-109577000D02*
G75*
G02*
X40444323Y-109577000I1144323J0D01*
G01*
D10*
X37595819Y-111371142D02*
X37595819Y-110894952D01*
X37595819Y-110894952D02*
X36595819Y-110894952D01*
X37548200Y-112085428D02*
X37595819Y-111990190D01*
X37595819Y-111990190D02*
X37595819Y-111799714D01*
X37595819Y-111799714D02*
X37548200Y-111704476D01*
X37548200Y-111704476D02*
X37452961Y-111656857D01*
X37452961Y-111656857D02*
X37072009Y-111656857D01*
X37072009Y-111656857D02*
X36976771Y-111704476D01*
X36976771Y-111704476D02*
X36929152Y-111799714D01*
X36929152Y-111799714D02*
X36929152Y-111990190D01*
X36929152Y-111990190D02*
X36976771Y-112085428D01*
X36976771Y-112085428D02*
X37072009Y-112133047D01*
X37072009Y-112133047D02*
X37167247Y-112133047D01*
X37167247Y-112133047D02*
X37262485Y-111656857D01*
X37595819Y-112990190D02*
X37072009Y-112990190D01*
X37072009Y-112990190D02*
X36976771Y-112942571D01*
X36976771Y-112942571D02*
X36929152Y-112847333D01*
X36929152Y-112847333D02*
X36929152Y-112656857D01*
X36929152Y-112656857D02*
X36976771Y-112561619D01*
X37548200Y-112990190D02*
X37595819Y-112894952D01*
X37595819Y-112894952D02*
X37595819Y-112656857D01*
X37595819Y-112656857D02*
X37548200Y-112561619D01*
X37548200Y-112561619D02*
X37452961Y-112514000D01*
X37452961Y-112514000D02*
X37357723Y-112514000D01*
X37357723Y-112514000D02*
X37262485Y-112561619D01*
X37262485Y-112561619D02*
X37214866Y-112656857D01*
X37214866Y-112656857D02*
X37214866Y-112894952D01*
X37214866Y-112894952D02*
X37167247Y-112990190D01*
X36929152Y-113323524D02*
X36929152Y-113704476D01*
X37595819Y-113466381D02*
X36738676Y-113466381D01*
X36738676Y-113466381D02*
X36643438Y-113514000D01*
X36643438Y-113514000D02*
X36595819Y-113609238D01*
X36595819Y-113609238D02*
X36595819Y-113704476D01*
X37595819Y-114180667D02*
X37548200Y-114085429D01*
X37548200Y-114085429D02*
X37500580Y-114037810D01*
X37500580Y-114037810D02*
X37405342Y-113990191D01*
X37405342Y-113990191D02*
X37119628Y-113990191D01*
X37119628Y-113990191D02*
X37024390Y-114037810D01*
X37024390Y-114037810D02*
X36976771Y-114085429D01*
X36976771Y-114085429D02*
X36929152Y-114180667D01*
X36929152Y-114180667D02*
X36929152Y-114323524D01*
X36929152Y-114323524D02*
X36976771Y-114418762D01*
X36976771Y-114418762D02*
X37024390Y-114466381D01*
X37024390Y-114466381D02*
X37119628Y-114514000D01*
X37119628Y-114514000D02*
X37405342Y-114514000D01*
X37405342Y-114514000D02*
X37500580Y-114466381D01*
X37500580Y-114466381D02*
X37548200Y-114418762D01*
X37548200Y-114418762D02*
X37595819Y-114323524D01*
X37595819Y-114323524D02*
X37595819Y-114180667D01*
X36929152Y-114942572D02*
X37595819Y-114942572D01*
X37024390Y-114942572D02*
X36976771Y-114990191D01*
X36976771Y-114990191D02*
X36929152Y-115085429D01*
X36929152Y-115085429D02*
X36929152Y-115228286D01*
X36929152Y-115228286D02*
X36976771Y-115323524D01*
X36976771Y-115323524D02*
X37072009Y-115371143D01*
X37072009Y-115371143D02*
X37595819Y-115371143D01*
X36929152Y-115752096D02*
X37595819Y-115990191D01*
X36929152Y-116228286D02*
X37595819Y-115990191D01*
X37595819Y-115990191D02*
X37833914Y-115894953D01*
X37833914Y-115894953D02*
X37881533Y-115847334D01*
X37881533Y-115847334D02*
X37929152Y-115752096D01*
X103595819Y-111371142D02*
X103595819Y-110894952D01*
X103595819Y-110894952D02*
X102595819Y-110894952D01*
X103548200Y-112085428D02*
X103595819Y-111990190D01*
X103595819Y-111990190D02*
X103595819Y-111799714D01*
X103595819Y-111799714D02*
X103548200Y-111704476D01*
X103548200Y-111704476D02*
X103452961Y-111656857D01*
X103452961Y-111656857D02*
X103072009Y-111656857D01*
X103072009Y-111656857D02*
X102976771Y-111704476D01*
X102976771Y-111704476D02*
X102929152Y-111799714D01*
X102929152Y-111799714D02*
X102929152Y-111990190D01*
X102929152Y-111990190D02*
X102976771Y-112085428D01*
X102976771Y-112085428D02*
X103072009Y-112133047D01*
X103072009Y-112133047D02*
X103167247Y-112133047D01*
X103167247Y-112133047D02*
X103262485Y-111656857D01*
X103595819Y-112990190D02*
X103072009Y-112990190D01*
X103072009Y-112990190D02*
X102976771Y-112942571D01*
X102976771Y-112942571D02*
X102929152Y-112847333D01*
X102929152Y-112847333D02*
X102929152Y-112656857D01*
X102929152Y-112656857D02*
X102976771Y-112561619D01*
X103548200Y-112990190D02*
X103595819Y-112894952D01*
X103595819Y-112894952D02*
X103595819Y-112656857D01*
X103595819Y-112656857D02*
X103548200Y-112561619D01*
X103548200Y-112561619D02*
X103452961Y-112514000D01*
X103452961Y-112514000D02*
X103357723Y-112514000D01*
X103357723Y-112514000D02*
X103262485Y-112561619D01*
X103262485Y-112561619D02*
X103214866Y-112656857D01*
X103214866Y-112656857D02*
X103214866Y-112894952D01*
X103214866Y-112894952D02*
X103167247Y-112990190D01*
X102929152Y-113323524D02*
X102929152Y-113704476D01*
X103595819Y-113466381D02*
X102738676Y-113466381D01*
X102738676Y-113466381D02*
X102643438Y-113514000D01*
X102643438Y-113514000D02*
X102595819Y-113609238D01*
X102595819Y-113609238D02*
X102595819Y-113704476D01*
X103595819Y-114180667D02*
X103548200Y-114085429D01*
X103548200Y-114085429D02*
X103500580Y-114037810D01*
X103500580Y-114037810D02*
X103405342Y-113990191D01*
X103405342Y-113990191D02*
X103119628Y-113990191D01*
X103119628Y-113990191D02*
X103024390Y-114037810D01*
X103024390Y-114037810D02*
X102976771Y-114085429D01*
X102976771Y-114085429D02*
X102929152Y-114180667D01*
X102929152Y-114180667D02*
X102929152Y-114323524D01*
X102929152Y-114323524D02*
X102976771Y-114418762D01*
X102976771Y-114418762D02*
X103024390Y-114466381D01*
X103024390Y-114466381D02*
X103119628Y-114514000D01*
X103119628Y-114514000D02*
X103405342Y-114514000D01*
X103405342Y-114514000D02*
X103500580Y-114466381D01*
X103500580Y-114466381D02*
X103548200Y-114418762D01*
X103548200Y-114418762D02*
X103595819Y-114323524D01*
X103595819Y-114323524D02*
X103595819Y-114180667D01*
X102929152Y-114942572D02*
X103595819Y-114942572D01*
X103024390Y-114942572D02*
X102976771Y-114990191D01*
X102976771Y-114990191D02*
X102929152Y-115085429D01*
X102929152Y-115085429D02*
X102929152Y-115228286D01*
X102929152Y-115228286D02*
X102976771Y-115323524D01*
X102976771Y-115323524D02*
X103072009Y-115371143D01*
X103072009Y-115371143D02*
X103595819Y-115371143D01*
X102929152Y-115752096D02*
X103595819Y-115990191D01*
X102929152Y-116228286D02*
X103595819Y-115990191D01*
X103595819Y-115990191D02*
X103833914Y-115894953D01*
X103833914Y-115894953D02*
X103881533Y-115847334D01*
X103881533Y-115847334D02*
X103929152Y-115752096D01*
X50730000Y-110847000D02*
X53270000Y-110847000D01*
X53270000Y-113302500D01*
X50730000Y-113302500D01*
X50730000Y-110847000D01*
G36*
X50730000Y-110847000D02*
G01*
X53270000Y-110847000D01*
X53270000Y-113302500D01*
X50730000Y-113302500D01*
X50730000Y-110847000D01*
G37*
D11*
X106444323Y-109577000D02*
G75*
G02*
X104155677Y-109577000I-1144323J0D01*
G01*
X104155677Y-109577000D02*
G75*
G02*
X106444323Y-109577000I1144323J0D01*
G01*
X84444323Y-109577000D02*
G75*
G02*
X82155677Y-109577000I-1144323J0D01*
G01*
X82155677Y-109577000D02*
G75*
G02*
X84444323Y-109577000I1144323J0D01*
G01*
D10*
X81595819Y-111371142D02*
X81595819Y-110894952D01*
X81595819Y-110894952D02*
X80595819Y-110894952D01*
X81548200Y-112085428D02*
X81595819Y-111990190D01*
X81595819Y-111990190D02*
X81595819Y-111799714D01*
X81595819Y-111799714D02*
X81548200Y-111704476D01*
X81548200Y-111704476D02*
X81452961Y-111656857D01*
X81452961Y-111656857D02*
X81072009Y-111656857D01*
X81072009Y-111656857D02*
X80976771Y-111704476D01*
X80976771Y-111704476D02*
X80929152Y-111799714D01*
X80929152Y-111799714D02*
X80929152Y-111990190D01*
X80929152Y-111990190D02*
X80976771Y-112085428D01*
X80976771Y-112085428D02*
X81072009Y-112133047D01*
X81072009Y-112133047D02*
X81167247Y-112133047D01*
X81167247Y-112133047D02*
X81262485Y-111656857D01*
X81595819Y-112990190D02*
X81072009Y-112990190D01*
X81072009Y-112990190D02*
X80976771Y-112942571D01*
X80976771Y-112942571D02*
X80929152Y-112847333D01*
X80929152Y-112847333D02*
X80929152Y-112656857D01*
X80929152Y-112656857D02*
X80976771Y-112561619D01*
X81548200Y-112990190D02*
X81595819Y-112894952D01*
X81595819Y-112894952D02*
X81595819Y-112656857D01*
X81595819Y-112656857D02*
X81548200Y-112561619D01*
X81548200Y-112561619D02*
X81452961Y-112514000D01*
X81452961Y-112514000D02*
X81357723Y-112514000D01*
X81357723Y-112514000D02*
X81262485Y-112561619D01*
X81262485Y-112561619D02*
X81214866Y-112656857D01*
X81214866Y-112656857D02*
X81214866Y-112894952D01*
X81214866Y-112894952D02*
X81167247Y-112990190D01*
X80929152Y-113323524D02*
X80929152Y-113704476D01*
X81595819Y-113466381D02*
X80738676Y-113466381D01*
X80738676Y-113466381D02*
X80643438Y-113514000D01*
X80643438Y-113514000D02*
X80595819Y-113609238D01*
X80595819Y-113609238D02*
X80595819Y-113704476D01*
X81595819Y-114180667D02*
X81548200Y-114085429D01*
X81548200Y-114085429D02*
X81500580Y-114037810D01*
X81500580Y-114037810D02*
X81405342Y-113990191D01*
X81405342Y-113990191D02*
X81119628Y-113990191D01*
X81119628Y-113990191D02*
X81024390Y-114037810D01*
X81024390Y-114037810D02*
X80976771Y-114085429D01*
X80976771Y-114085429D02*
X80929152Y-114180667D01*
X80929152Y-114180667D02*
X80929152Y-114323524D01*
X80929152Y-114323524D02*
X80976771Y-114418762D01*
X80976771Y-114418762D02*
X81024390Y-114466381D01*
X81024390Y-114466381D02*
X81119628Y-114514000D01*
X81119628Y-114514000D02*
X81405342Y-114514000D01*
X81405342Y-114514000D02*
X81500580Y-114466381D01*
X81500580Y-114466381D02*
X81548200Y-114418762D01*
X81548200Y-114418762D02*
X81595819Y-114323524D01*
X81595819Y-114323524D02*
X81595819Y-114180667D01*
X80929152Y-114942572D02*
X81595819Y-114942572D01*
X81024390Y-114942572D02*
X80976771Y-114990191D01*
X80976771Y-114990191D02*
X80929152Y-115085429D01*
X80929152Y-115085429D02*
X80929152Y-115228286D01*
X80929152Y-115228286D02*
X80976771Y-115323524D01*
X80976771Y-115323524D02*
X81072009Y-115371143D01*
X81072009Y-115371143D02*
X81595819Y-115371143D01*
X80929152Y-115752096D02*
X81595819Y-115990191D01*
X80929152Y-116228286D02*
X81595819Y-115990191D01*
X81595819Y-115990191D02*
X81833914Y-115894953D01*
X81833914Y-115894953D02*
X81881533Y-115847334D01*
X81881533Y-115847334D02*
X81929152Y-115752096D01*
X98455104Y-109395095D02*
X98455104Y-109871285D01*
X98740819Y-109299857D02*
X97740819Y-109633190D01*
X97740819Y-109633190D02*
X98740819Y-109966523D01*
X97740819Y-110204619D02*
X98740819Y-110871285D01*
X97740819Y-110871285D02*
X98740819Y-110204619D01*
X97740819Y-111442714D02*
X97740819Y-111537952D01*
X97740819Y-111537952D02*
X97788438Y-111633190D01*
X97788438Y-111633190D02*
X97836057Y-111680809D01*
X97836057Y-111680809D02*
X97931295Y-111728428D01*
X97931295Y-111728428D02*
X98121771Y-111776047D01*
X98121771Y-111776047D02*
X98359866Y-111776047D01*
X98359866Y-111776047D02*
X98550342Y-111728428D01*
X98550342Y-111728428D02*
X98645580Y-111680809D01*
X98645580Y-111680809D02*
X98693200Y-111633190D01*
X98693200Y-111633190D02*
X98740819Y-111537952D01*
X98740819Y-111537952D02*
X98740819Y-111442714D01*
X98740819Y-111442714D02*
X98693200Y-111347476D01*
X98693200Y-111347476D02*
X98645580Y-111299857D01*
X98645580Y-111299857D02*
X98550342Y-111252238D01*
X98550342Y-111252238D02*
X98359866Y-111204619D01*
X98359866Y-111204619D02*
X98121771Y-111204619D01*
X98121771Y-111204619D02*
X97931295Y-111252238D01*
X97931295Y-111252238D02*
X97836057Y-111299857D01*
X97836057Y-111299857D02*
X97788438Y-111347476D01*
X97788438Y-111347476D02*
X97740819Y-111442714D01*
X97836057Y-112157000D02*
X97788438Y-112204619D01*
X97788438Y-112204619D02*
X97740819Y-112299857D01*
X97740819Y-112299857D02*
X97740819Y-112537952D01*
X97740819Y-112537952D02*
X97788438Y-112633190D01*
X97788438Y-112633190D02*
X97836057Y-112680809D01*
X97836057Y-112680809D02*
X97931295Y-112728428D01*
X97931295Y-112728428D02*
X98026533Y-112728428D01*
X98026533Y-112728428D02*
X98169390Y-112680809D01*
X98169390Y-112680809D02*
X98740819Y-112109381D01*
X98740819Y-112109381D02*
X98740819Y-112728428D01*
X98217009Y-113490333D02*
X98264628Y-113633190D01*
X98264628Y-113633190D02*
X98312247Y-113680809D01*
X98312247Y-113680809D02*
X98407485Y-113728428D01*
X98407485Y-113728428D02*
X98550342Y-113728428D01*
X98550342Y-113728428D02*
X98645580Y-113680809D01*
X98645580Y-113680809D02*
X98693200Y-113633190D01*
X98693200Y-113633190D02*
X98740819Y-113537952D01*
X98740819Y-113537952D02*
X98740819Y-113157000D01*
X98740819Y-113157000D02*
X97740819Y-113157000D01*
X97740819Y-113157000D02*
X97740819Y-113490333D01*
X97740819Y-113490333D02*
X97788438Y-113585571D01*
X97788438Y-113585571D02*
X97836057Y-113633190D01*
X97836057Y-113633190D02*
X97931295Y-113680809D01*
X97931295Y-113680809D02*
X98026533Y-113680809D01*
X98026533Y-113680809D02*
X98121771Y-113633190D01*
X98121771Y-113633190D02*
X98169390Y-113585571D01*
X98169390Y-113585571D02*
X98217009Y-113490333D01*
X98217009Y-113490333D02*
X98217009Y-113157000D01*
X97836057Y-114871286D02*
X97788438Y-114918905D01*
X97788438Y-114918905D02*
X97740819Y-115014143D01*
X97740819Y-115014143D02*
X97740819Y-115252238D01*
X97740819Y-115252238D02*
X97788438Y-115347476D01*
X97788438Y-115347476D02*
X97836057Y-115395095D01*
X97836057Y-115395095D02*
X97931295Y-115442714D01*
X97931295Y-115442714D02*
X98026533Y-115442714D01*
X98026533Y-115442714D02*
X98169390Y-115395095D01*
X98169390Y-115395095D02*
X98740819Y-114823667D01*
X98740819Y-114823667D02*
X98740819Y-115442714D01*
X98740819Y-115918905D02*
X98740819Y-116109381D01*
X98740819Y-116109381D02*
X98693200Y-116204619D01*
X98693200Y-116204619D02*
X98645580Y-116252238D01*
X98645580Y-116252238D02*
X98502723Y-116347476D01*
X98502723Y-116347476D02*
X98312247Y-116395095D01*
X98312247Y-116395095D02*
X97931295Y-116395095D01*
X97931295Y-116395095D02*
X97836057Y-116347476D01*
X97836057Y-116347476D02*
X97788438Y-116299857D01*
X97788438Y-116299857D02*
X97740819Y-116204619D01*
X97740819Y-116204619D02*
X97740819Y-116014143D01*
X97740819Y-116014143D02*
X97788438Y-115918905D01*
X97788438Y-115918905D02*
X97836057Y-115871286D01*
X97836057Y-115871286D02*
X97931295Y-115823667D01*
X97931295Y-115823667D02*
X98169390Y-115823667D01*
X98169390Y-115823667D02*
X98264628Y-115871286D01*
X98264628Y-115871286D02*
X98312247Y-115918905D01*
X98312247Y-115918905D02*
X98359866Y-116014143D01*
X98359866Y-116014143D02*
X98359866Y-116204619D01*
X98359866Y-116204619D02*
X98312247Y-116299857D01*
X98312247Y-116299857D02*
X98264628Y-116347476D01*
X98264628Y-116347476D02*
X98169390Y-116395095D01*
X98359866Y-116823667D02*
X98359866Y-117585572D01*
X98074152Y-118061762D02*
X99074152Y-118061762D01*
X98121771Y-118061762D02*
X98074152Y-118157000D01*
X98074152Y-118157000D02*
X98074152Y-118347476D01*
X98074152Y-118347476D02*
X98121771Y-118442714D01*
X98121771Y-118442714D02*
X98169390Y-118490333D01*
X98169390Y-118490333D02*
X98264628Y-118537952D01*
X98264628Y-118537952D02*
X98550342Y-118537952D01*
X98550342Y-118537952D02*
X98645580Y-118490333D01*
X98645580Y-118490333D02*
X98693200Y-118442714D01*
X98693200Y-118442714D02*
X98740819Y-118347476D01*
X98740819Y-118347476D02*
X98740819Y-118157000D01*
X98740819Y-118157000D02*
X98693200Y-118061762D01*
X98740819Y-118966524D02*
X98074152Y-118966524D01*
X97740819Y-118966524D02*
X97788438Y-118918905D01*
X97788438Y-118918905D02*
X97836057Y-118966524D01*
X97836057Y-118966524D02*
X97788438Y-119014143D01*
X97788438Y-119014143D02*
X97740819Y-118966524D01*
X97740819Y-118966524D02*
X97836057Y-118966524D01*
X98074152Y-119442714D02*
X98740819Y-119442714D01*
X98169390Y-119442714D02*
X98121771Y-119490333D01*
X98121771Y-119490333D02*
X98074152Y-119585571D01*
X98074152Y-119585571D02*
X98074152Y-119728428D01*
X98074152Y-119728428D02*
X98121771Y-119823666D01*
X98121771Y-119823666D02*
X98217009Y-119871285D01*
X98217009Y-119871285D02*
X98740819Y-119871285D01*
D11*
X62444323Y-109577000D02*
G75*
G02*
X60155677Y-109577000I-1144323J0D01*
G01*
X60155677Y-109577000D02*
G75*
G02*
X62444323Y-109577000I1144323J0D01*
G01*
D10*
X76455104Y-109395095D02*
X76455104Y-109871285D01*
X76740819Y-109299857D02*
X75740819Y-109633190D01*
X75740819Y-109633190D02*
X76740819Y-109966523D01*
X75740819Y-110204619D02*
X76740819Y-110871285D01*
X75740819Y-110871285D02*
X76740819Y-110204619D01*
X75740819Y-111442714D02*
X75740819Y-111537952D01*
X75740819Y-111537952D02*
X75788438Y-111633190D01*
X75788438Y-111633190D02*
X75836057Y-111680809D01*
X75836057Y-111680809D02*
X75931295Y-111728428D01*
X75931295Y-111728428D02*
X76121771Y-111776047D01*
X76121771Y-111776047D02*
X76359866Y-111776047D01*
X76359866Y-111776047D02*
X76550342Y-111728428D01*
X76550342Y-111728428D02*
X76645580Y-111680809D01*
X76645580Y-111680809D02*
X76693200Y-111633190D01*
X76693200Y-111633190D02*
X76740819Y-111537952D01*
X76740819Y-111537952D02*
X76740819Y-111442714D01*
X76740819Y-111442714D02*
X76693200Y-111347476D01*
X76693200Y-111347476D02*
X76645580Y-111299857D01*
X76645580Y-111299857D02*
X76550342Y-111252238D01*
X76550342Y-111252238D02*
X76359866Y-111204619D01*
X76359866Y-111204619D02*
X76121771Y-111204619D01*
X76121771Y-111204619D02*
X75931295Y-111252238D01*
X75931295Y-111252238D02*
X75836057Y-111299857D01*
X75836057Y-111299857D02*
X75788438Y-111347476D01*
X75788438Y-111347476D02*
X75740819Y-111442714D01*
X75836057Y-112157000D02*
X75788438Y-112204619D01*
X75788438Y-112204619D02*
X75740819Y-112299857D01*
X75740819Y-112299857D02*
X75740819Y-112537952D01*
X75740819Y-112537952D02*
X75788438Y-112633190D01*
X75788438Y-112633190D02*
X75836057Y-112680809D01*
X75836057Y-112680809D02*
X75931295Y-112728428D01*
X75931295Y-112728428D02*
X76026533Y-112728428D01*
X76026533Y-112728428D02*
X76169390Y-112680809D01*
X76169390Y-112680809D02*
X76740819Y-112109381D01*
X76740819Y-112109381D02*
X76740819Y-112728428D01*
X76217009Y-113490333D02*
X76264628Y-113633190D01*
X76264628Y-113633190D02*
X76312247Y-113680809D01*
X76312247Y-113680809D02*
X76407485Y-113728428D01*
X76407485Y-113728428D02*
X76550342Y-113728428D01*
X76550342Y-113728428D02*
X76645580Y-113680809D01*
X76645580Y-113680809D02*
X76693200Y-113633190D01*
X76693200Y-113633190D02*
X76740819Y-113537952D01*
X76740819Y-113537952D02*
X76740819Y-113157000D01*
X76740819Y-113157000D02*
X75740819Y-113157000D01*
X75740819Y-113157000D02*
X75740819Y-113490333D01*
X75740819Y-113490333D02*
X75788438Y-113585571D01*
X75788438Y-113585571D02*
X75836057Y-113633190D01*
X75836057Y-113633190D02*
X75931295Y-113680809D01*
X75931295Y-113680809D02*
X76026533Y-113680809D01*
X76026533Y-113680809D02*
X76121771Y-113633190D01*
X76121771Y-113633190D02*
X76169390Y-113585571D01*
X76169390Y-113585571D02*
X76217009Y-113490333D01*
X76217009Y-113490333D02*
X76217009Y-113157000D01*
X75836057Y-114871286D02*
X75788438Y-114918905D01*
X75788438Y-114918905D02*
X75740819Y-115014143D01*
X75740819Y-115014143D02*
X75740819Y-115252238D01*
X75740819Y-115252238D02*
X75788438Y-115347476D01*
X75788438Y-115347476D02*
X75836057Y-115395095D01*
X75836057Y-115395095D02*
X75931295Y-115442714D01*
X75931295Y-115442714D02*
X76026533Y-115442714D01*
X76026533Y-115442714D02*
X76169390Y-115395095D01*
X76169390Y-115395095D02*
X76740819Y-114823667D01*
X76740819Y-114823667D02*
X76740819Y-115442714D01*
X76740819Y-115918905D02*
X76740819Y-116109381D01*
X76740819Y-116109381D02*
X76693200Y-116204619D01*
X76693200Y-116204619D02*
X76645580Y-116252238D01*
X76645580Y-116252238D02*
X76502723Y-116347476D01*
X76502723Y-116347476D02*
X76312247Y-116395095D01*
X76312247Y-116395095D02*
X75931295Y-116395095D01*
X75931295Y-116395095D02*
X75836057Y-116347476D01*
X75836057Y-116347476D02*
X75788438Y-116299857D01*
X75788438Y-116299857D02*
X75740819Y-116204619D01*
X75740819Y-116204619D02*
X75740819Y-116014143D01*
X75740819Y-116014143D02*
X75788438Y-115918905D01*
X75788438Y-115918905D02*
X75836057Y-115871286D01*
X75836057Y-115871286D02*
X75931295Y-115823667D01*
X75931295Y-115823667D02*
X76169390Y-115823667D01*
X76169390Y-115823667D02*
X76264628Y-115871286D01*
X76264628Y-115871286D02*
X76312247Y-115918905D01*
X76312247Y-115918905D02*
X76359866Y-116014143D01*
X76359866Y-116014143D02*
X76359866Y-116204619D01*
X76359866Y-116204619D02*
X76312247Y-116299857D01*
X76312247Y-116299857D02*
X76264628Y-116347476D01*
X76264628Y-116347476D02*
X76169390Y-116395095D01*
X76359866Y-116823667D02*
X76359866Y-117585572D01*
X76074152Y-118061762D02*
X77074152Y-118061762D01*
X76121771Y-118061762D02*
X76074152Y-118157000D01*
X76074152Y-118157000D02*
X76074152Y-118347476D01*
X76074152Y-118347476D02*
X76121771Y-118442714D01*
X76121771Y-118442714D02*
X76169390Y-118490333D01*
X76169390Y-118490333D02*
X76264628Y-118537952D01*
X76264628Y-118537952D02*
X76550342Y-118537952D01*
X76550342Y-118537952D02*
X76645580Y-118490333D01*
X76645580Y-118490333D02*
X76693200Y-118442714D01*
X76693200Y-118442714D02*
X76740819Y-118347476D01*
X76740819Y-118347476D02*
X76740819Y-118157000D01*
X76740819Y-118157000D02*
X76693200Y-118061762D01*
X76740819Y-118966524D02*
X76074152Y-118966524D01*
X75740819Y-118966524D02*
X75788438Y-118918905D01*
X75788438Y-118918905D02*
X75836057Y-118966524D01*
X75836057Y-118966524D02*
X75788438Y-119014143D01*
X75788438Y-119014143D02*
X75740819Y-118966524D01*
X75740819Y-118966524D02*
X75836057Y-118966524D01*
X76074152Y-119442714D02*
X76740819Y-119442714D01*
X76169390Y-119442714D02*
X76121771Y-119490333D01*
X76121771Y-119490333D02*
X76074152Y-119585571D01*
X76074152Y-119585571D02*
X76074152Y-119728428D01*
X76074152Y-119728428D02*
X76121771Y-119823666D01*
X76121771Y-119823666D02*
X76217009Y-119871285D01*
X76217009Y-119871285D02*
X76740819Y-119871285D01*
X120455104Y-109395095D02*
X120455104Y-109871285D01*
X120740819Y-109299857D02*
X119740819Y-109633190D01*
X119740819Y-109633190D02*
X120740819Y-109966523D01*
X119740819Y-110204619D02*
X120740819Y-110871285D01*
X119740819Y-110871285D02*
X120740819Y-110204619D01*
X119740819Y-111442714D02*
X119740819Y-111537952D01*
X119740819Y-111537952D02*
X119788438Y-111633190D01*
X119788438Y-111633190D02*
X119836057Y-111680809D01*
X119836057Y-111680809D02*
X119931295Y-111728428D01*
X119931295Y-111728428D02*
X120121771Y-111776047D01*
X120121771Y-111776047D02*
X120359866Y-111776047D01*
X120359866Y-111776047D02*
X120550342Y-111728428D01*
X120550342Y-111728428D02*
X120645580Y-111680809D01*
X120645580Y-111680809D02*
X120693200Y-111633190D01*
X120693200Y-111633190D02*
X120740819Y-111537952D01*
X120740819Y-111537952D02*
X120740819Y-111442714D01*
X120740819Y-111442714D02*
X120693200Y-111347476D01*
X120693200Y-111347476D02*
X120645580Y-111299857D01*
X120645580Y-111299857D02*
X120550342Y-111252238D01*
X120550342Y-111252238D02*
X120359866Y-111204619D01*
X120359866Y-111204619D02*
X120121771Y-111204619D01*
X120121771Y-111204619D02*
X119931295Y-111252238D01*
X119931295Y-111252238D02*
X119836057Y-111299857D01*
X119836057Y-111299857D02*
X119788438Y-111347476D01*
X119788438Y-111347476D02*
X119740819Y-111442714D01*
X119836057Y-112157000D02*
X119788438Y-112204619D01*
X119788438Y-112204619D02*
X119740819Y-112299857D01*
X119740819Y-112299857D02*
X119740819Y-112537952D01*
X119740819Y-112537952D02*
X119788438Y-112633190D01*
X119788438Y-112633190D02*
X119836057Y-112680809D01*
X119836057Y-112680809D02*
X119931295Y-112728428D01*
X119931295Y-112728428D02*
X120026533Y-112728428D01*
X120026533Y-112728428D02*
X120169390Y-112680809D01*
X120169390Y-112680809D02*
X120740819Y-112109381D01*
X120740819Y-112109381D02*
X120740819Y-112728428D01*
X120217009Y-113490333D02*
X120264628Y-113633190D01*
X120264628Y-113633190D02*
X120312247Y-113680809D01*
X120312247Y-113680809D02*
X120407485Y-113728428D01*
X120407485Y-113728428D02*
X120550342Y-113728428D01*
X120550342Y-113728428D02*
X120645580Y-113680809D01*
X120645580Y-113680809D02*
X120693200Y-113633190D01*
X120693200Y-113633190D02*
X120740819Y-113537952D01*
X120740819Y-113537952D02*
X120740819Y-113157000D01*
X120740819Y-113157000D02*
X119740819Y-113157000D01*
X119740819Y-113157000D02*
X119740819Y-113490333D01*
X119740819Y-113490333D02*
X119788438Y-113585571D01*
X119788438Y-113585571D02*
X119836057Y-113633190D01*
X119836057Y-113633190D02*
X119931295Y-113680809D01*
X119931295Y-113680809D02*
X120026533Y-113680809D01*
X120026533Y-113680809D02*
X120121771Y-113633190D01*
X120121771Y-113633190D02*
X120169390Y-113585571D01*
X120169390Y-113585571D02*
X120217009Y-113490333D01*
X120217009Y-113490333D02*
X120217009Y-113157000D01*
X119836057Y-114871286D02*
X119788438Y-114918905D01*
X119788438Y-114918905D02*
X119740819Y-115014143D01*
X119740819Y-115014143D02*
X119740819Y-115252238D01*
X119740819Y-115252238D02*
X119788438Y-115347476D01*
X119788438Y-115347476D02*
X119836057Y-115395095D01*
X119836057Y-115395095D02*
X119931295Y-115442714D01*
X119931295Y-115442714D02*
X120026533Y-115442714D01*
X120026533Y-115442714D02*
X120169390Y-115395095D01*
X120169390Y-115395095D02*
X120740819Y-114823667D01*
X120740819Y-114823667D02*
X120740819Y-115442714D01*
X120740819Y-115918905D02*
X120740819Y-116109381D01*
X120740819Y-116109381D02*
X120693200Y-116204619D01*
X120693200Y-116204619D02*
X120645580Y-116252238D01*
X120645580Y-116252238D02*
X120502723Y-116347476D01*
X120502723Y-116347476D02*
X120312247Y-116395095D01*
X120312247Y-116395095D02*
X119931295Y-116395095D01*
X119931295Y-116395095D02*
X119836057Y-116347476D01*
X119836057Y-116347476D02*
X119788438Y-116299857D01*
X119788438Y-116299857D02*
X119740819Y-116204619D01*
X119740819Y-116204619D02*
X119740819Y-116014143D01*
X119740819Y-116014143D02*
X119788438Y-115918905D01*
X119788438Y-115918905D02*
X119836057Y-115871286D01*
X119836057Y-115871286D02*
X119931295Y-115823667D01*
X119931295Y-115823667D02*
X120169390Y-115823667D01*
X120169390Y-115823667D02*
X120264628Y-115871286D01*
X120264628Y-115871286D02*
X120312247Y-115918905D01*
X120312247Y-115918905D02*
X120359866Y-116014143D01*
X120359866Y-116014143D02*
X120359866Y-116204619D01*
X120359866Y-116204619D02*
X120312247Y-116299857D01*
X120312247Y-116299857D02*
X120264628Y-116347476D01*
X120264628Y-116347476D02*
X120169390Y-116395095D01*
X120359866Y-116823667D02*
X120359866Y-117585572D01*
X120074152Y-118061762D02*
X121074152Y-118061762D01*
X120121771Y-118061762D02*
X120074152Y-118157000D01*
X120074152Y-118157000D02*
X120074152Y-118347476D01*
X120074152Y-118347476D02*
X120121771Y-118442714D01*
X120121771Y-118442714D02*
X120169390Y-118490333D01*
X120169390Y-118490333D02*
X120264628Y-118537952D01*
X120264628Y-118537952D02*
X120550342Y-118537952D01*
X120550342Y-118537952D02*
X120645580Y-118490333D01*
X120645580Y-118490333D02*
X120693200Y-118442714D01*
X120693200Y-118442714D02*
X120740819Y-118347476D01*
X120740819Y-118347476D02*
X120740819Y-118157000D01*
X120740819Y-118157000D02*
X120693200Y-118061762D01*
X120740819Y-118966524D02*
X120074152Y-118966524D01*
X119740819Y-118966524D02*
X119788438Y-118918905D01*
X119788438Y-118918905D02*
X119836057Y-118966524D01*
X119836057Y-118966524D02*
X119788438Y-119014143D01*
X119788438Y-119014143D02*
X119740819Y-118966524D01*
X119740819Y-118966524D02*
X119836057Y-118966524D01*
X120074152Y-119442714D02*
X120740819Y-119442714D01*
X120169390Y-119442714D02*
X120121771Y-119490333D01*
X120121771Y-119490333D02*
X120074152Y-119585571D01*
X120074152Y-119585571D02*
X120074152Y-119728428D01*
X120074152Y-119728428D02*
X120121771Y-119823666D01*
X120121771Y-119823666D02*
X120217009Y-119871285D01*
X120217009Y-119871285D02*
X120740819Y-119871285D01*
X54455104Y-80395095D02*
X54455104Y-80871285D01*
X54740819Y-80299857D02*
X53740819Y-80633190D01*
X53740819Y-80633190D02*
X54740819Y-80966523D01*
X53740819Y-81204619D02*
X54740819Y-81871285D01*
X53740819Y-81871285D02*
X54740819Y-81204619D01*
X53740819Y-82442714D02*
X53740819Y-82537952D01*
X53740819Y-82537952D02*
X53788438Y-82633190D01*
X53788438Y-82633190D02*
X53836057Y-82680809D01*
X53836057Y-82680809D02*
X53931295Y-82728428D01*
X53931295Y-82728428D02*
X54121771Y-82776047D01*
X54121771Y-82776047D02*
X54359866Y-82776047D01*
X54359866Y-82776047D02*
X54550342Y-82728428D01*
X54550342Y-82728428D02*
X54645580Y-82680809D01*
X54645580Y-82680809D02*
X54693200Y-82633190D01*
X54693200Y-82633190D02*
X54740819Y-82537952D01*
X54740819Y-82537952D02*
X54740819Y-82442714D01*
X54740819Y-82442714D02*
X54693200Y-82347476D01*
X54693200Y-82347476D02*
X54645580Y-82299857D01*
X54645580Y-82299857D02*
X54550342Y-82252238D01*
X54550342Y-82252238D02*
X54359866Y-82204619D01*
X54359866Y-82204619D02*
X54121771Y-82204619D01*
X54121771Y-82204619D02*
X53931295Y-82252238D01*
X53931295Y-82252238D02*
X53836057Y-82299857D01*
X53836057Y-82299857D02*
X53788438Y-82347476D01*
X53788438Y-82347476D02*
X53740819Y-82442714D01*
X53836057Y-83157000D02*
X53788438Y-83204619D01*
X53788438Y-83204619D02*
X53740819Y-83299857D01*
X53740819Y-83299857D02*
X53740819Y-83537952D01*
X53740819Y-83537952D02*
X53788438Y-83633190D01*
X53788438Y-83633190D02*
X53836057Y-83680809D01*
X53836057Y-83680809D02*
X53931295Y-83728428D01*
X53931295Y-83728428D02*
X54026533Y-83728428D01*
X54026533Y-83728428D02*
X54169390Y-83680809D01*
X54169390Y-83680809D02*
X54740819Y-83109381D01*
X54740819Y-83109381D02*
X54740819Y-83728428D01*
X54217009Y-84490333D02*
X54264628Y-84633190D01*
X54264628Y-84633190D02*
X54312247Y-84680809D01*
X54312247Y-84680809D02*
X54407485Y-84728428D01*
X54407485Y-84728428D02*
X54550342Y-84728428D01*
X54550342Y-84728428D02*
X54645580Y-84680809D01*
X54645580Y-84680809D02*
X54693200Y-84633190D01*
X54693200Y-84633190D02*
X54740819Y-84537952D01*
X54740819Y-84537952D02*
X54740819Y-84157000D01*
X54740819Y-84157000D02*
X53740819Y-84157000D01*
X53740819Y-84157000D02*
X53740819Y-84490333D01*
X53740819Y-84490333D02*
X53788438Y-84585571D01*
X53788438Y-84585571D02*
X53836057Y-84633190D01*
X53836057Y-84633190D02*
X53931295Y-84680809D01*
X53931295Y-84680809D02*
X54026533Y-84680809D01*
X54026533Y-84680809D02*
X54121771Y-84633190D01*
X54121771Y-84633190D02*
X54169390Y-84585571D01*
X54169390Y-84585571D02*
X54217009Y-84490333D01*
X54217009Y-84490333D02*
X54217009Y-84157000D01*
X53836057Y-85871286D02*
X53788438Y-85918905D01*
X53788438Y-85918905D02*
X53740819Y-86014143D01*
X53740819Y-86014143D02*
X53740819Y-86252238D01*
X53740819Y-86252238D02*
X53788438Y-86347476D01*
X53788438Y-86347476D02*
X53836057Y-86395095D01*
X53836057Y-86395095D02*
X53931295Y-86442714D01*
X53931295Y-86442714D02*
X54026533Y-86442714D01*
X54026533Y-86442714D02*
X54169390Y-86395095D01*
X54169390Y-86395095D02*
X54740819Y-85823667D01*
X54740819Y-85823667D02*
X54740819Y-86442714D01*
X54740819Y-86918905D02*
X54740819Y-87109381D01*
X54740819Y-87109381D02*
X54693200Y-87204619D01*
X54693200Y-87204619D02*
X54645580Y-87252238D01*
X54645580Y-87252238D02*
X54502723Y-87347476D01*
X54502723Y-87347476D02*
X54312247Y-87395095D01*
X54312247Y-87395095D02*
X53931295Y-87395095D01*
X53931295Y-87395095D02*
X53836057Y-87347476D01*
X53836057Y-87347476D02*
X53788438Y-87299857D01*
X53788438Y-87299857D02*
X53740819Y-87204619D01*
X53740819Y-87204619D02*
X53740819Y-87014143D01*
X53740819Y-87014143D02*
X53788438Y-86918905D01*
X53788438Y-86918905D02*
X53836057Y-86871286D01*
X53836057Y-86871286D02*
X53931295Y-86823667D01*
X53931295Y-86823667D02*
X54169390Y-86823667D01*
X54169390Y-86823667D02*
X54264628Y-86871286D01*
X54264628Y-86871286D02*
X54312247Y-86918905D01*
X54312247Y-86918905D02*
X54359866Y-87014143D01*
X54359866Y-87014143D02*
X54359866Y-87204619D01*
X54359866Y-87204619D02*
X54312247Y-87299857D01*
X54312247Y-87299857D02*
X54264628Y-87347476D01*
X54264628Y-87347476D02*
X54169390Y-87395095D01*
X54359866Y-87823667D02*
X54359866Y-88585572D01*
X54074152Y-89061762D02*
X55074152Y-89061762D01*
X54121771Y-89061762D02*
X54074152Y-89157000D01*
X54074152Y-89157000D02*
X54074152Y-89347476D01*
X54074152Y-89347476D02*
X54121771Y-89442714D01*
X54121771Y-89442714D02*
X54169390Y-89490333D01*
X54169390Y-89490333D02*
X54264628Y-89537952D01*
X54264628Y-89537952D02*
X54550342Y-89537952D01*
X54550342Y-89537952D02*
X54645580Y-89490333D01*
X54645580Y-89490333D02*
X54693200Y-89442714D01*
X54693200Y-89442714D02*
X54740819Y-89347476D01*
X54740819Y-89347476D02*
X54740819Y-89157000D01*
X54740819Y-89157000D02*
X54693200Y-89061762D01*
X54740819Y-89966524D02*
X54074152Y-89966524D01*
X53740819Y-89966524D02*
X53788438Y-89918905D01*
X53788438Y-89918905D02*
X53836057Y-89966524D01*
X53836057Y-89966524D02*
X53788438Y-90014143D01*
X53788438Y-90014143D02*
X53740819Y-89966524D01*
X53740819Y-89966524D02*
X53836057Y-89966524D01*
X54074152Y-90442714D02*
X54740819Y-90442714D01*
X54169390Y-90442714D02*
X54121771Y-90490333D01*
X54121771Y-90490333D02*
X54074152Y-90585571D01*
X54074152Y-90585571D02*
X54074152Y-90728428D01*
X54074152Y-90728428D02*
X54121771Y-90823666D01*
X54121771Y-90823666D02*
X54217009Y-90871285D01*
X54217009Y-90871285D02*
X54740819Y-90871285D01*
X94730000Y-81847000D02*
X97270000Y-81847000D01*
X97270000Y-84302500D01*
X94730000Y-84302500D01*
X94730000Y-81847000D01*
G36*
X94730000Y-81847000D02*
G01*
X97270000Y-81847000D01*
X97270000Y-84302500D01*
X94730000Y-84302500D01*
X94730000Y-81847000D01*
G37*
X116730000Y-81847000D02*
X119270000Y-81847000D01*
X119270000Y-84302500D01*
X116730000Y-84302500D01*
X116730000Y-81847000D01*
G36*
X116730000Y-81847000D02*
G01*
X119270000Y-81847000D01*
X119270000Y-84302500D01*
X116730000Y-84302500D01*
X116730000Y-81847000D01*
G37*
X59595819Y-82371142D02*
X59595819Y-81894952D01*
X59595819Y-81894952D02*
X58595819Y-81894952D01*
X59548200Y-83085428D02*
X59595819Y-82990190D01*
X59595819Y-82990190D02*
X59595819Y-82799714D01*
X59595819Y-82799714D02*
X59548200Y-82704476D01*
X59548200Y-82704476D02*
X59452961Y-82656857D01*
X59452961Y-82656857D02*
X59072009Y-82656857D01*
X59072009Y-82656857D02*
X58976771Y-82704476D01*
X58976771Y-82704476D02*
X58929152Y-82799714D01*
X58929152Y-82799714D02*
X58929152Y-82990190D01*
X58929152Y-82990190D02*
X58976771Y-83085428D01*
X58976771Y-83085428D02*
X59072009Y-83133047D01*
X59072009Y-83133047D02*
X59167247Y-83133047D01*
X59167247Y-83133047D02*
X59262485Y-82656857D01*
X59595819Y-83990190D02*
X59072009Y-83990190D01*
X59072009Y-83990190D02*
X58976771Y-83942571D01*
X58976771Y-83942571D02*
X58929152Y-83847333D01*
X58929152Y-83847333D02*
X58929152Y-83656857D01*
X58929152Y-83656857D02*
X58976771Y-83561619D01*
X59548200Y-83990190D02*
X59595819Y-83894952D01*
X59595819Y-83894952D02*
X59595819Y-83656857D01*
X59595819Y-83656857D02*
X59548200Y-83561619D01*
X59548200Y-83561619D02*
X59452961Y-83514000D01*
X59452961Y-83514000D02*
X59357723Y-83514000D01*
X59357723Y-83514000D02*
X59262485Y-83561619D01*
X59262485Y-83561619D02*
X59214866Y-83656857D01*
X59214866Y-83656857D02*
X59214866Y-83894952D01*
X59214866Y-83894952D02*
X59167247Y-83990190D01*
X58929152Y-84323524D02*
X58929152Y-84704476D01*
X59595819Y-84466381D02*
X58738676Y-84466381D01*
X58738676Y-84466381D02*
X58643438Y-84514000D01*
X58643438Y-84514000D02*
X58595819Y-84609238D01*
X58595819Y-84609238D02*
X58595819Y-84704476D01*
X59595819Y-85180667D02*
X59548200Y-85085429D01*
X59548200Y-85085429D02*
X59500580Y-85037810D01*
X59500580Y-85037810D02*
X59405342Y-84990191D01*
X59405342Y-84990191D02*
X59119628Y-84990191D01*
X59119628Y-84990191D02*
X59024390Y-85037810D01*
X59024390Y-85037810D02*
X58976771Y-85085429D01*
X58976771Y-85085429D02*
X58929152Y-85180667D01*
X58929152Y-85180667D02*
X58929152Y-85323524D01*
X58929152Y-85323524D02*
X58976771Y-85418762D01*
X58976771Y-85418762D02*
X59024390Y-85466381D01*
X59024390Y-85466381D02*
X59119628Y-85514000D01*
X59119628Y-85514000D02*
X59405342Y-85514000D01*
X59405342Y-85514000D02*
X59500580Y-85466381D01*
X59500580Y-85466381D02*
X59548200Y-85418762D01*
X59548200Y-85418762D02*
X59595819Y-85323524D01*
X59595819Y-85323524D02*
X59595819Y-85180667D01*
X58929152Y-85942572D02*
X59595819Y-85942572D01*
X59024390Y-85942572D02*
X58976771Y-85990191D01*
X58976771Y-85990191D02*
X58929152Y-86085429D01*
X58929152Y-86085429D02*
X58929152Y-86228286D01*
X58929152Y-86228286D02*
X58976771Y-86323524D01*
X58976771Y-86323524D02*
X59072009Y-86371143D01*
X59072009Y-86371143D02*
X59595819Y-86371143D01*
X58929152Y-86752096D02*
X59595819Y-86990191D01*
X58929152Y-87228286D02*
X59595819Y-86990191D01*
X59595819Y-86990191D02*
X59833914Y-86894953D01*
X59833914Y-86894953D02*
X59881533Y-86847334D01*
X59881533Y-86847334D02*
X59929152Y-86752096D01*
X72730000Y-81847000D02*
X75270000Y-81847000D01*
X75270000Y-84302500D01*
X72730000Y-84302500D01*
X72730000Y-81847000D01*
G36*
X72730000Y-81847000D02*
G01*
X75270000Y-81847000D01*
X75270000Y-84302500D01*
X72730000Y-84302500D01*
X72730000Y-81847000D01*
G37*
D11*
X40444323Y-80577000D02*
G75*
G02*
X38155677Y-80577000I-1144323J0D01*
G01*
X38155677Y-80577000D02*
G75*
G02*
X40444323Y-80577000I1144323J0D01*
G01*
D10*
X37595819Y-82371142D02*
X37595819Y-81894952D01*
X37595819Y-81894952D02*
X36595819Y-81894952D01*
X37548200Y-83085428D02*
X37595819Y-82990190D01*
X37595819Y-82990190D02*
X37595819Y-82799714D01*
X37595819Y-82799714D02*
X37548200Y-82704476D01*
X37548200Y-82704476D02*
X37452961Y-82656857D01*
X37452961Y-82656857D02*
X37072009Y-82656857D01*
X37072009Y-82656857D02*
X36976771Y-82704476D01*
X36976771Y-82704476D02*
X36929152Y-82799714D01*
X36929152Y-82799714D02*
X36929152Y-82990190D01*
X36929152Y-82990190D02*
X36976771Y-83085428D01*
X36976771Y-83085428D02*
X37072009Y-83133047D01*
X37072009Y-83133047D02*
X37167247Y-83133047D01*
X37167247Y-83133047D02*
X37262485Y-82656857D01*
X37595819Y-83990190D02*
X37072009Y-83990190D01*
X37072009Y-83990190D02*
X36976771Y-83942571D01*
X36976771Y-83942571D02*
X36929152Y-83847333D01*
X36929152Y-83847333D02*
X36929152Y-83656857D01*
X36929152Y-83656857D02*
X36976771Y-83561619D01*
X37548200Y-83990190D02*
X37595819Y-83894952D01*
X37595819Y-83894952D02*
X37595819Y-83656857D01*
X37595819Y-83656857D02*
X37548200Y-83561619D01*
X37548200Y-83561619D02*
X37452961Y-83514000D01*
X37452961Y-83514000D02*
X37357723Y-83514000D01*
X37357723Y-83514000D02*
X37262485Y-83561619D01*
X37262485Y-83561619D02*
X37214866Y-83656857D01*
X37214866Y-83656857D02*
X37214866Y-83894952D01*
X37214866Y-83894952D02*
X37167247Y-83990190D01*
X36929152Y-84323524D02*
X36929152Y-84704476D01*
X37595819Y-84466381D02*
X36738676Y-84466381D01*
X36738676Y-84466381D02*
X36643438Y-84514000D01*
X36643438Y-84514000D02*
X36595819Y-84609238D01*
X36595819Y-84609238D02*
X36595819Y-84704476D01*
X37595819Y-85180667D02*
X37548200Y-85085429D01*
X37548200Y-85085429D02*
X37500580Y-85037810D01*
X37500580Y-85037810D02*
X37405342Y-84990191D01*
X37405342Y-84990191D02*
X37119628Y-84990191D01*
X37119628Y-84990191D02*
X37024390Y-85037810D01*
X37024390Y-85037810D02*
X36976771Y-85085429D01*
X36976771Y-85085429D02*
X36929152Y-85180667D01*
X36929152Y-85180667D02*
X36929152Y-85323524D01*
X36929152Y-85323524D02*
X36976771Y-85418762D01*
X36976771Y-85418762D02*
X37024390Y-85466381D01*
X37024390Y-85466381D02*
X37119628Y-85514000D01*
X37119628Y-85514000D02*
X37405342Y-85514000D01*
X37405342Y-85514000D02*
X37500580Y-85466381D01*
X37500580Y-85466381D02*
X37548200Y-85418762D01*
X37548200Y-85418762D02*
X37595819Y-85323524D01*
X37595819Y-85323524D02*
X37595819Y-85180667D01*
X36929152Y-85942572D02*
X37595819Y-85942572D01*
X37024390Y-85942572D02*
X36976771Y-85990191D01*
X36976771Y-85990191D02*
X36929152Y-86085429D01*
X36929152Y-86085429D02*
X36929152Y-86228286D01*
X36929152Y-86228286D02*
X36976771Y-86323524D01*
X36976771Y-86323524D02*
X37072009Y-86371143D01*
X37072009Y-86371143D02*
X37595819Y-86371143D01*
X36929152Y-86752096D02*
X37595819Y-86990191D01*
X36929152Y-87228286D02*
X37595819Y-86990191D01*
X37595819Y-86990191D02*
X37833914Y-86894953D01*
X37833914Y-86894953D02*
X37881533Y-86847334D01*
X37881533Y-86847334D02*
X37929152Y-86752096D01*
X103595819Y-82371142D02*
X103595819Y-81894952D01*
X103595819Y-81894952D02*
X102595819Y-81894952D01*
X103548200Y-83085428D02*
X103595819Y-82990190D01*
X103595819Y-82990190D02*
X103595819Y-82799714D01*
X103595819Y-82799714D02*
X103548200Y-82704476D01*
X103548200Y-82704476D02*
X103452961Y-82656857D01*
X103452961Y-82656857D02*
X103072009Y-82656857D01*
X103072009Y-82656857D02*
X102976771Y-82704476D01*
X102976771Y-82704476D02*
X102929152Y-82799714D01*
X102929152Y-82799714D02*
X102929152Y-82990190D01*
X102929152Y-82990190D02*
X102976771Y-83085428D01*
X102976771Y-83085428D02*
X103072009Y-83133047D01*
X103072009Y-83133047D02*
X103167247Y-83133047D01*
X103167247Y-83133047D02*
X103262485Y-82656857D01*
X103595819Y-83990190D02*
X103072009Y-83990190D01*
X103072009Y-83990190D02*
X102976771Y-83942571D01*
X102976771Y-83942571D02*
X102929152Y-83847333D01*
X102929152Y-83847333D02*
X102929152Y-83656857D01*
X102929152Y-83656857D02*
X102976771Y-83561619D01*
X103548200Y-83990190D02*
X103595819Y-83894952D01*
X103595819Y-83894952D02*
X103595819Y-83656857D01*
X103595819Y-83656857D02*
X103548200Y-83561619D01*
X103548200Y-83561619D02*
X103452961Y-83514000D01*
X103452961Y-83514000D02*
X103357723Y-83514000D01*
X103357723Y-83514000D02*
X103262485Y-83561619D01*
X103262485Y-83561619D02*
X103214866Y-83656857D01*
X103214866Y-83656857D02*
X103214866Y-83894952D01*
X103214866Y-83894952D02*
X103167247Y-83990190D01*
X102929152Y-84323524D02*
X102929152Y-84704476D01*
X103595819Y-84466381D02*
X102738676Y-84466381D01*
X102738676Y-84466381D02*
X102643438Y-84514000D01*
X102643438Y-84514000D02*
X102595819Y-84609238D01*
X102595819Y-84609238D02*
X102595819Y-84704476D01*
X103595819Y-85180667D02*
X103548200Y-85085429D01*
X103548200Y-85085429D02*
X103500580Y-85037810D01*
X103500580Y-85037810D02*
X103405342Y-84990191D01*
X103405342Y-84990191D02*
X103119628Y-84990191D01*
X103119628Y-84990191D02*
X103024390Y-85037810D01*
X103024390Y-85037810D02*
X102976771Y-85085429D01*
X102976771Y-85085429D02*
X102929152Y-85180667D01*
X102929152Y-85180667D02*
X102929152Y-85323524D01*
X102929152Y-85323524D02*
X102976771Y-85418762D01*
X102976771Y-85418762D02*
X103024390Y-85466381D01*
X103024390Y-85466381D02*
X103119628Y-85514000D01*
X103119628Y-85514000D02*
X103405342Y-85514000D01*
X103405342Y-85514000D02*
X103500580Y-85466381D01*
X103500580Y-85466381D02*
X103548200Y-85418762D01*
X103548200Y-85418762D02*
X103595819Y-85323524D01*
X103595819Y-85323524D02*
X103595819Y-85180667D01*
X102929152Y-85942572D02*
X103595819Y-85942572D01*
X103024390Y-85942572D02*
X102976771Y-85990191D01*
X102976771Y-85990191D02*
X102929152Y-86085429D01*
X102929152Y-86085429D02*
X102929152Y-86228286D01*
X102929152Y-86228286D02*
X102976771Y-86323524D01*
X102976771Y-86323524D02*
X103072009Y-86371143D01*
X103072009Y-86371143D02*
X103595819Y-86371143D01*
X102929152Y-86752096D02*
X103595819Y-86990191D01*
X102929152Y-87228286D02*
X103595819Y-86990191D01*
X103595819Y-86990191D02*
X103833914Y-86894953D01*
X103833914Y-86894953D02*
X103881533Y-86847334D01*
X103881533Y-86847334D02*
X103929152Y-86752096D01*
X50730000Y-81847000D02*
X53270000Y-81847000D01*
X53270000Y-84302500D01*
X50730000Y-84302500D01*
X50730000Y-81847000D01*
G36*
X50730000Y-81847000D02*
G01*
X53270000Y-81847000D01*
X53270000Y-84302500D01*
X50730000Y-84302500D01*
X50730000Y-81847000D01*
G37*
D11*
X106444323Y-80577000D02*
G75*
G02*
X104155677Y-80577000I-1144323J0D01*
G01*
X104155677Y-80577000D02*
G75*
G02*
X106444323Y-80577000I1144323J0D01*
G01*
X84444323Y-80577000D02*
G75*
G02*
X82155677Y-80577000I-1144323J0D01*
G01*
X82155677Y-80577000D02*
G75*
G02*
X84444323Y-80577000I1144323J0D01*
G01*
D10*
X81595819Y-82371142D02*
X81595819Y-81894952D01*
X81595819Y-81894952D02*
X80595819Y-81894952D01*
X81548200Y-83085428D02*
X81595819Y-82990190D01*
X81595819Y-82990190D02*
X81595819Y-82799714D01*
X81595819Y-82799714D02*
X81548200Y-82704476D01*
X81548200Y-82704476D02*
X81452961Y-82656857D01*
X81452961Y-82656857D02*
X81072009Y-82656857D01*
X81072009Y-82656857D02*
X80976771Y-82704476D01*
X80976771Y-82704476D02*
X80929152Y-82799714D01*
X80929152Y-82799714D02*
X80929152Y-82990190D01*
X80929152Y-82990190D02*
X80976771Y-83085428D01*
X80976771Y-83085428D02*
X81072009Y-83133047D01*
X81072009Y-83133047D02*
X81167247Y-83133047D01*
X81167247Y-83133047D02*
X81262485Y-82656857D01*
X81595819Y-83990190D02*
X81072009Y-83990190D01*
X81072009Y-83990190D02*
X80976771Y-83942571D01*
X80976771Y-83942571D02*
X80929152Y-83847333D01*
X80929152Y-83847333D02*
X80929152Y-83656857D01*
X80929152Y-83656857D02*
X80976771Y-83561619D01*
X81548200Y-83990190D02*
X81595819Y-83894952D01*
X81595819Y-83894952D02*
X81595819Y-83656857D01*
X81595819Y-83656857D02*
X81548200Y-83561619D01*
X81548200Y-83561619D02*
X81452961Y-83514000D01*
X81452961Y-83514000D02*
X81357723Y-83514000D01*
X81357723Y-83514000D02*
X81262485Y-83561619D01*
X81262485Y-83561619D02*
X81214866Y-83656857D01*
X81214866Y-83656857D02*
X81214866Y-83894952D01*
X81214866Y-83894952D02*
X81167247Y-83990190D01*
X80929152Y-84323524D02*
X80929152Y-84704476D01*
X81595819Y-84466381D02*
X80738676Y-84466381D01*
X80738676Y-84466381D02*
X80643438Y-84514000D01*
X80643438Y-84514000D02*
X80595819Y-84609238D01*
X80595819Y-84609238D02*
X80595819Y-84704476D01*
X81595819Y-85180667D02*
X81548200Y-85085429D01*
X81548200Y-85085429D02*
X81500580Y-85037810D01*
X81500580Y-85037810D02*
X81405342Y-84990191D01*
X81405342Y-84990191D02*
X81119628Y-84990191D01*
X81119628Y-84990191D02*
X81024390Y-85037810D01*
X81024390Y-85037810D02*
X80976771Y-85085429D01*
X80976771Y-85085429D02*
X80929152Y-85180667D01*
X80929152Y-85180667D02*
X80929152Y-85323524D01*
X80929152Y-85323524D02*
X80976771Y-85418762D01*
X80976771Y-85418762D02*
X81024390Y-85466381D01*
X81024390Y-85466381D02*
X81119628Y-85514000D01*
X81119628Y-85514000D02*
X81405342Y-85514000D01*
X81405342Y-85514000D02*
X81500580Y-85466381D01*
X81500580Y-85466381D02*
X81548200Y-85418762D01*
X81548200Y-85418762D02*
X81595819Y-85323524D01*
X81595819Y-85323524D02*
X81595819Y-85180667D01*
X80929152Y-85942572D02*
X81595819Y-85942572D01*
X81024390Y-85942572D02*
X80976771Y-85990191D01*
X80976771Y-85990191D02*
X80929152Y-86085429D01*
X80929152Y-86085429D02*
X80929152Y-86228286D01*
X80929152Y-86228286D02*
X80976771Y-86323524D01*
X80976771Y-86323524D02*
X81072009Y-86371143D01*
X81072009Y-86371143D02*
X81595819Y-86371143D01*
X80929152Y-86752096D02*
X81595819Y-86990191D01*
X80929152Y-87228286D02*
X81595819Y-86990191D01*
X81595819Y-86990191D02*
X81833914Y-86894953D01*
X81833914Y-86894953D02*
X81881533Y-86847334D01*
X81881533Y-86847334D02*
X81929152Y-86752096D01*
X98455104Y-80395095D02*
X98455104Y-80871285D01*
X98740819Y-80299857D02*
X97740819Y-80633190D01*
X97740819Y-80633190D02*
X98740819Y-80966523D01*
X97740819Y-81204619D02*
X98740819Y-81871285D01*
X97740819Y-81871285D02*
X98740819Y-81204619D01*
X97740819Y-82442714D02*
X97740819Y-82537952D01*
X97740819Y-82537952D02*
X97788438Y-82633190D01*
X97788438Y-82633190D02*
X97836057Y-82680809D01*
X97836057Y-82680809D02*
X97931295Y-82728428D01*
X97931295Y-82728428D02*
X98121771Y-82776047D01*
X98121771Y-82776047D02*
X98359866Y-82776047D01*
X98359866Y-82776047D02*
X98550342Y-82728428D01*
X98550342Y-82728428D02*
X98645580Y-82680809D01*
X98645580Y-82680809D02*
X98693200Y-82633190D01*
X98693200Y-82633190D02*
X98740819Y-82537952D01*
X98740819Y-82537952D02*
X98740819Y-82442714D01*
X98740819Y-82442714D02*
X98693200Y-82347476D01*
X98693200Y-82347476D02*
X98645580Y-82299857D01*
X98645580Y-82299857D02*
X98550342Y-82252238D01*
X98550342Y-82252238D02*
X98359866Y-82204619D01*
X98359866Y-82204619D02*
X98121771Y-82204619D01*
X98121771Y-82204619D02*
X97931295Y-82252238D01*
X97931295Y-82252238D02*
X97836057Y-82299857D01*
X97836057Y-82299857D02*
X97788438Y-82347476D01*
X97788438Y-82347476D02*
X97740819Y-82442714D01*
X97836057Y-83157000D02*
X97788438Y-83204619D01*
X97788438Y-83204619D02*
X97740819Y-83299857D01*
X97740819Y-83299857D02*
X97740819Y-83537952D01*
X97740819Y-83537952D02*
X97788438Y-83633190D01*
X97788438Y-83633190D02*
X97836057Y-83680809D01*
X97836057Y-83680809D02*
X97931295Y-83728428D01*
X97931295Y-83728428D02*
X98026533Y-83728428D01*
X98026533Y-83728428D02*
X98169390Y-83680809D01*
X98169390Y-83680809D02*
X98740819Y-83109381D01*
X98740819Y-83109381D02*
X98740819Y-83728428D01*
X98217009Y-84490333D02*
X98264628Y-84633190D01*
X98264628Y-84633190D02*
X98312247Y-84680809D01*
X98312247Y-84680809D02*
X98407485Y-84728428D01*
X98407485Y-84728428D02*
X98550342Y-84728428D01*
X98550342Y-84728428D02*
X98645580Y-84680809D01*
X98645580Y-84680809D02*
X98693200Y-84633190D01*
X98693200Y-84633190D02*
X98740819Y-84537952D01*
X98740819Y-84537952D02*
X98740819Y-84157000D01*
X98740819Y-84157000D02*
X97740819Y-84157000D01*
X97740819Y-84157000D02*
X97740819Y-84490333D01*
X97740819Y-84490333D02*
X97788438Y-84585571D01*
X97788438Y-84585571D02*
X97836057Y-84633190D01*
X97836057Y-84633190D02*
X97931295Y-84680809D01*
X97931295Y-84680809D02*
X98026533Y-84680809D01*
X98026533Y-84680809D02*
X98121771Y-84633190D01*
X98121771Y-84633190D02*
X98169390Y-84585571D01*
X98169390Y-84585571D02*
X98217009Y-84490333D01*
X98217009Y-84490333D02*
X98217009Y-84157000D01*
X97836057Y-85871286D02*
X97788438Y-85918905D01*
X97788438Y-85918905D02*
X97740819Y-86014143D01*
X97740819Y-86014143D02*
X97740819Y-86252238D01*
X97740819Y-86252238D02*
X97788438Y-86347476D01*
X97788438Y-86347476D02*
X97836057Y-86395095D01*
X97836057Y-86395095D02*
X97931295Y-86442714D01*
X97931295Y-86442714D02*
X98026533Y-86442714D01*
X98026533Y-86442714D02*
X98169390Y-86395095D01*
X98169390Y-86395095D02*
X98740819Y-85823667D01*
X98740819Y-85823667D02*
X98740819Y-86442714D01*
X98740819Y-86918905D02*
X98740819Y-87109381D01*
X98740819Y-87109381D02*
X98693200Y-87204619D01*
X98693200Y-87204619D02*
X98645580Y-87252238D01*
X98645580Y-87252238D02*
X98502723Y-87347476D01*
X98502723Y-87347476D02*
X98312247Y-87395095D01*
X98312247Y-87395095D02*
X97931295Y-87395095D01*
X97931295Y-87395095D02*
X97836057Y-87347476D01*
X97836057Y-87347476D02*
X97788438Y-87299857D01*
X97788438Y-87299857D02*
X97740819Y-87204619D01*
X97740819Y-87204619D02*
X97740819Y-87014143D01*
X97740819Y-87014143D02*
X97788438Y-86918905D01*
X97788438Y-86918905D02*
X97836057Y-86871286D01*
X97836057Y-86871286D02*
X97931295Y-86823667D01*
X97931295Y-86823667D02*
X98169390Y-86823667D01*
X98169390Y-86823667D02*
X98264628Y-86871286D01*
X98264628Y-86871286D02*
X98312247Y-86918905D01*
X98312247Y-86918905D02*
X98359866Y-87014143D01*
X98359866Y-87014143D02*
X98359866Y-87204619D01*
X98359866Y-87204619D02*
X98312247Y-87299857D01*
X98312247Y-87299857D02*
X98264628Y-87347476D01*
X98264628Y-87347476D02*
X98169390Y-87395095D01*
X98359866Y-87823667D02*
X98359866Y-88585572D01*
X98074152Y-89061762D02*
X99074152Y-89061762D01*
X98121771Y-89061762D02*
X98074152Y-89157000D01*
X98074152Y-89157000D02*
X98074152Y-89347476D01*
X98074152Y-89347476D02*
X98121771Y-89442714D01*
X98121771Y-89442714D02*
X98169390Y-89490333D01*
X98169390Y-89490333D02*
X98264628Y-89537952D01*
X98264628Y-89537952D02*
X98550342Y-89537952D01*
X98550342Y-89537952D02*
X98645580Y-89490333D01*
X98645580Y-89490333D02*
X98693200Y-89442714D01*
X98693200Y-89442714D02*
X98740819Y-89347476D01*
X98740819Y-89347476D02*
X98740819Y-89157000D01*
X98740819Y-89157000D02*
X98693200Y-89061762D01*
X98740819Y-89966524D02*
X98074152Y-89966524D01*
X97740819Y-89966524D02*
X97788438Y-89918905D01*
X97788438Y-89918905D02*
X97836057Y-89966524D01*
X97836057Y-89966524D02*
X97788438Y-90014143D01*
X97788438Y-90014143D02*
X97740819Y-89966524D01*
X97740819Y-89966524D02*
X97836057Y-89966524D01*
X98074152Y-90442714D02*
X98740819Y-90442714D01*
X98169390Y-90442714D02*
X98121771Y-90490333D01*
X98121771Y-90490333D02*
X98074152Y-90585571D01*
X98074152Y-90585571D02*
X98074152Y-90728428D01*
X98074152Y-90728428D02*
X98121771Y-90823666D01*
X98121771Y-90823666D02*
X98217009Y-90871285D01*
X98217009Y-90871285D02*
X98740819Y-90871285D01*
D11*
X62444323Y-80577000D02*
G75*
G02*
X60155677Y-80577000I-1144323J0D01*
G01*
X60155677Y-80577000D02*
G75*
G02*
X62444323Y-80577000I1144323J0D01*
G01*
D10*
X76455104Y-80395095D02*
X76455104Y-80871285D01*
X76740819Y-80299857D02*
X75740819Y-80633190D01*
X75740819Y-80633190D02*
X76740819Y-80966523D01*
X75740819Y-81204619D02*
X76740819Y-81871285D01*
X75740819Y-81871285D02*
X76740819Y-81204619D01*
X75740819Y-82442714D02*
X75740819Y-82537952D01*
X75740819Y-82537952D02*
X75788438Y-82633190D01*
X75788438Y-82633190D02*
X75836057Y-82680809D01*
X75836057Y-82680809D02*
X75931295Y-82728428D01*
X75931295Y-82728428D02*
X76121771Y-82776047D01*
X76121771Y-82776047D02*
X76359866Y-82776047D01*
X76359866Y-82776047D02*
X76550342Y-82728428D01*
X76550342Y-82728428D02*
X76645580Y-82680809D01*
X76645580Y-82680809D02*
X76693200Y-82633190D01*
X76693200Y-82633190D02*
X76740819Y-82537952D01*
X76740819Y-82537952D02*
X76740819Y-82442714D01*
X76740819Y-82442714D02*
X76693200Y-82347476D01*
X76693200Y-82347476D02*
X76645580Y-82299857D01*
X76645580Y-82299857D02*
X76550342Y-82252238D01*
X76550342Y-82252238D02*
X76359866Y-82204619D01*
X76359866Y-82204619D02*
X76121771Y-82204619D01*
X76121771Y-82204619D02*
X75931295Y-82252238D01*
X75931295Y-82252238D02*
X75836057Y-82299857D01*
X75836057Y-82299857D02*
X75788438Y-82347476D01*
X75788438Y-82347476D02*
X75740819Y-82442714D01*
X75836057Y-83157000D02*
X75788438Y-83204619D01*
X75788438Y-83204619D02*
X75740819Y-83299857D01*
X75740819Y-83299857D02*
X75740819Y-83537952D01*
X75740819Y-83537952D02*
X75788438Y-83633190D01*
X75788438Y-83633190D02*
X75836057Y-83680809D01*
X75836057Y-83680809D02*
X75931295Y-83728428D01*
X75931295Y-83728428D02*
X76026533Y-83728428D01*
X76026533Y-83728428D02*
X76169390Y-83680809D01*
X76169390Y-83680809D02*
X76740819Y-83109381D01*
X76740819Y-83109381D02*
X76740819Y-83728428D01*
X76217009Y-84490333D02*
X76264628Y-84633190D01*
X76264628Y-84633190D02*
X76312247Y-84680809D01*
X76312247Y-84680809D02*
X76407485Y-84728428D01*
X76407485Y-84728428D02*
X76550342Y-84728428D01*
X76550342Y-84728428D02*
X76645580Y-84680809D01*
X76645580Y-84680809D02*
X76693200Y-84633190D01*
X76693200Y-84633190D02*
X76740819Y-84537952D01*
X76740819Y-84537952D02*
X76740819Y-84157000D01*
X76740819Y-84157000D02*
X75740819Y-84157000D01*
X75740819Y-84157000D02*
X75740819Y-84490333D01*
X75740819Y-84490333D02*
X75788438Y-84585571D01*
X75788438Y-84585571D02*
X75836057Y-84633190D01*
X75836057Y-84633190D02*
X75931295Y-84680809D01*
X75931295Y-84680809D02*
X76026533Y-84680809D01*
X76026533Y-84680809D02*
X76121771Y-84633190D01*
X76121771Y-84633190D02*
X76169390Y-84585571D01*
X76169390Y-84585571D02*
X76217009Y-84490333D01*
X76217009Y-84490333D02*
X76217009Y-84157000D01*
X75836057Y-85871286D02*
X75788438Y-85918905D01*
X75788438Y-85918905D02*
X75740819Y-86014143D01*
X75740819Y-86014143D02*
X75740819Y-86252238D01*
X75740819Y-86252238D02*
X75788438Y-86347476D01*
X75788438Y-86347476D02*
X75836057Y-86395095D01*
X75836057Y-86395095D02*
X75931295Y-86442714D01*
X75931295Y-86442714D02*
X76026533Y-86442714D01*
X76026533Y-86442714D02*
X76169390Y-86395095D01*
X76169390Y-86395095D02*
X76740819Y-85823667D01*
X76740819Y-85823667D02*
X76740819Y-86442714D01*
X76740819Y-86918905D02*
X76740819Y-87109381D01*
X76740819Y-87109381D02*
X76693200Y-87204619D01*
X76693200Y-87204619D02*
X76645580Y-87252238D01*
X76645580Y-87252238D02*
X76502723Y-87347476D01*
X76502723Y-87347476D02*
X76312247Y-87395095D01*
X76312247Y-87395095D02*
X75931295Y-87395095D01*
X75931295Y-87395095D02*
X75836057Y-87347476D01*
X75836057Y-87347476D02*
X75788438Y-87299857D01*
X75788438Y-87299857D02*
X75740819Y-87204619D01*
X75740819Y-87204619D02*
X75740819Y-87014143D01*
X75740819Y-87014143D02*
X75788438Y-86918905D01*
X75788438Y-86918905D02*
X75836057Y-86871286D01*
X75836057Y-86871286D02*
X75931295Y-86823667D01*
X75931295Y-86823667D02*
X76169390Y-86823667D01*
X76169390Y-86823667D02*
X76264628Y-86871286D01*
X76264628Y-86871286D02*
X76312247Y-86918905D01*
X76312247Y-86918905D02*
X76359866Y-87014143D01*
X76359866Y-87014143D02*
X76359866Y-87204619D01*
X76359866Y-87204619D02*
X76312247Y-87299857D01*
X76312247Y-87299857D02*
X76264628Y-87347476D01*
X76264628Y-87347476D02*
X76169390Y-87395095D01*
X76359866Y-87823667D02*
X76359866Y-88585572D01*
X76074152Y-89061762D02*
X77074152Y-89061762D01*
X76121771Y-89061762D02*
X76074152Y-89157000D01*
X76074152Y-89157000D02*
X76074152Y-89347476D01*
X76074152Y-89347476D02*
X76121771Y-89442714D01*
X76121771Y-89442714D02*
X76169390Y-89490333D01*
X76169390Y-89490333D02*
X76264628Y-89537952D01*
X76264628Y-89537952D02*
X76550342Y-89537952D01*
X76550342Y-89537952D02*
X76645580Y-89490333D01*
X76645580Y-89490333D02*
X76693200Y-89442714D01*
X76693200Y-89442714D02*
X76740819Y-89347476D01*
X76740819Y-89347476D02*
X76740819Y-89157000D01*
X76740819Y-89157000D02*
X76693200Y-89061762D01*
X76740819Y-89966524D02*
X76074152Y-89966524D01*
X75740819Y-89966524D02*
X75788438Y-89918905D01*
X75788438Y-89918905D02*
X75836057Y-89966524D01*
X75836057Y-89966524D02*
X75788438Y-90014143D01*
X75788438Y-90014143D02*
X75740819Y-89966524D01*
X75740819Y-89966524D02*
X75836057Y-89966524D01*
X76074152Y-90442714D02*
X76740819Y-90442714D01*
X76169390Y-90442714D02*
X76121771Y-90490333D01*
X76121771Y-90490333D02*
X76074152Y-90585571D01*
X76074152Y-90585571D02*
X76074152Y-90728428D01*
X76074152Y-90728428D02*
X76121771Y-90823666D01*
X76121771Y-90823666D02*
X76217009Y-90871285D01*
X76217009Y-90871285D02*
X76740819Y-90871285D01*
X120455104Y-80395095D02*
X120455104Y-80871285D01*
X120740819Y-80299857D02*
X119740819Y-80633190D01*
X119740819Y-80633190D02*
X120740819Y-80966523D01*
X119740819Y-81204619D02*
X120740819Y-81871285D01*
X119740819Y-81871285D02*
X120740819Y-81204619D01*
X119740819Y-82442714D02*
X119740819Y-82537952D01*
X119740819Y-82537952D02*
X119788438Y-82633190D01*
X119788438Y-82633190D02*
X119836057Y-82680809D01*
X119836057Y-82680809D02*
X119931295Y-82728428D01*
X119931295Y-82728428D02*
X120121771Y-82776047D01*
X120121771Y-82776047D02*
X120359866Y-82776047D01*
X120359866Y-82776047D02*
X120550342Y-82728428D01*
X120550342Y-82728428D02*
X120645580Y-82680809D01*
X120645580Y-82680809D02*
X120693200Y-82633190D01*
X120693200Y-82633190D02*
X120740819Y-82537952D01*
X120740819Y-82537952D02*
X120740819Y-82442714D01*
X120740819Y-82442714D02*
X120693200Y-82347476D01*
X120693200Y-82347476D02*
X120645580Y-82299857D01*
X120645580Y-82299857D02*
X120550342Y-82252238D01*
X120550342Y-82252238D02*
X120359866Y-82204619D01*
X120359866Y-82204619D02*
X120121771Y-82204619D01*
X120121771Y-82204619D02*
X119931295Y-82252238D01*
X119931295Y-82252238D02*
X119836057Y-82299857D01*
X119836057Y-82299857D02*
X119788438Y-82347476D01*
X119788438Y-82347476D02*
X119740819Y-82442714D01*
X119836057Y-83157000D02*
X119788438Y-83204619D01*
X119788438Y-83204619D02*
X119740819Y-83299857D01*
X119740819Y-83299857D02*
X119740819Y-83537952D01*
X119740819Y-83537952D02*
X119788438Y-83633190D01*
X119788438Y-83633190D02*
X119836057Y-83680809D01*
X119836057Y-83680809D02*
X119931295Y-83728428D01*
X119931295Y-83728428D02*
X120026533Y-83728428D01*
X120026533Y-83728428D02*
X120169390Y-83680809D01*
X120169390Y-83680809D02*
X120740819Y-83109381D01*
X120740819Y-83109381D02*
X120740819Y-83728428D01*
X120217009Y-84490333D02*
X120264628Y-84633190D01*
X120264628Y-84633190D02*
X120312247Y-84680809D01*
X120312247Y-84680809D02*
X120407485Y-84728428D01*
X120407485Y-84728428D02*
X120550342Y-84728428D01*
X120550342Y-84728428D02*
X120645580Y-84680809D01*
X120645580Y-84680809D02*
X120693200Y-84633190D01*
X120693200Y-84633190D02*
X120740819Y-84537952D01*
X120740819Y-84537952D02*
X120740819Y-84157000D01*
X120740819Y-84157000D02*
X119740819Y-84157000D01*
X119740819Y-84157000D02*
X119740819Y-84490333D01*
X119740819Y-84490333D02*
X119788438Y-84585571D01*
X119788438Y-84585571D02*
X119836057Y-84633190D01*
X119836057Y-84633190D02*
X119931295Y-84680809D01*
X119931295Y-84680809D02*
X120026533Y-84680809D01*
X120026533Y-84680809D02*
X120121771Y-84633190D01*
X120121771Y-84633190D02*
X120169390Y-84585571D01*
X120169390Y-84585571D02*
X120217009Y-84490333D01*
X120217009Y-84490333D02*
X120217009Y-84157000D01*
X119836057Y-85871286D02*
X119788438Y-85918905D01*
X119788438Y-85918905D02*
X119740819Y-86014143D01*
X119740819Y-86014143D02*
X119740819Y-86252238D01*
X119740819Y-86252238D02*
X119788438Y-86347476D01*
X119788438Y-86347476D02*
X119836057Y-86395095D01*
X119836057Y-86395095D02*
X119931295Y-86442714D01*
X119931295Y-86442714D02*
X120026533Y-86442714D01*
X120026533Y-86442714D02*
X120169390Y-86395095D01*
X120169390Y-86395095D02*
X120740819Y-85823667D01*
X120740819Y-85823667D02*
X120740819Y-86442714D01*
X120740819Y-86918905D02*
X120740819Y-87109381D01*
X120740819Y-87109381D02*
X120693200Y-87204619D01*
X120693200Y-87204619D02*
X120645580Y-87252238D01*
X120645580Y-87252238D02*
X120502723Y-87347476D01*
X120502723Y-87347476D02*
X120312247Y-87395095D01*
X120312247Y-87395095D02*
X119931295Y-87395095D01*
X119931295Y-87395095D02*
X119836057Y-87347476D01*
X119836057Y-87347476D02*
X119788438Y-87299857D01*
X119788438Y-87299857D02*
X119740819Y-87204619D01*
X119740819Y-87204619D02*
X119740819Y-87014143D01*
X119740819Y-87014143D02*
X119788438Y-86918905D01*
X119788438Y-86918905D02*
X119836057Y-86871286D01*
X119836057Y-86871286D02*
X119931295Y-86823667D01*
X119931295Y-86823667D02*
X120169390Y-86823667D01*
X120169390Y-86823667D02*
X120264628Y-86871286D01*
X120264628Y-86871286D02*
X120312247Y-86918905D01*
X120312247Y-86918905D02*
X120359866Y-87014143D01*
X120359866Y-87014143D02*
X120359866Y-87204619D01*
X120359866Y-87204619D02*
X120312247Y-87299857D01*
X120312247Y-87299857D02*
X120264628Y-87347476D01*
X120264628Y-87347476D02*
X120169390Y-87395095D01*
X120359866Y-87823667D02*
X120359866Y-88585572D01*
X120074152Y-89061762D02*
X121074152Y-89061762D01*
X120121771Y-89061762D02*
X120074152Y-89157000D01*
X120074152Y-89157000D02*
X120074152Y-89347476D01*
X120074152Y-89347476D02*
X120121771Y-89442714D01*
X120121771Y-89442714D02*
X120169390Y-89490333D01*
X120169390Y-89490333D02*
X120264628Y-89537952D01*
X120264628Y-89537952D02*
X120550342Y-89537952D01*
X120550342Y-89537952D02*
X120645580Y-89490333D01*
X120645580Y-89490333D02*
X120693200Y-89442714D01*
X120693200Y-89442714D02*
X120740819Y-89347476D01*
X120740819Y-89347476D02*
X120740819Y-89157000D01*
X120740819Y-89157000D02*
X120693200Y-89061762D01*
X120740819Y-89966524D02*
X120074152Y-89966524D01*
X119740819Y-89966524D02*
X119788438Y-89918905D01*
X119788438Y-89918905D02*
X119836057Y-89966524D01*
X119836057Y-89966524D02*
X119788438Y-90014143D01*
X119788438Y-90014143D02*
X119740819Y-89966524D01*
X119740819Y-89966524D02*
X119836057Y-89966524D01*
X120074152Y-90442714D02*
X120740819Y-90442714D01*
X120169390Y-90442714D02*
X120121771Y-90490333D01*
X120121771Y-90490333D02*
X120074152Y-90585571D01*
X120074152Y-90585571D02*
X120074152Y-90728428D01*
X120074152Y-90728428D02*
X120121771Y-90823666D01*
X120121771Y-90823666D02*
X120217009Y-90871285D01*
X120217009Y-90871285D02*
X120740819Y-90871285D01*
X120455104Y-51395095D02*
X120455104Y-51871285D01*
X120740819Y-51299857D02*
X119740819Y-51633190D01*
X119740819Y-51633190D02*
X120740819Y-51966523D01*
X119740819Y-52204619D02*
X120740819Y-52871285D01*
X119740819Y-52871285D02*
X120740819Y-52204619D01*
X119740819Y-53442714D02*
X119740819Y-53537952D01*
X119740819Y-53537952D02*
X119788438Y-53633190D01*
X119788438Y-53633190D02*
X119836057Y-53680809D01*
X119836057Y-53680809D02*
X119931295Y-53728428D01*
X119931295Y-53728428D02*
X120121771Y-53776047D01*
X120121771Y-53776047D02*
X120359866Y-53776047D01*
X120359866Y-53776047D02*
X120550342Y-53728428D01*
X120550342Y-53728428D02*
X120645580Y-53680809D01*
X120645580Y-53680809D02*
X120693200Y-53633190D01*
X120693200Y-53633190D02*
X120740819Y-53537952D01*
X120740819Y-53537952D02*
X120740819Y-53442714D01*
X120740819Y-53442714D02*
X120693200Y-53347476D01*
X120693200Y-53347476D02*
X120645580Y-53299857D01*
X120645580Y-53299857D02*
X120550342Y-53252238D01*
X120550342Y-53252238D02*
X120359866Y-53204619D01*
X120359866Y-53204619D02*
X120121771Y-53204619D01*
X120121771Y-53204619D02*
X119931295Y-53252238D01*
X119931295Y-53252238D02*
X119836057Y-53299857D01*
X119836057Y-53299857D02*
X119788438Y-53347476D01*
X119788438Y-53347476D02*
X119740819Y-53442714D01*
X119836057Y-54157000D02*
X119788438Y-54204619D01*
X119788438Y-54204619D02*
X119740819Y-54299857D01*
X119740819Y-54299857D02*
X119740819Y-54537952D01*
X119740819Y-54537952D02*
X119788438Y-54633190D01*
X119788438Y-54633190D02*
X119836057Y-54680809D01*
X119836057Y-54680809D02*
X119931295Y-54728428D01*
X119931295Y-54728428D02*
X120026533Y-54728428D01*
X120026533Y-54728428D02*
X120169390Y-54680809D01*
X120169390Y-54680809D02*
X120740819Y-54109381D01*
X120740819Y-54109381D02*
X120740819Y-54728428D01*
X120217009Y-55490333D02*
X120264628Y-55633190D01*
X120264628Y-55633190D02*
X120312247Y-55680809D01*
X120312247Y-55680809D02*
X120407485Y-55728428D01*
X120407485Y-55728428D02*
X120550342Y-55728428D01*
X120550342Y-55728428D02*
X120645580Y-55680809D01*
X120645580Y-55680809D02*
X120693200Y-55633190D01*
X120693200Y-55633190D02*
X120740819Y-55537952D01*
X120740819Y-55537952D02*
X120740819Y-55157000D01*
X120740819Y-55157000D02*
X119740819Y-55157000D01*
X119740819Y-55157000D02*
X119740819Y-55490333D01*
X119740819Y-55490333D02*
X119788438Y-55585571D01*
X119788438Y-55585571D02*
X119836057Y-55633190D01*
X119836057Y-55633190D02*
X119931295Y-55680809D01*
X119931295Y-55680809D02*
X120026533Y-55680809D01*
X120026533Y-55680809D02*
X120121771Y-55633190D01*
X120121771Y-55633190D02*
X120169390Y-55585571D01*
X120169390Y-55585571D02*
X120217009Y-55490333D01*
X120217009Y-55490333D02*
X120217009Y-55157000D01*
X119836057Y-56871286D02*
X119788438Y-56918905D01*
X119788438Y-56918905D02*
X119740819Y-57014143D01*
X119740819Y-57014143D02*
X119740819Y-57252238D01*
X119740819Y-57252238D02*
X119788438Y-57347476D01*
X119788438Y-57347476D02*
X119836057Y-57395095D01*
X119836057Y-57395095D02*
X119931295Y-57442714D01*
X119931295Y-57442714D02*
X120026533Y-57442714D01*
X120026533Y-57442714D02*
X120169390Y-57395095D01*
X120169390Y-57395095D02*
X120740819Y-56823667D01*
X120740819Y-56823667D02*
X120740819Y-57442714D01*
X120740819Y-57918905D02*
X120740819Y-58109381D01*
X120740819Y-58109381D02*
X120693200Y-58204619D01*
X120693200Y-58204619D02*
X120645580Y-58252238D01*
X120645580Y-58252238D02*
X120502723Y-58347476D01*
X120502723Y-58347476D02*
X120312247Y-58395095D01*
X120312247Y-58395095D02*
X119931295Y-58395095D01*
X119931295Y-58395095D02*
X119836057Y-58347476D01*
X119836057Y-58347476D02*
X119788438Y-58299857D01*
X119788438Y-58299857D02*
X119740819Y-58204619D01*
X119740819Y-58204619D02*
X119740819Y-58014143D01*
X119740819Y-58014143D02*
X119788438Y-57918905D01*
X119788438Y-57918905D02*
X119836057Y-57871286D01*
X119836057Y-57871286D02*
X119931295Y-57823667D01*
X119931295Y-57823667D02*
X120169390Y-57823667D01*
X120169390Y-57823667D02*
X120264628Y-57871286D01*
X120264628Y-57871286D02*
X120312247Y-57918905D01*
X120312247Y-57918905D02*
X120359866Y-58014143D01*
X120359866Y-58014143D02*
X120359866Y-58204619D01*
X120359866Y-58204619D02*
X120312247Y-58299857D01*
X120312247Y-58299857D02*
X120264628Y-58347476D01*
X120264628Y-58347476D02*
X120169390Y-58395095D01*
X120359866Y-58823667D02*
X120359866Y-59585572D01*
X120074152Y-60061762D02*
X121074152Y-60061762D01*
X120121771Y-60061762D02*
X120074152Y-60157000D01*
X120074152Y-60157000D02*
X120074152Y-60347476D01*
X120074152Y-60347476D02*
X120121771Y-60442714D01*
X120121771Y-60442714D02*
X120169390Y-60490333D01*
X120169390Y-60490333D02*
X120264628Y-60537952D01*
X120264628Y-60537952D02*
X120550342Y-60537952D01*
X120550342Y-60537952D02*
X120645580Y-60490333D01*
X120645580Y-60490333D02*
X120693200Y-60442714D01*
X120693200Y-60442714D02*
X120740819Y-60347476D01*
X120740819Y-60347476D02*
X120740819Y-60157000D01*
X120740819Y-60157000D02*
X120693200Y-60061762D01*
X120740819Y-60966524D02*
X120074152Y-60966524D01*
X119740819Y-60966524D02*
X119788438Y-60918905D01*
X119788438Y-60918905D02*
X119836057Y-60966524D01*
X119836057Y-60966524D02*
X119788438Y-61014143D01*
X119788438Y-61014143D02*
X119740819Y-60966524D01*
X119740819Y-60966524D02*
X119836057Y-60966524D01*
X120074152Y-61442714D02*
X120740819Y-61442714D01*
X120169390Y-61442714D02*
X120121771Y-61490333D01*
X120121771Y-61490333D02*
X120074152Y-61585571D01*
X120074152Y-61585571D02*
X120074152Y-61728428D01*
X120074152Y-61728428D02*
X120121771Y-61823666D01*
X120121771Y-61823666D02*
X120217009Y-61871285D01*
X120217009Y-61871285D02*
X120740819Y-61871285D01*
D11*
X106444323Y-51577000D02*
G75*
G02*
X104155677Y-51577000I-1144323J0D01*
G01*
X104155677Y-51577000D02*
G75*
G02*
X106444323Y-51577000I1144323J0D01*
G01*
D10*
X103595819Y-53371142D02*
X103595819Y-52894952D01*
X103595819Y-52894952D02*
X102595819Y-52894952D01*
X103548200Y-54085428D02*
X103595819Y-53990190D01*
X103595819Y-53990190D02*
X103595819Y-53799714D01*
X103595819Y-53799714D02*
X103548200Y-53704476D01*
X103548200Y-53704476D02*
X103452961Y-53656857D01*
X103452961Y-53656857D02*
X103072009Y-53656857D01*
X103072009Y-53656857D02*
X102976771Y-53704476D01*
X102976771Y-53704476D02*
X102929152Y-53799714D01*
X102929152Y-53799714D02*
X102929152Y-53990190D01*
X102929152Y-53990190D02*
X102976771Y-54085428D01*
X102976771Y-54085428D02*
X103072009Y-54133047D01*
X103072009Y-54133047D02*
X103167247Y-54133047D01*
X103167247Y-54133047D02*
X103262485Y-53656857D01*
X103595819Y-54990190D02*
X103072009Y-54990190D01*
X103072009Y-54990190D02*
X102976771Y-54942571D01*
X102976771Y-54942571D02*
X102929152Y-54847333D01*
X102929152Y-54847333D02*
X102929152Y-54656857D01*
X102929152Y-54656857D02*
X102976771Y-54561619D01*
X103548200Y-54990190D02*
X103595819Y-54894952D01*
X103595819Y-54894952D02*
X103595819Y-54656857D01*
X103595819Y-54656857D02*
X103548200Y-54561619D01*
X103548200Y-54561619D02*
X103452961Y-54514000D01*
X103452961Y-54514000D02*
X103357723Y-54514000D01*
X103357723Y-54514000D02*
X103262485Y-54561619D01*
X103262485Y-54561619D02*
X103214866Y-54656857D01*
X103214866Y-54656857D02*
X103214866Y-54894952D01*
X103214866Y-54894952D02*
X103167247Y-54990190D01*
X102929152Y-55323524D02*
X102929152Y-55704476D01*
X103595819Y-55466381D02*
X102738676Y-55466381D01*
X102738676Y-55466381D02*
X102643438Y-55514000D01*
X102643438Y-55514000D02*
X102595819Y-55609238D01*
X102595819Y-55609238D02*
X102595819Y-55704476D01*
X103595819Y-56180667D02*
X103548200Y-56085429D01*
X103548200Y-56085429D02*
X103500580Y-56037810D01*
X103500580Y-56037810D02*
X103405342Y-55990191D01*
X103405342Y-55990191D02*
X103119628Y-55990191D01*
X103119628Y-55990191D02*
X103024390Y-56037810D01*
X103024390Y-56037810D02*
X102976771Y-56085429D01*
X102976771Y-56085429D02*
X102929152Y-56180667D01*
X102929152Y-56180667D02*
X102929152Y-56323524D01*
X102929152Y-56323524D02*
X102976771Y-56418762D01*
X102976771Y-56418762D02*
X103024390Y-56466381D01*
X103024390Y-56466381D02*
X103119628Y-56514000D01*
X103119628Y-56514000D02*
X103405342Y-56514000D01*
X103405342Y-56514000D02*
X103500580Y-56466381D01*
X103500580Y-56466381D02*
X103548200Y-56418762D01*
X103548200Y-56418762D02*
X103595819Y-56323524D01*
X103595819Y-56323524D02*
X103595819Y-56180667D01*
X102929152Y-56942572D02*
X103595819Y-56942572D01*
X103024390Y-56942572D02*
X102976771Y-56990191D01*
X102976771Y-56990191D02*
X102929152Y-57085429D01*
X102929152Y-57085429D02*
X102929152Y-57228286D01*
X102929152Y-57228286D02*
X102976771Y-57323524D01*
X102976771Y-57323524D02*
X103072009Y-57371143D01*
X103072009Y-57371143D02*
X103595819Y-57371143D01*
X102929152Y-57752096D02*
X103595819Y-57990191D01*
X102929152Y-58228286D02*
X103595819Y-57990191D01*
X103595819Y-57990191D02*
X103833914Y-57894953D01*
X103833914Y-57894953D02*
X103881533Y-57847334D01*
X103881533Y-57847334D02*
X103929152Y-57752096D01*
X116730000Y-52847000D02*
X119270000Y-52847000D01*
X119270000Y-55302500D01*
X116730000Y-55302500D01*
X116730000Y-52847000D01*
G36*
X116730000Y-52847000D02*
G01*
X119270000Y-52847000D01*
X119270000Y-55302500D01*
X116730000Y-55302500D01*
X116730000Y-52847000D01*
G37*
X98455104Y-51395095D02*
X98455104Y-51871285D01*
X98740819Y-51299857D02*
X97740819Y-51633190D01*
X97740819Y-51633190D02*
X98740819Y-51966523D01*
X97740819Y-52204619D02*
X98740819Y-52871285D01*
X97740819Y-52871285D02*
X98740819Y-52204619D01*
X97740819Y-53442714D02*
X97740819Y-53537952D01*
X97740819Y-53537952D02*
X97788438Y-53633190D01*
X97788438Y-53633190D02*
X97836057Y-53680809D01*
X97836057Y-53680809D02*
X97931295Y-53728428D01*
X97931295Y-53728428D02*
X98121771Y-53776047D01*
X98121771Y-53776047D02*
X98359866Y-53776047D01*
X98359866Y-53776047D02*
X98550342Y-53728428D01*
X98550342Y-53728428D02*
X98645580Y-53680809D01*
X98645580Y-53680809D02*
X98693200Y-53633190D01*
X98693200Y-53633190D02*
X98740819Y-53537952D01*
X98740819Y-53537952D02*
X98740819Y-53442714D01*
X98740819Y-53442714D02*
X98693200Y-53347476D01*
X98693200Y-53347476D02*
X98645580Y-53299857D01*
X98645580Y-53299857D02*
X98550342Y-53252238D01*
X98550342Y-53252238D02*
X98359866Y-53204619D01*
X98359866Y-53204619D02*
X98121771Y-53204619D01*
X98121771Y-53204619D02*
X97931295Y-53252238D01*
X97931295Y-53252238D02*
X97836057Y-53299857D01*
X97836057Y-53299857D02*
X97788438Y-53347476D01*
X97788438Y-53347476D02*
X97740819Y-53442714D01*
X97836057Y-54157000D02*
X97788438Y-54204619D01*
X97788438Y-54204619D02*
X97740819Y-54299857D01*
X97740819Y-54299857D02*
X97740819Y-54537952D01*
X97740819Y-54537952D02*
X97788438Y-54633190D01*
X97788438Y-54633190D02*
X97836057Y-54680809D01*
X97836057Y-54680809D02*
X97931295Y-54728428D01*
X97931295Y-54728428D02*
X98026533Y-54728428D01*
X98026533Y-54728428D02*
X98169390Y-54680809D01*
X98169390Y-54680809D02*
X98740819Y-54109381D01*
X98740819Y-54109381D02*
X98740819Y-54728428D01*
X98217009Y-55490333D02*
X98264628Y-55633190D01*
X98264628Y-55633190D02*
X98312247Y-55680809D01*
X98312247Y-55680809D02*
X98407485Y-55728428D01*
X98407485Y-55728428D02*
X98550342Y-55728428D01*
X98550342Y-55728428D02*
X98645580Y-55680809D01*
X98645580Y-55680809D02*
X98693200Y-55633190D01*
X98693200Y-55633190D02*
X98740819Y-55537952D01*
X98740819Y-55537952D02*
X98740819Y-55157000D01*
X98740819Y-55157000D02*
X97740819Y-55157000D01*
X97740819Y-55157000D02*
X97740819Y-55490333D01*
X97740819Y-55490333D02*
X97788438Y-55585571D01*
X97788438Y-55585571D02*
X97836057Y-55633190D01*
X97836057Y-55633190D02*
X97931295Y-55680809D01*
X97931295Y-55680809D02*
X98026533Y-55680809D01*
X98026533Y-55680809D02*
X98121771Y-55633190D01*
X98121771Y-55633190D02*
X98169390Y-55585571D01*
X98169390Y-55585571D02*
X98217009Y-55490333D01*
X98217009Y-55490333D02*
X98217009Y-55157000D01*
X97836057Y-56871286D02*
X97788438Y-56918905D01*
X97788438Y-56918905D02*
X97740819Y-57014143D01*
X97740819Y-57014143D02*
X97740819Y-57252238D01*
X97740819Y-57252238D02*
X97788438Y-57347476D01*
X97788438Y-57347476D02*
X97836057Y-57395095D01*
X97836057Y-57395095D02*
X97931295Y-57442714D01*
X97931295Y-57442714D02*
X98026533Y-57442714D01*
X98026533Y-57442714D02*
X98169390Y-57395095D01*
X98169390Y-57395095D02*
X98740819Y-56823667D01*
X98740819Y-56823667D02*
X98740819Y-57442714D01*
X98740819Y-57918905D02*
X98740819Y-58109381D01*
X98740819Y-58109381D02*
X98693200Y-58204619D01*
X98693200Y-58204619D02*
X98645580Y-58252238D01*
X98645580Y-58252238D02*
X98502723Y-58347476D01*
X98502723Y-58347476D02*
X98312247Y-58395095D01*
X98312247Y-58395095D02*
X97931295Y-58395095D01*
X97931295Y-58395095D02*
X97836057Y-58347476D01*
X97836057Y-58347476D02*
X97788438Y-58299857D01*
X97788438Y-58299857D02*
X97740819Y-58204619D01*
X97740819Y-58204619D02*
X97740819Y-58014143D01*
X97740819Y-58014143D02*
X97788438Y-57918905D01*
X97788438Y-57918905D02*
X97836057Y-57871286D01*
X97836057Y-57871286D02*
X97931295Y-57823667D01*
X97931295Y-57823667D02*
X98169390Y-57823667D01*
X98169390Y-57823667D02*
X98264628Y-57871286D01*
X98264628Y-57871286D02*
X98312247Y-57918905D01*
X98312247Y-57918905D02*
X98359866Y-58014143D01*
X98359866Y-58014143D02*
X98359866Y-58204619D01*
X98359866Y-58204619D02*
X98312247Y-58299857D01*
X98312247Y-58299857D02*
X98264628Y-58347476D01*
X98264628Y-58347476D02*
X98169390Y-58395095D01*
X98359866Y-58823667D02*
X98359866Y-59585572D01*
X98074152Y-60061762D02*
X99074152Y-60061762D01*
X98121771Y-60061762D02*
X98074152Y-60157000D01*
X98074152Y-60157000D02*
X98074152Y-60347476D01*
X98074152Y-60347476D02*
X98121771Y-60442714D01*
X98121771Y-60442714D02*
X98169390Y-60490333D01*
X98169390Y-60490333D02*
X98264628Y-60537952D01*
X98264628Y-60537952D02*
X98550342Y-60537952D01*
X98550342Y-60537952D02*
X98645580Y-60490333D01*
X98645580Y-60490333D02*
X98693200Y-60442714D01*
X98693200Y-60442714D02*
X98740819Y-60347476D01*
X98740819Y-60347476D02*
X98740819Y-60157000D01*
X98740819Y-60157000D02*
X98693200Y-60061762D01*
X98740819Y-60966524D02*
X98074152Y-60966524D01*
X97740819Y-60966524D02*
X97788438Y-60918905D01*
X97788438Y-60918905D02*
X97836057Y-60966524D01*
X97836057Y-60966524D02*
X97788438Y-61014143D01*
X97788438Y-61014143D02*
X97740819Y-60966524D01*
X97740819Y-60966524D02*
X97836057Y-60966524D01*
X98074152Y-61442714D02*
X98740819Y-61442714D01*
X98169390Y-61442714D02*
X98121771Y-61490333D01*
X98121771Y-61490333D02*
X98074152Y-61585571D01*
X98074152Y-61585571D02*
X98074152Y-61728428D01*
X98074152Y-61728428D02*
X98121771Y-61823666D01*
X98121771Y-61823666D02*
X98217009Y-61871285D01*
X98217009Y-61871285D02*
X98740819Y-61871285D01*
D11*
X84444323Y-51577000D02*
G75*
G02*
X82155677Y-51577000I-1144323J0D01*
G01*
X82155677Y-51577000D02*
G75*
G02*
X84444323Y-51577000I1144323J0D01*
G01*
D10*
X81595819Y-53371142D02*
X81595819Y-52894952D01*
X81595819Y-52894952D02*
X80595819Y-52894952D01*
X81548200Y-54085428D02*
X81595819Y-53990190D01*
X81595819Y-53990190D02*
X81595819Y-53799714D01*
X81595819Y-53799714D02*
X81548200Y-53704476D01*
X81548200Y-53704476D02*
X81452961Y-53656857D01*
X81452961Y-53656857D02*
X81072009Y-53656857D01*
X81072009Y-53656857D02*
X80976771Y-53704476D01*
X80976771Y-53704476D02*
X80929152Y-53799714D01*
X80929152Y-53799714D02*
X80929152Y-53990190D01*
X80929152Y-53990190D02*
X80976771Y-54085428D01*
X80976771Y-54085428D02*
X81072009Y-54133047D01*
X81072009Y-54133047D02*
X81167247Y-54133047D01*
X81167247Y-54133047D02*
X81262485Y-53656857D01*
X81595819Y-54990190D02*
X81072009Y-54990190D01*
X81072009Y-54990190D02*
X80976771Y-54942571D01*
X80976771Y-54942571D02*
X80929152Y-54847333D01*
X80929152Y-54847333D02*
X80929152Y-54656857D01*
X80929152Y-54656857D02*
X80976771Y-54561619D01*
X81548200Y-54990190D02*
X81595819Y-54894952D01*
X81595819Y-54894952D02*
X81595819Y-54656857D01*
X81595819Y-54656857D02*
X81548200Y-54561619D01*
X81548200Y-54561619D02*
X81452961Y-54514000D01*
X81452961Y-54514000D02*
X81357723Y-54514000D01*
X81357723Y-54514000D02*
X81262485Y-54561619D01*
X81262485Y-54561619D02*
X81214866Y-54656857D01*
X81214866Y-54656857D02*
X81214866Y-54894952D01*
X81214866Y-54894952D02*
X81167247Y-54990190D01*
X80929152Y-55323524D02*
X80929152Y-55704476D01*
X81595819Y-55466381D02*
X80738676Y-55466381D01*
X80738676Y-55466381D02*
X80643438Y-55514000D01*
X80643438Y-55514000D02*
X80595819Y-55609238D01*
X80595819Y-55609238D02*
X80595819Y-55704476D01*
X81595819Y-56180667D02*
X81548200Y-56085429D01*
X81548200Y-56085429D02*
X81500580Y-56037810D01*
X81500580Y-56037810D02*
X81405342Y-55990191D01*
X81405342Y-55990191D02*
X81119628Y-55990191D01*
X81119628Y-55990191D02*
X81024390Y-56037810D01*
X81024390Y-56037810D02*
X80976771Y-56085429D01*
X80976771Y-56085429D02*
X80929152Y-56180667D01*
X80929152Y-56180667D02*
X80929152Y-56323524D01*
X80929152Y-56323524D02*
X80976771Y-56418762D01*
X80976771Y-56418762D02*
X81024390Y-56466381D01*
X81024390Y-56466381D02*
X81119628Y-56514000D01*
X81119628Y-56514000D02*
X81405342Y-56514000D01*
X81405342Y-56514000D02*
X81500580Y-56466381D01*
X81500580Y-56466381D02*
X81548200Y-56418762D01*
X81548200Y-56418762D02*
X81595819Y-56323524D01*
X81595819Y-56323524D02*
X81595819Y-56180667D01*
X80929152Y-56942572D02*
X81595819Y-56942572D01*
X81024390Y-56942572D02*
X80976771Y-56990191D01*
X80976771Y-56990191D02*
X80929152Y-57085429D01*
X80929152Y-57085429D02*
X80929152Y-57228286D01*
X80929152Y-57228286D02*
X80976771Y-57323524D01*
X80976771Y-57323524D02*
X81072009Y-57371143D01*
X81072009Y-57371143D02*
X81595819Y-57371143D01*
X80929152Y-57752096D02*
X81595819Y-57990191D01*
X80929152Y-58228286D02*
X81595819Y-57990191D01*
X81595819Y-57990191D02*
X81833914Y-57894953D01*
X81833914Y-57894953D02*
X81881533Y-57847334D01*
X81881533Y-57847334D02*
X81929152Y-57752096D01*
X94730000Y-52847000D02*
X97270000Y-52847000D01*
X97270000Y-55302500D01*
X94730000Y-55302500D01*
X94730000Y-52847000D01*
G36*
X94730000Y-52847000D02*
G01*
X97270000Y-52847000D01*
X97270000Y-55302500D01*
X94730000Y-55302500D01*
X94730000Y-52847000D01*
G37*
X76455104Y-51395095D02*
X76455104Y-51871285D01*
X76740819Y-51299857D02*
X75740819Y-51633190D01*
X75740819Y-51633190D02*
X76740819Y-51966523D01*
X75740819Y-52204619D02*
X76740819Y-52871285D01*
X75740819Y-52871285D02*
X76740819Y-52204619D01*
X75740819Y-53442714D02*
X75740819Y-53537952D01*
X75740819Y-53537952D02*
X75788438Y-53633190D01*
X75788438Y-53633190D02*
X75836057Y-53680809D01*
X75836057Y-53680809D02*
X75931295Y-53728428D01*
X75931295Y-53728428D02*
X76121771Y-53776047D01*
X76121771Y-53776047D02*
X76359866Y-53776047D01*
X76359866Y-53776047D02*
X76550342Y-53728428D01*
X76550342Y-53728428D02*
X76645580Y-53680809D01*
X76645580Y-53680809D02*
X76693200Y-53633190D01*
X76693200Y-53633190D02*
X76740819Y-53537952D01*
X76740819Y-53537952D02*
X76740819Y-53442714D01*
X76740819Y-53442714D02*
X76693200Y-53347476D01*
X76693200Y-53347476D02*
X76645580Y-53299857D01*
X76645580Y-53299857D02*
X76550342Y-53252238D01*
X76550342Y-53252238D02*
X76359866Y-53204619D01*
X76359866Y-53204619D02*
X76121771Y-53204619D01*
X76121771Y-53204619D02*
X75931295Y-53252238D01*
X75931295Y-53252238D02*
X75836057Y-53299857D01*
X75836057Y-53299857D02*
X75788438Y-53347476D01*
X75788438Y-53347476D02*
X75740819Y-53442714D01*
X75836057Y-54157000D02*
X75788438Y-54204619D01*
X75788438Y-54204619D02*
X75740819Y-54299857D01*
X75740819Y-54299857D02*
X75740819Y-54537952D01*
X75740819Y-54537952D02*
X75788438Y-54633190D01*
X75788438Y-54633190D02*
X75836057Y-54680809D01*
X75836057Y-54680809D02*
X75931295Y-54728428D01*
X75931295Y-54728428D02*
X76026533Y-54728428D01*
X76026533Y-54728428D02*
X76169390Y-54680809D01*
X76169390Y-54680809D02*
X76740819Y-54109381D01*
X76740819Y-54109381D02*
X76740819Y-54728428D01*
X76217009Y-55490333D02*
X76264628Y-55633190D01*
X76264628Y-55633190D02*
X76312247Y-55680809D01*
X76312247Y-55680809D02*
X76407485Y-55728428D01*
X76407485Y-55728428D02*
X76550342Y-55728428D01*
X76550342Y-55728428D02*
X76645580Y-55680809D01*
X76645580Y-55680809D02*
X76693200Y-55633190D01*
X76693200Y-55633190D02*
X76740819Y-55537952D01*
X76740819Y-55537952D02*
X76740819Y-55157000D01*
X76740819Y-55157000D02*
X75740819Y-55157000D01*
X75740819Y-55157000D02*
X75740819Y-55490333D01*
X75740819Y-55490333D02*
X75788438Y-55585571D01*
X75788438Y-55585571D02*
X75836057Y-55633190D01*
X75836057Y-55633190D02*
X75931295Y-55680809D01*
X75931295Y-55680809D02*
X76026533Y-55680809D01*
X76026533Y-55680809D02*
X76121771Y-55633190D01*
X76121771Y-55633190D02*
X76169390Y-55585571D01*
X76169390Y-55585571D02*
X76217009Y-55490333D01*
X76217009Y-55490333D02*
X76217009Y-55157000D01*
X75836057Y-56871286D02*
X75788438Y-56918905D01*
X75788438Y-56918905D02*
X75740819Y-57014143D01*
X75740819Y-57014143D02*
X75740819Y-57252238D01*
X75740819Y-57252238D02*
X75788438Y-57347476D01*
X75788438Y-57347476D02*
X75836057Y-57395095D01*
X75836057Y-57395095D02*
X75931295Y-57442714D01*
X75931295Y-57442714D02*
X76026533Y-57442714D01*
X76026533Y-57442714D02*
X76169390Y-57395095D01*
X76169390Y-57395095D02*
X76740819Y-56823667D01*
X76740819Y-56823667D02*
X76740819Y-57442714D01*
X76740819Y-57918905D02*
X76740819Y-58109381D01*
X76740819Y-58109381D02*
X76693200Y-58204619D01*
X76693200Y-58204619D02*
X76645580Y-58252238D01*
X76645580Y-58252238D02*
X76502723Y-58347476D01*
X76502723Y-58347476D02*
X76312247Y-58395095D01*
X76312247Y-58395095D02*
X75931295Y-58395095D01*
X75931295Y-58395095D02*
X75836057Y-58347476D01*
X75836057Y-58347476D02*
X75788438Y-58299857D01*
X75788438Y-58299857D02*
X75740819Y-58204619D01*
X75740819Y-58204619D02*
X75740819Y-58014143D01*
X75740819Y-58014143D02*
X75788438Y-57918905D01*
X75788438Y-57918905D02*
X75836057Y-57871286D01*
X75836057Y-57871286D02*
X75931295Y-57823667D01*
X75931295Y-57823667D02*
X76169390Y-57823667D01*
X76169390Y-57823667D02*
X76264628Y-57871286D01*
X76264628Y-57871286D02*
X76312247Y-57918905D01*
X76312247Y-57918905D02*
X76359866Y-58014143D01*
X76359866Y-58014143D02*
X76359866Y-58204619D01*
X76359866Y-58204619D02*
X76312247Y-58299857D01*
X76312247Y-58299857D02*
X76264628Y-58347476D01*
X76264628Y-58347476D02*
X76169390Y-58395095D01*
X76359866Y-58823667D02*
X76359866Y-59585572D01*
X76074152Y-60061762D02*
X77074152Y-60061762D01*
X76121771Y-60061762D02*
X76074152Y-60157000D01*
X76074152Y-60157000D02*
X76074152Y-60347476D01*
X76074152Y-60347476D02*
X76121771Y-60442714D01*
X76121771Y-60442714D02*
X76169390Y-60490333D01*
X76169390Y-60490333D02*
X76264628Y-60537952D01*
X76264628Y-60537952D02*
X76550342Y-60537952D01*
X76550342Y-60537952D02*
X76645580Y-60490333D01*
X76645580Y-60490333D02*
X76693200Y-60442714D01*
X76693200Y-60442714D02*
X76740819Y-60347476D01*
X76740819Y-60347476D02*
X76740819Y-60157000D01*
X76740819Y-60157000D02*
X76693200Y-60061762D01*
X76740819Y-60966524D02*
X76074152Y-60966524D01*
X75740819Y-60966524D02*
X75788438Y-60918905D01*
X75788438Y-60918905D02*
X75836057Y-60966524D01*
X75836057Y-60966524D02*
X75788438Y-61014143D01*
X75788438Y-61014143D02*
X75740819Y-60966524D01*
X75740819Y-60966524D02*
X75836057Y-60966524D01*
X76074152Y-61442714D02*
X76740819Y-61442714D01*
X76169390Y-61442714D02*
X76121771Y-61490333D01*
X76121771Y-61490333D02*
X76074152Y-61585571D01*
X76074152Y-61585571D02*
X76074152Y-61728428D01*
X76074152Y-61728428D02*
X76121771Y-61823666D01*
X76121771Y-61823666D02*
X76217009Y-61871285D01*
X76217009Y-61871285D02*
X76740819Y-61871285D01*
D11*
X62444323Y-51577000D02*
G75*
G02*
X60155677Y-51577000I-1144323J0D01*
G01*
X60155677Y-51577000D02*
G75*
G02*
X62444323Y-51577000I1144323J0D01*
G01*
D10*
X59595819Y-53371142D02*
X59595819Y-52894952D01*
X59595819Y-52894952D02*
X58595819Y-52894952D01*
X59548200Y-54085428D02*
X59595819Y-53990190D01*
X59595819Y-53990190D02*
X59595819Y-53799714D01*
X59595819Y-53799714D02*
X59548200Y-53704476D01*
X59548200Y-53704476D02*
X59452961Y-53656857D01*
X59452961Y-53656857D02*
X59072009Y-53656857D01*
X59072009Y-53656857D02*
X58976771Y-53704476D01*
X58976771Y-53704476D02*
X58929152Y-53799714D01*
X58929152Y-53799714D02*
X58929152Y-53990190D01*
X58929152Y-53990190D02*
X58976771Y-54085428D01*
X58976771Y-54085428D02*
X59072009Y-54133047D01*
X59072009Y-54133047D02*
X59167247Y-54133047D01*
X59167247Y-54133047D02*
X59262485Y-53656857D01*
X59595819Y-54990190D02*
X59072009Y-54990190D01*
X59072009Y-54990190D02*
X58976771Y-54942571D01*
X58976771Y-54942571D02*
X58929152Y-54847333D01*
X58929152Y-54847333D02*
X58929152Y-54656857D01*
X58929152Y-54656857D02*
X58976771Y-54561619D01*
X59548200Y-54990190D02*
X59595819Y-54894952D01*
X59595819Y-54894952D02*
X59595819Y-54656857D01*
X59595819Y-54656857D02*
X59548200Y-54561619D01*
X59548200Y-54561619D02*
X59452961Y-54514000D01*
X59452961Y-54514000D02*
X59357723Y-54514000D01*
X59357723Y-54514000D02*
X59262485Y-54561619D01*
X59262485Y-54561619D02*
X59214866Y-54656857D01*
X59214866Y-54656857D02*
X59214866Y-54894952D01*
X59214866Y-54894952D02*
X59167247Y-54990190D01*
X58929152Y-55323524D02*
X58929152Y-55704476D01*
X59595819Y-55466381D02*
X58738676Y-55466381D01*
X58738676Y-55466381D02*
X58643438Y-55514000D01*
X58643438Y-55514000D02*
X58595819Y-55609238D01*
X58595819Y-55609238D02*
X58595819Y-55704476D01*
X59595819Y-56180667D02*
X59548200Y-56085429D01*
X59548200Y-56085429D02*
X59500580Y-56037810D01*
X59500580Y-56037810D02*
X59405342Y-55990191D01*
X59405342Y-55990191D02*
X59119628Y-55990191D01*
X59119628Y-55990191D02*
X59024390Y-56037810D01*
X59024390Y-56037810D02*
X58976771Y-56085429D01*
X58976771Y-56085429D02*
X58929152Y-56180667D01*
X58929152Y-56180667D02*
X58929152Y-56323524D01*
X58929152Y-56323524D02*
X58976771Y-56418762D01*
X58976771Y-56418762D02*
X59024390Y-56466381D01*
X59024390Y-56466381D02*
X59119628Y-56514000D01*
X59119628Y-56514000D02*
X59405342Y-56514000D01*
X59405342Y-56514000D02*
X59500580Y-56466381D01*
X59500580Y-56466381D02*
X59548200Y-56418762D01*
X59548200Y-56418762D02*
X59595819Y-56323524D01*
X59595819Y-56323524D02*
X59595819Y-56180667D01*
X58929152Y-56942572D02*
X59595819Y-56942572D01*
X59024390Y-56942572D02*
X58976771Y-56990191D01*
X58976771Y-56990191D02*
X58929152Y-57085429D01*
X58929152Y-57085429D02*
X58929152Y-57228286D01*
X58929152Y-57228286D02*
X58976771Y-57323524D01*
X58976771Y-57323524D02*
X59072009Y-57371143D01*
X59072009Y-57371143D02*
X59595819Y-57371143D01*
X58929152Y-57752096D02*
X59595819Y-57990191D01*
X58929152Y-58228286D02*
X59595819Y-57990191D01*
X59595819Y-57990191D02*
X59833914Y-57894953D01*
X59833914Y-57894953D02*
X59881533Y-57847334D01*
X59881533Y-57847334D02*
X59929152Y-57752096D01*
X72730000Y-52847000D02*
X75270000Y-52847000D01*
X75270000Y-55302500D01*
X72730000Y-55302500D01*
X72730000Y-52847000D01*
G36*
X72730000Y-52847000D02*
G01*
X75270000Y-52847000D01*
X75270000Y-55302500D01*
X72730000Y-55302500D01*
X72730000Y-52847000D01*
G37*
X37595819Y-53371142D02*
X37595819Y-52894952D01*
X37595819Y-52894952D02*
X36595819Y-52894952D01*
X37548200Y-54085428D02*
X37595819Y-53990190D01*
X37595819Y-53990190D02*
X37595819Y-53799714D01*
X37595819Y-53799714D02*
X37548200Y-53704476D01*
X37548200Y-53704476D02*
X37452961Y-53656857D01*
X37452961Y-53656857D02*
X37072009Y-53656857D01*
X37072009Y-53656857D02*
X36976771Y-53704476D01*
X36976771Y-53704476D02*
X36929152Y-53799714D01*
X36929152Y-53799714D02*
X36929152Y-53990190D01*
X36929152Y-53990190D02*
X36976771Y-54085428D01*
X36976771Y-54085428D02*
X37072009Y-54133047D01*
X37072009Y-54133047D02*
X37167247Y-54133047D01*
X37167247Y-54133047D02*
X37262485Y-53656857D01*
X37595819Y-54990190D02*
X37072009Y-54990190D01*
X37072009Y-54990190D02*
X36976771Y-54942571D01*
X36976771Y-54942571D02*
X36929152Y-54847333D01*
X36929152Y-54847333D02*
X36929152Y-54656857D01*
X36929152Y-54656857D02*
X36976771Y-54561619D01*
X37548200Y-54990190D02*
X37595819Y-54894952D01*
X37595819Y-54894952D02*
X37595819Y-54656857D01*
X37595819Y-54656857D02*
X37548200Y-54561619D01*
X37548200Y-54561619D02*
X37452961Y-54514000D01*
X37452961Y-54514000D02*
X37357723Y-54514000D01*
X37357723Y-54514000D02*
X37262485Y-54561619D01*
X37262485Y-54561619D02*
X37214866Y-54656857D01*
X37214866Y-54656857D02*
X37214866Y-54894952D01*
X37214866Y-54894952D02*
X37167247Y-54990190D01*
X36929152Y-55323524D02*
X36929152Y-55704476D01*
X37595819Y-55466381D02*
X36738676Y-55466381D01*
X36738676Y-55466381D02*
X36643438Y-55514000D01*
X36643438Y-55514000D02*
X36595819Y-55609238D01*
X36595819Y-55609238D02*
X36595819Y-55704476D01*
X37595819Y-56180667D02*
X37548200Y-56085429D01*
X37548200Y-56085429D02*
X37500580Y-56037810D01*
X37500580Y-56037810D02*
X37405342Y-55990191D01*
X37405342Y-55990191D02*
X37119628Y-55990191D01*
X37119628Y-55990191D02*
X37024390Y-56037810D01*
X37024390Y-56037810D02*
X36976771Y-56085429D01*
X36976771Y-56085429D02*
X36929152Y-56180667D01*
X36929152Y-56180667D02*
X36929152Y-56323524D01*
X36929152Y-56323524D02*
X36976771Y-56418762D01*
X36976771Y-56418762D02*
X37024390Y-56466381D01*
X37024390Y-56466381D02*
X37119628Y-56514000D01*
X37119628Y-56514000D02*
X37405342Y-56514000D01*
X37405342Y-56514000D02*
X37500580Y-56466381D01*
X37500580Y-56466381D02*
X37548200Y-56418762D01*
X37548200Y-56418762D02*
X37595819Y-56323524D01*
X37595819Y-56323524D02*
X37595819Y-56180667D01*
X36929152Y-56942572D02*
X37595819Y-56942572D01*
X37024390Y-56942572D02*
X36976771Y-56990191D01*
X36976771Y-56990191D02*
X36929152Y-57085429D01*
X36929152Y-57085429D02*
X36929152Y-57228286D01*
X36929152Y-57228286D02*
X36976771Y-57323524D01*
X36976771Y-57323524D02*
X37072009Y-57371143D01*
X37072009Y-57371143D02*
X37595819Y-57371143D01*
X36929152Y-57752096D02*
X37595819Y-57990191D01*
X36929152Y-58228286D02*
X37595819Y-57990191D01*
X37595819Y-57990191D02*
X37833914Y-57894953D01*
X37833914Y-57894953D02*
X37881533Y-57847334D01*
X37881533Y-57847334D02*
X37929152Y-57752096D01*
X50730000Y-52847000D02*
X53270000Y-52847000D01*
X53270000Y-55302500D01*
X50730000Y-55302500D01*
X50730000Y-52847000D01*
G36*
X50730000Y-52847000D02*
G01*
X53270000Y-52847000D01*
X53270000Y-55302500D01*
X50730000Y-55302500D01*
X50730000Y-52847000D01*
G37*
X54455104Y-51395095D02*
X54455104Y-51871285D01*
X54740819Y-51299857D02*
X53740819Y-51633190D01*
X53740819Y-51633190D02*
X54740819Y-51966523D01*
X53740819Y-52204619D02*
X54740819Y-52871285D01*
X53740819Y-52871285D02*
X54740819Y-52204619D01*
X53740819Y-53442714D02*
X53740819Y-53537952D01*
X53740819Y-53537952D02*
X53788438Y-53633190D01*
X53788438Y-53633190D02*
X53836057Y-53680809D01*
X53836057Y-53680809D02*
X53931295Y-53728428D01*
X53931295Y-53728428D02*
X54121771Y-53776047D01*
X54121771Y-53776047D02*
X54359866Y-53776047D01*
X54359866Y-53776047D02*
X54550342Y-53728428D01*
X54550342Y-53728428D02*
X54645580Y-53680809D01*
X54645580Y-53680809D02*
X54693200Y-53633190D01*
X54693200Y-53633190D02*
X54740819Y-53537952D01*
X54740819Y-53537952D02*
X54740819Y-53442714D01*
X54740819Y-53442714D02*
X54693200Y-53347476D01*
X54693200Y-53347476D02*
X54645580Y-53299857D01*
X54645580Y-53299857D02*
X54550342Y-53252238D01*
X54550342Y-53252238D02*
X54359866Y-53204619D01*
X54359866Y-53204619D02*
X54121771Y-53204619D01*
X54121771Y-53204619D02*
X53931295Y-53252238D01*
X53931295Y-53252238D02*
X53836057Y-53299857D01*
X53836057Y-53299857D02*
X53788438Y-53347476D01*
X53788438Y-53347476D02*
X53740819Y-53442714D01*
X53836057Y-54157000D02*
X53788438Y-54204619D01*
X53788438Y-54204619D02*
X53740819Y-54299857D01*
X53740819Y-54299857D02*
X53740819Y-54537952D01*
X53740819Y-54537952D02*
X53788438Y-54633190D01*
X53788438Y-54633190D02*
X53836057Y-54680809D01*
X53836057Y-54680809D02*
X53931295Y-54728428D01*
X53931295Y-54728428D02*
X54026533Y-54728428D01*
X54026533Y-54728428D02*
X54169390Y-54680809D01*
X54169390Y-54680809D02*
X54740819Y-54109381D01*
X54740819Y-54109381D02*
X54740819Y-54728428D01*
X54217009Y-55490333D02*
X54264628Y-55633190D01*
X54264628Y-55633190D02*
X54312247Y-55680809D01*
X54312247Y-55680809D02*
X54407485Y-55728428D01*
X54407485Y-55728428D02*
X54550342Y-55728428D01*
X54550342Y-55728428D02*
X54645580Y-55680809D01*
X54645580Y-55680809D02*
X54693200Y-55633190D01*
X54693200Y-55633190D02*
X54740819Y-55537952D01*
X54740819Y-55537952D02*
X54740819Y-55157000D01*
X54740819Y-55157000D02*
X53740819Y-55157000D01*
X53740819Y-55157000D02*
X53740819Y-55490333D01*
X53740819Y-55490333D02*
X53788438Y-55585571D01*
X53788438Y-55585571D02*
X53836057Y-55633190D01*
X53836057Y-55633190D02*
X53931295Y-55680809D01*
X53931295Y-55680809D02*
X54026533Y-55680809D01*
X54026533Y-55680809D02*
X54121771Y-55633190D01*
X54121771Y-55633190D02*
X54169390Y-55585571D01*
X54169390Y-55585571D02*
X54217009Y-55490333D01*
X54217009Y-55490333D02*
X54217009Y-55157000D01*
X53836057Y-56871286D02*
X53788438Y-56918905D01*
X53788438Y-56918905D02*
X53740819Y-57014143D01*
X53740819Y-57014143D02*
X53740819Y-57252238D01*
X53740819Y-57252238D02*
X53788438Y-57347476D01*
X53788438Y-57347476D02*
X53836057Y-57395095D01*
X53836057Y-57395095D02*
X53931295Y-57442714D01*
X53931295Y-57442714D02*
X54026533Y-57442714D01*
X54026533Y-57442714D02*
X54169390Y-57395095D01*
X54169390Y-57395095D02*
X54740819Y-56823667D01*
X54740819Y-56823667D02*
X54740819Y-57442714D01*
X54740819Y-57918905D02*
X54740819Y-58109381D01*
X54740819Y-58109381D02*
X54693200Y-58204619D01*
X54693200Y-58204619D02*
X54645580Y-58252238D01*
X54645580Y-58252238D02*
X54502723Y-58347476D01*
X54502723Y-58347476D02*
X54312247Y-58395095D01*
X54312247Y-58395095D02*
X53931295Y-58395095D01*
X53931295Y-58395095D02*
X53836057Y-58347476D01*
X53836057Y-58347476D02*
X53788438Y-58299857D01*
X53788438Y-58299857D02*
X53740819Y-58204619D01*
X53740819Y-58204619D02*
X53740819Y-58014143D01*
X53740819Y-58014143D02*
X53788438Y-57918905D01*
X53788438Y-57918905D02*
X53836057Y-57871286D01*
X53836057Y-57871286D02*
X53931295Y-57823667D01*
X53931295Y-57823667D02*
X54169390Y-57823667D01*
X54169390Y-57823667D02*
X54264628Y-57871286D01*
X54264628Y-57871286D02*
X54312247Y-57918905D01*
X54312247Y-57918905D02*
X54359866Y-58014143D01*
X54359866Y-58014143D02*
X54359866Y-58204619D01*
X54359866Y-58204619D02*
X54312247Y-58299857D01*
X54312247Y-58299857D02*
X54264628Y-58347476D01*
X54264628Y-58347476D02*
X54169390Y-58395095D01*
X54359866Y-58823667D02*
X54359866Y-59585572D01*
X54074152Y-60061762D02*
X55074152Y-60061762D01*
X54121771Y-60061762D02*
X54074152Y-60157000D01*
X54074152Y-60157000D02*
X54074152Y-60347476D01*
X54074152Y-60347476D02*
X54121771Y-60442714D01*
X54121771Y-60442714D02*
X54169390Y-60490333D01*
X54169390Y-60490333D02*
X54264628Y-60537952D01*
X54264628Y-60537952D02*
X54550342Y-60537952D01*
X54550342Y-60537952D02*
X54645580Y-60490333D01*
X54645580Y-60490333D02*
X54693200Y-60442714D01*
X54693200Y-60442714D02*
X54740819Y-60347476D01*
X54740819Y-60347476D02*
X54740819Y-60157000D01*
X54740819Y-60157000D02*
X54693200Y-60061762D01*
X54740819Y-60966524D02*
X54074152Y-60966524D01*
X53740819Y-60966524D02*
X53788438Y-60918905D01*
X53788438Y-60918905D02*
X53836057Y-60966524D01*
X53836057Y-60966524D02*
X53788438Y-61014143D01*
X53788438Y-61014143D02*
X53740819Y-60966524D01*
X53740819Y-60966524D02*
X53836057Y-60966524D01*
X54074152Y-61442714D02*
X54740819Y-61442714D01*
X54169390Y-61442714D02*
X54121771Y-61490333D01*
X54121771Y-61490333D02*
X54074152Y-61585571D01*
X54074152Y-61585571D02*
X54074152Y-61728428D01*
X54074152Y-61728428D02*
X54121771Y-61823666D01*
X54121771Y-61823666D02*
X54217009Y-61871285D01*
X54217009Y-61871285D02*
X54740819Y-61871285D01*
D11*
X40444323Y-51577000D02*
G75*
G02*
X38155677Y-51577000I-1144323J0D01*
G01*
X38155677Y-51577000D02*
G75*
G02*
X40444323Y-51577000I1144323J0D01*
G01*
%LPC*%
D10*
X103400000Y-103088500D02*
X104700000Y-103088500D01*
X104700000Y-105488500D01*
X103400000Y-105488500D01*
X103400000Y-103088500D01*
G36*
X104700000Y-105488500D02*
G01*
X103400000Y-105488500D01*
X103400000Y-103088500D01*
X104700000Y-103088500D01*
X104700000Y-105488500D01*
G37*
X52600000Y-103088500D02*
X53900000Y-103088500D01*
X53900000Y-105488500D01*
X52600000Y-105488500D01*
X52600000Y-103088500D01*
G36*
X53900000Y-105488500D02*
G01*
X52600000Y-105488500D01*
X52600000Y-103088500D01*
X53900000Y-103088500D01*
X53900000Y-105488500D01*
G37*
X37400000Y-103088500D02*
X38700000Y-103088500D01*
X38700000Y-105488500D01*
X37400000Y-105488500D01*
X37400000Y-103088500D01*
G36*
X38700000Y-105488500D02*
G01*
X37400000Y-105488500D01*
X37400000Y-103088500D01*
X38700000Y-103088500D01*
X38700000Y-105488500D01*
G37*
X104700000Y-105688500D02*
X118600000Y-105688500D01*
X118600000Y-102788500D01*
X104700000Y-102788500D01*
X104700000Y-105688500D01*
G36*
X118600000Y-105688500D02*
G01*
X104700000Y-105688500D01*
X104700000Y-102788500D01*
X118600000Y-102788500D01*
X118600000Y-105688500D01*
G37*
X38700000Y-105688500D02*
X52600000Y-105688500D01*
X52600000Y-102788500D01*
X38700000Y-102788500D01*
X38700000Y-105688500D01*
G36*
X52600000Y-105688500D02*
G01*
X38700000Y-105688500D01*
X38700000Y-102788500D01*
X52600000Y-102788500D01*
X52600000Y-105688500D01*
G37*
X81400000Y-103088500D02*
X82700000Y-103088500D01*
X82700000Y-105488500D01*
X81400000Y-105488500D01*
X81400000Y-103088500D01*
G36*
X82700000Y-105488500D02*
G01*
X81400000Y-105488500D01*
X81400000Y-103088500D01*
X82700000Y-103088500D01*
X82700000Y-105488500D01*
G37*
X96600000Y-103088500D02*
X97900000Y-103088500D01*
X97900000Y-105488500D01*
X96600000Y-105488500D01*
X96600000Y-103088500D01*
G36*
X97900000Y-105488500D02*
G01*
X96600000Y-105488500D01*
X96600000Y-103088500D01*
X97900000Y-103088500D01*
X97900000Y-105488500D01*
G37*
X82700000Y-105688500D02*
X96600000Y-105688500D01*
X96600000Y-102788500D01*
X82700000Y-102788500D01*
X82700000Y-105688500D01*
G36*
X96600000Y-105688500D02*
G01*
X82700000Y-105688500D01*
X82700000Y-102788500D01*
X96600000Y-102788500D01*
X96600000Y-105688500D01*
G37*
X60700000Y-105688500D02*
X74600000Y-105688500D01*
X74600000Y-102788500D01*
X60700000Y-102788500D01*
X60700000Y-105688500D01*
G36*
X74600000Y-105688500D02*
G01*
X60700000Y-105688500D01*
X60700000Y-102788500D01*
X74600000Y-102788500D01*
X74600000Y-105688500D01*
G37*
X59400000Y-103088500D02*
X60700000Y-103088500D01*
X60700000Y-105488500D01*
X59400000Y-105488500D01*
X59400000Y-103088500D01*
G36*
X60700000Y-105488500D02*
G01*
X59400000Y-105488500D01*
X59400000Y-103088500D01*
X60700000Y-103088500D01*
X60700000Y-105488500D01*
G37*
X74600000Y-103088500D02*
X75900000Y-103088500D01*
X75900000Y-105488500D01*
X74600000Y-105488500D01*
X74600000Y-103088500D01*
G36*
X75900000Y-105488500D02*
G01*
X74600000Y-105488500D01*
X74600000Y-103088500D01*
X75900000Y-103088500D01*
X75900000Y-105488500D01*
G37*
X118600000Y-103088500D02*
X119900000Y-103088500D01*
X119900000Y-105488500D01*
X118600000Y-105488500D01*
X118600000Y-103088500D01*
G36*
X119900000Y-105488500D02*
G01*
X118600000Y-105488500D01*
X118600000Y-103088500D01*
X119900000Y-103088500D01*
X119900000Y-105488500D01*
G37*
X103400000Y-74088500D02*
X104700000Y-74088500D01*
X104700000Y-76488500D01*
X103400000Y-76488500D01*
X103400000Y-74088500D01*
G36*
X104700000Y-76488500D02*
G01*
X103400000Y-76488500D01*
X103400000Y-74088500D01*
X104700000Y-74088500D01*
X104700000Y-76488500D01*
G37*
X52600000Y-74088500D02*
X53900000Y-74088500D01*
X53900000Y-76488500D01*
X52600000Y-76488500D01*
X52600000Y-74088500D01*
G36*
X53900000Y-76488500D02*
G01*
X52600000Y-76488500D01*
X52600000Y-74088500D01*
X53900000Y-74088500D01*
X53900000Y-76488500D01*
G37*
X37400000Y-74088500D02*
X38700000Y-74088500D01*
X38700000Y-76488500D01*
X37400000Y-76488500D01*
X37400000Y-74088500D01*
G36*
X38700000Y-76488500D02*
G01*
X37400000Y-76488500D01*
X37400000Y-74088500D01*
X38700000Y-74088500D01*
X38700000Y-76488500D01*
G37*
X104700000Y-76688500D02*
X118600000Y-76688500D01*
X118600000Y-73788500D01*
X104700000Y-73788500D01*
X104700000Y-76688500D01*
G36*
X118600000Y-76688500D02*
G01*
X104700000Y-76688500D01*
X104700000Y-73788500D01*
X118600000Y-73788500D01*
X118600000Y-76688500D01*
G37*
X38700000Y-76688500D02*
X52600000Y-76688500D01*
X52600000Y-73788500D01*
X38700000Y-73788500D01*
X38700000Y-76688500D01*
G36*
X52600000Y-76688500D02*
G01*
X38700000Y-76688500D01*
X38700000Y-73788500D01*
X52600000Y-73788500D01*
X52600000Y-76688500D01*
G37*
X81400000Y-74088500D02*
X82700000Y-74088500D01*
X82700000Y-76488500D01*
X81400000Y-76488500D01*
X81400000Y-74088500D01*
G36*
X82700000Y-76488500D02*
G01*
X81400000Y-76488500D01*
X81400000Y-74088500D01*
X82700000Y-74088500D01*
X82700000Y-76488500D01*
G37*
X96600000Y-74088500D02*
X97900000Y-74088500D01*
X97900000Y-76488500D01*
X96600000Y-76488500D01*
X96600000Y-74088500D01*
G36*
X97900000Y-76488500D02*
G01*
X96600000Y-76488500D01*
X96600000Y-74088500D01*
X97900000Y-74088500D01*
X97900000Y-76488500D01*
G37*
X82700000Y-76688500D02*
X96600000Y-76688500D01*
X96600000Y-73788500D01*
X82700000Y-73788500D01*
X82700000Y-76688500D01*
G36*
X96600000Y-76688500D02*
G01*
X82700000Y-76688500D01*
X82700000Y-73788500D01*
X96600000Y-73788500D01*
X96600000Y-76688500D01*
G37*
X60700000Y-76688500D02*
X74600000Y-76688500D01*
X74600000Y-73788500D01*
X60700000Y-73788500D01*
X60700000Y-76688500D01*
G36*
X74600000Y-76688500D02*
G01*
X60700000Y-76688500D01*
X60700000Y-73788500D01*
X74600000Y-73788500D01*
X74600000Y-76688500D01*
G37*
X59400000Y-74088500D02*
X60700000Y-74088500D01*
X60700000Y-76488500D01*
X59400000Y-76488500D01*
X59400000Y-74088500D01*
G36*
X60700000Y-76488500D02*
G01*
X59400000Y-76488500D01*
X59400000Y-74088500D01*
X60700000Y-74088500D01*
X60700000Y-76488500D01*
G37*
X74600000Y-74088500D02*
X75900000Y-74088500D01*
X75900000Y-76488500D01*
X74600000Y-76488500D01*
X74600000Y-74088500D01*
G36*
X75900000Y-76488500D02*
G01*
X74600000Y-76488500D01*
X74600000Y-74088500D01*
X75900000Y-74088500D01*
X75900000Y-76488500D01*
G37*
X118600000Y-74088500D02*
X119900000Y-74088500D01*
X119900000Y-76488500D01*
X118600000Y-76488500D01*
X118600000Y-74088500D01*
G36*
X119900000Y-76488500D02*
G01*
X118600000Y-76488500D01*
X118600000Y-74088500D01*
X119900000Y-74088500D01*
X119900000Y-76488500D01*
G37*
X118600000Y-45088500D02*
X119900000Y-45088500D01*
X119900000Y-47488500D01*
X118600000Y-47488500D01*
X118600000Y-45088500D01*
G36*
X119900000Y-47488500D02*
G01*
X118600000Y-47488500D01*
X118600000Y-45088500D01*
X119900000Y-45088500D01*
X119900000Y-47488500D01*
G37*
X103400000Y-45088500D02*
X104700000Y-45088500D01*
X104700000Y-47488500D01*
X103400000Y-47488500D01*
X103400000Y-45088500D01*
G36*
X104700000Y-47488500D02*
G01*
X103400000Y-47488500D01*
X103400000Y-45088500D01*
X104700000Y-45088500D01*
X104700000Y-47488500D01*
G37*
X104700000Y-47688500D02*
X118600000Y-47688500D01*
X118600000Y-44788500D01*
X104700000Y-44788500D01*
X104700000Y-47688500D01*
G36*
X118600000Y-47688500D02*
G01*
X104700000Y-47688500D01*
X104700000Y-44788500D01*
X118600000Y-44788500D01*
X118600000Y-47688500D01*
G37*
X96600000Y-45088500D02*
X97900000Y-45088500D01*
X97900000Y-47488500D01*
X96600000Y-47488500D01*
X96600000Y-45088500D01*
G36*
X97900000Y-47488500D02*
G01*
X96600000Y-47488500D01*
X96600000Y-45088500D01*
X97900000Y-45088500D01*
X97900000Y-47488500D01*
G37*
X81400000Y-45088500D02*
X82700000Y-45088500D01*
X82700000Y-47488500D01*
X81400000Y-47488500D01*
X81400000Y-45088500D01*
G36*
X82700000Y-47488500D02*
G01*
X81400000Y-47488500D01*
X81400000Y-45088500D01*
X82700000Y-45088500D01*
X82700000Y-47488500D01*
G37*
X82700000Y-47688500D02*
X96600000Y-47688500D01*
X96600000Y-44788500D01*
X82700000Y-44788500D01*
X82700000Y-47688500D01*
G36*
X96600000Y-47688500D02*
G01*
X82700000Y-47688500D01*
X82700000Y-44788500D01*
X96600000Y-44788500D01*
X96600000Y-47688500D01*
G37*
X74600000Y-45088500D02*
X75900000Y-45088500D01*
X75900000Y-47488500D01*
X74600000Y-47488500D01*
X74600000Y-45088500D01*
G36*
X75900000Y-47488500D02*
G01*
X74600000Y-47488500D01*
X74600000Y-45088500D01*
X75900000Y-45088500D01*
X75900000Y-47488500D01*
G37*
X59400000Y-45088500D02*
X60700000Y-45088500D01*
X60700000Y-47488500D01*
X59400000Y-47488500D01*
X59400000Y-45088500D01*
G36*
X60700000Y-47488500D02*
G01*
X59400000Y-47488500D01*
X59400000Y-45088500D01*
X60700000Y-45088500D01*
X60700000Y-47488500D01*
G37*
X60700000Y-47688500D02*
X74600000Y-47688500D01*
X74600000Y-44788500D01*
X60700000Y-44788500D01*
X60700000Y-47688500D01*
G36*
X74600000Y-47688500D02*
G01*
X60700000Y-47688500D01*
X60700000Y-44788500D01*
X74600000Y-44788500D01*
X74600000Y-47688500D01*
G37*
X38700000Y-47688500D02*
X52600000Y-47688500D01*
X52600000Y-44788500D01*
X38700000Y-44788500D01*
X38700000Y-47688500D01*
G36*
X52600000Y-47688500D02*
G01*
X38700000Y-47688500D01*
X38700000Y-44788500D01*
X52600000Y-44788500D01*
X52600000Y-47688500D01*
G37*
X52600000Y-45088500D02*
X53900000Y-45088500D01*
X53900000Y-47488500D01*
X52600000Y-47488500D01*
X52600000Y-45088500D01*
G36*
X53900000Y-47488500D02*
G01*
X52600000Y-47488500D01*
X52600000Y-45088500D01*
X53900000Y-45088500D01*
X53900000Y-47488500D01*
G37*
X37400000Y-45088500D02*
X38700000Y-45088500D01*
X38700000Y-47488500D01*
X37400000Y-47488500D01*
X37400000Y-45088500D01*
G36*
X38700000Y-47488500D02*
G01*
X37400000Y-47488500D01*
X37400000Y-45088500D01*
X38700000Y-45088500D01*
X38700000Y-47488500D01*
G37*
D12*
X103400000Y-104288500D03*
X119900000Y-104288500D03*
D13*
X105575000Y-105263500D03*
D14*
X105350000Y-103463500D03*
D15*
X106700000Y-105113500D03*
D14*
X106250000Y-103463500D03*
D15*
X107600000Y-105113500D03*
D14*
X107150000Y-103463500D03*
D15*
X108500000Y-105113500D03*
D14*
X108050000Y-103463500D03*
D15*
X109400000Y-105113500D03*
D14*
X108950000Y-103463500D03*
D15*
X110300000Y-105113500D03*
D14*
X109850000Y-103463500D03*
D15*
X111200000Y-105113500D03*
D14*
X110750000Y-103463500D03*
D15*
X112100000Y-105113500D03*
D14*
X111650000Y-103463500D03*
D15*
X113000000Y-105113500D03*
D14*
X112550000Y-103463500D03*
D15*
X113900000Y-105113500D03*
D14*
X113450000Y-103463500D03*
D15*
X114800000Y-105113500D03*
D14*
X114350000Y-103463500D03*
D15*
X115700000Y-105113500D03*
D14*
X115250000Y-103463500D03*
D15*
X116600000Y-105113500D03*
D14*
X116150000Y-103463500D03*
D13*
X117725000Y-105263500D03*
D14*
X117050000Y-103463500D03*
X117950000Y-103463500D03*
D16*
X115460000Y-109577000D03*
X115460000Y-112117000D03*
X115460000Y-114657000D03*
X115460000Y-117197000D03*
X115460000Y-119737000D03*
X118000000Y-109577000D03*
X118000000Y-112117000D03*
X118000000Y-114657000D03*
X118000000Y-117197000D03*
X118000000Y-119737000D03*
X110380000Y-109577000D03*
X110380000Y-112117000D03*
X110380000Y-114657000D03*
X110380000Y-117197000D03*
X110380000Y-119737000D03*
X112920000Y-109577000D03*
X112920000Y-112117000D03*
X112920000Y-114657000D03*
X112920000Y-117197000D03*
X112920000Y-119737000D03*
D12*
X37400000Y-104288500D03*
X53900000Y-104288500D03*
D13*
X39575000Y-105263500D03*
D14*
X39350000Y-103463500D03*
D15*
X40700000Y-105113500D03*
D14*
X40250000Y-103463500D03*
D15*
X41600000Y-105113500D03*
D14*
X41150000Y-103463500D03*
D15*
X42500000Y-105113500D03*
D14*
X42050000Y-103463500D03*
D15*
X43400000Y-105113500D03*
D14*
X42950000Y-103463500D03*
D15*
X44300000Y-105113500D03*
D14*
X43850000Y-103463500D03*
D15*
X45200000Y-105113500D03*
D14*
X44750000Y-103463500D03*
D15*
X46100000Y-105113500D03*
D14*
X45650000Y-103463500D03*
D15*
X47000000Y-105113500D03*
D14*
X46550000Y-103463500D03*
D15*
X47900000Y-105113500D03*
D14*
X47450000Y-103463500D03*
D15*
X48800000Y-105113500D03*
D14*
X48350000Y-103463500D03*
D15*
X49700000Y-105113500D03*
D14*
X49250000Y-103463500D03*
D15*
X50600000Y-105113500D03*
D14*
X50150000Y-103463500D03*
D13*
X51725000Y-105263500D03*
D14*
X51050000Y-103463500D03*
X51950000Y-103463500D03*
D16*
X105300000Y-109577000D03*
X105300000Y-112117000D03*
X105300000Y-114657000D03*
X105300000Y-117197000D03*
X105300000Y-119737000D03*
X107840000Y-109577000D03*
X107840000Y-112117000D03*
X107840000Y-114657000D03*
X107840000Y-117197000D03*
X107840000Y-119737000D03*
D12*
X59400000Y-104288500D03*
X75900000Y-104288500D03*
D13*
X61575000Y-105263500D03*
D14*
X61350000Y-103463500D03*
D15*
X62700000Y-105113500D03*
D14*
X62250000Y-103463500D03*
D15*
X63600000Y-105113500D03*
D14*
X63150000Y-103463500D03*
D15*
X64500000Y-105113500D03*
D14*
X64050000Y-103463500D03*
D15*
X65400000Y-105113500D03*
D14*
X64950000Y-103463500D03*
D15*
X66300000Y-105113500D03*
D14*
X65850000Y-103463500D03*
D15*
X67200000Y-105113500D03*
D14*
X66750000Y-103463500D03*
D15*
X68100000Y-105113500D03*
D14*
X67650000Y-103463500D03*
D15*
X69000000Y-105113500D03*
D14*
X68550000Y-103463500D03*
D15*
X69900000Y-105113500D03*
D14*
X69450000Y-103463500D03*
D15*
X70800000Y-105113500D03*
D14*
X70350000Y-103463500D03*
D15*
X71700000Y-105113500D03*
D14*
X71250000Y-103463500D03*
D15*
X72600000Y-105113500D03*
D14*
X72150000Y-103463500D03*
D13*
X73725000Y-105263500D03*
D14*
X73050000Y-103463500D03*
X73950000Y-103463500D03*
D16*
X83300000Y-109577000D03*
X83300000Y-112117000D03*
X83300000Y-114657000D03*
X83300000Y-117197000D03*
X83300000Y-119737000D03*
X85840000Y-109577000D03*
X85840000Y-112117000D03*
X85840000Y-114657000D03*
X85840000Y-117197000D03*
X85840000Y-119737000D03*
X61300000Y-109577000D03*
X61300000Y-112117000D03*
X61300000Y-114657000D03*
X61300000Y-117197000D03*
X61300000Y-119737000D03*
X63840000Y-109577000D03*
X63840000Y-112117000D03*
X63840000Y-114657000D03*
X63840000Y-117197000D03*
X63840000Y-119737000D03*
D12*
X81400000Y-104288500D03*
X97900000Y-104288500D03*
D13*
X83575000Y-105263500D03*
D14*
X83350000Y-103463500D03*
D15*
X84700000Y-105113500D03*
D14*
X84250000Y-103463500D03*
D15*
X85600000Y-105113500D03*
D14*
X85150000Y-103463500D03*
D15*
X86500000Y-105113500D03*
D14*
X86050000Y-103463500D03*
D15*
X87400000Y-105113500D03*
D14*
X86950000Y-103463500D03*
D15*
X88300000Y-105113500D03*
D14*
X87850000Y-103463500D03*
D15*
X89200000Y-105113500D03*
D14*
X88750000Y-103463500D03*
D15*
X90100000Y-105113500D03*
D14*
X89650000Y-103463500D03*
D15*
X91000000Y-105113500D03*
D14*
X90550000Y-103463500D03*
D15*
X91900000Y-105113500D03*
D14*
X91450000Y-103463500D03*
D15*
X92800000Y-105113500D03*
D14*
X92350000Y-103463500D03*
D15*
X93700000Y-105113500D03*
D14*
X93250000Y-103463500D03*
D15*
X94600000Y-105113500D03*
D14*
X94150000Y-103463500D03*
D13*
X95725000Y-105263500D03*
D14*
X95050000Y-103463500D03*
X95950000Y-103463500D03*
D16*
X39300000Y-109577000D03*
X39300000Y-112117000D03*
X39300000Y-114657000D03*
X39300000Y-117197000D03*
X39300000Y-119737000D03*
X41840000Y-109577000D03*
X41840000Y-112117000D03*
X41840000Y-114657000D03*
X41840000Y-117197000D03*
X41840000Y-119737000D03*
X44380000Y-109577000D03*
X44380000Y-112117000D03*
X44380000Y-114657000D03*
X44380000Y-117197000D03*
X44380000Y-119737000D03*
X46920000Y-109577000D03*
X46920000Y-112117000D03*
X46920000Y-114657000D03*
X46920000Y-117197000D03*
X46920000Y-119737000D03*
X88380000Y-109577000D03*
X88380000Y-112117000D03*
X88380000Y-114657000D03*
X88380000Y-117197000D03*
X88380000Y-119737000D03*
X90920000Y-109577000D03*
X90920000Y-112117000D03*
X90920000Y-114657000D03*
X90920000Y-117197000D03*
X90920000Y-119737000D03*
X93460000Y-109577000D03*
X93460000Y-112117000D03*
X93460000Y-114657000D03*
X93460000Y-117197000D03*
X93460000Y-119737000D03*
X96000000Y-109577000D03*
X96000000Y-112117000D03*
X96000000Y-114657000D03*
X96000000Y-117197000D03*
X96000000Y-119737000D03*
X66380000Y-109577000D03*
X66380000Y-112117000D03*
X66380000Y-114657000D03*
X66380000Y-117197000D03*
X66380000Y-119737000D03*
X68920000Y-109577000D03*
X68920000Y-112117000D03*
X68920000Y-114657000D03*
X68920000Y-117197000D03*
X68920000Y-119737000D03*
X71460000Y-109577000D03*
X71460000Y-112117000D03*
X71460000Y-114657000D03*
X71460000Y-117197000D03*
X71460000Y-119737000D03*
X74000000Y-109577000D03*
X74000000Y-112117000D03*
X74000000Y-114657000D03*
X74000000Y-117197000D03*
X74000000Y-119737000D03*
X49460000Y-109577000D03*
X49460000Y-112117000D03*
X49460000Y-114657000D03*
X49460000Y-117197000D03*
X49460000Y-119737000D03*
X52000000Y-109577000D03*
X52000000Y-112117000D03*
X52000000Y-114657000D03*
X52000000Y-117197000D03*
X52000000Y-119737000D03*
D12*
X103400000Y-75288500D03*
X119900000Y-75288500D03*
D13*
X105575000Y-76263500D03*
D14*
X105350000Y-74463500D03*
D15*
X106700000Y-76113500D03*
D14*
X106250000Y-74463500D03*
D15*
X107600000Y-76113500D03*
D14*
X107150000Y-74463500D03*
D15*
X108500000Y-76113500D03*
D14*
X108050000Y-74463500D03*
D15*
X109400000Y-76113500D03*
D14*
X108950000Y-74463500D03*
D15*
X110300000Y-76113500D03*
D14*
X109850000Y-74463500D03*
D15*
X111200000Y-76113500D03*
D14*
X110750000Y-74463500D03*
D15*
X112100000Y-76113500D03*
D14*
X111650000Y-74463500D03*
D15*
X113000000Y-76113500D03*
D14*
X112550000Y-74463500D03*
D15*
X113900000Y-76113500D03*
D14*
X113450000Y-74463500D03*
D15*
X114800000Y-76113500D03*
D14*
X114350000Y-74463500D03*
D15*
X115700000Y-76113500D03*
D14*
X115250000Y-74463500D03*
D15*
X116600000Y-76113500D03*
D14*
X116150000Y-74463500D03*
D13*
X117725000Y-76263500D03*
D14*
X117050000Y-74463500D03*
X117950000Y-74463500D03*
D16*
X115460000Y-80577000D03*
X115460000Y-83117000D03*
X115460000Y-85657000D03*
X115460000Y-88197000D03*
X115460000Y-90737000D03*
X118000000Y-80577000D03*
X118000000Y-83117000D03*
X118000000Y-85657000D03*
X118000000Y-88197000D03*
X118000000Y-90737000D03*
X110380000Y-80577000D03*
X110380000Y-83117000D03*
X110380000Y-85657000D03*
X110380000Y-88197000D03*
X110380000Y-90737000D03*
X112920000Y-80577000D03*
X112920000Y-83117000D03*
X112920000Y-85657000D03*
X112920000Y-88197000D03*
X112920000Y-90737000D03*
D12*
X37400000Y-75288500D03*
X53900000Y-75288500D03*
D13*
X39575000Y-76263500D03*
D14*
X39350000Y-74463500D03*
D15*
X40700000Y-76113500D03*
D14*
X40250000Y-74463500D03*
D15*
X41600000Y-76113500D03*
D14*
X41150000Y-74463500D03*
D15*
X42500000Y-76113500D03*
D14*
X42050000Y-74463500D03*
D15*
X43400000Y-76113500D03*
D14*
X42950000Y-74463500D03*
D15*
X44300000Y-76113500D03*
D14*
X43850000Y-74463500D03*
D15*
X45200000Y-76113500D03*
D14*
X44750000Y-74463500D03*
D15*
X46100000Y-76113500D03*
D14*
X45650000Y-74463500D03*
D15*
X47000000Y-76113500D03*
D14*
X46550000Y-74463500D03*
D15*
X47900000Y-76113500D03*
D14*
X47450000Y-74463500D03*
D15*
X48800000Y-76113500D03*
D14*
X48350000Y-74463500D03*
D15*
X49700000Y-76113500D03*
D14*
X49250000Y-74463500D03*
D15*
X50600000Y-76113500D03*
D14*
X50150000Y-74463500D03*
D13*
X51725000Y-76263500D03*
D14*
X51050000Y-74463500D03*
X51950000Y-74463500D03*
D16*
X105300000Y-80577000D03*
X105300000Y-83117000D03*
X105300000Y-85657000D03*
X105300000Y-88197000D03*
X105300000Y-90737000D03*
X107840000Y-80577000D03*
X107840000Y-83117000D03*
X107840000Y-85657000D03*
X107840000Y-88197000D03*
X107840000Y-90737000D03*
D12*
X59400000Y-75288500D03*
X75900000Y-75288500D03*
D13*
X61575000Y-76263500D03*
D14*
X61350000Y-74463500D03*
D15*
X62700000Y-76113500D03*
D14*
X62250000Y-74463500D03*
D15*
X63600000Y-76113500D03*
D14*
X63150000Y-74463500D03*
D15*
X64500000Y-76113500D03*
D14*
X64050000Y-74463500D03*
D15*
X65400000Y-76113500D03*
D14*
X64950000Y-74463500D03*
D15*
X66300000Y-76113500D03*
D14*
X65850000Y-74463500D03*
D15*
X67200000Y-76113500D03*
D14*
X66750000Y-74463500D03*
D15*
X68100000Y-76113500D03*
D14*
X67650000Y-74463500D03*
D15*
X69000000Y-76113500D03*
D14*
X68550000Y-74463500D03*
D15*
X69900000Y-76113500D03*
D14*
X69450000Y-74463500D03*
D15*
X70800000Y-76113500D03*
D14*
X70350000Y-74463500D03*
D15*
X71700000Y-76113500D03*
D14*
X71250000Y-74463500D03*
D15*
X72600000Y-76113500D03*
D14*
X72150000Y-74463500D03*
D13*
X73725000Y-76263500D03*
D14*
X73050000Y-74463500D03*
X73950000Y-74463500D03*
D16*
X83300000Y-80577000D03*
X83300000Y-83117000D03*
X83300000Y-85657000D03*
X83300000Y-88197000D03*
X83300000Y-90737000D03*
X85840000Y-80577000D03*
X85840000Y-83117000D03*
X85840000Y-85657000D03*
X85840000Y-88197000D03*
X85840000Y-90737000D03*
X61300000Y-80577000D03*
X61300000Y-83117000D03*
X61300000Y-85657000D03*
X61300000Y-88197000D03*
X61300000Y-90737000D03*
X63840000Y-80577000D03*
X63840000Y-83117000D03*
X63840000Y-85657000D03*
X63840000Y-88197000D03*
X63840000Y-90737000D03*
D12*
X81400000Y-75288500D03*
X97900000Y-75288500D03*
D13*
X83575000Y-76263500D03*
D14*
X83350000Y-74463500D03*
D15*
X84700000Y-76113500D03*
D14*
X84250000Y-74463500D03*
D15*
X85600000Y-76113500D03*
D14*
X85150000Y-74463500D03*
D15*
X86500000Y-76113500D03*
D14*
X86050000Y-74463500D03*
D15*
X87400000Y-76113500D03*
D14*
X86950000Y-74463500D03*
D15*
X88300000Y-76113500D03*
D14*
X87850000Y-74463500D03*
D15*
X89200000Y-76113500D03*
D14*
X88750000Y-74463500D03*
D15*
X90100000Y-76113500D03*
D14*
X89650000Y-74463500D03*
D15*
X91000000Y-76113500D03*
D14*
X90550000Y-74463500D03*
D15*
X91900000Y-76113500D03*
D14*
X91450000Y-74463500D03*
D15*
X92800000Y-76113500D03*
D14*
X92350000Y-74463500D03*
D15*
X93700000Y-76113500D03*
D14*
X93250000Y-74463500D03*
D15*
X94600000Y-76113500D03*
D14*
X94150000Y-74463500D03*
D13*
X95725000Y-76263500D03*
D14*
X95050000Y-74463500D03*
X95950000Y-74463500D03*
D16*
X39300000Y-80577000D03*
X39300000Y-83117000D03*
X39300000Y-85657000D03*
X39300000Y-88197000D03*
X39300000Y-90737000D03*
X41840000Y-80577000D03*
X41840000Y-83117000D03*
X41840000Y-85657000D03*
X41840000Y-88197000D03*
X41840000Y-90737000D03*
X44380000Y-80577000D03*
X44380000Y-83117000D03*
X44380000Y-85657000D03*
X44380000Y-88197000D03*
X44380000Y-90737000D03*
X46920000Y-80577000D03*
X46920000Y-83117000D03*
X46920000Y-85657000D03*
X46920000Y-88197000D03*
X46920000Y-90737000D03*
X88380000Y-80577000D03*
X88380000Y-83117000D03*
X88380000Y-85657000D03*
X88380000Y-88197000D03*
X88380000Y-90737000D03*
X90920000Y-80577000D03*
X90920000Y-83117000D03*
X90920000Y-85657000D03*
X90920000Y-88197000D03*
X90920000Y-90737000D03*
X93460000Y-80577000D03*
X93460000Y-83117000D03*
X93460000Y-85657000D03*
X93460000Y-88197000D03*
X93460000Y-90737000D03*
X96000000Y-80577000D03*
X96000000Y-83117000D03*
X96000000Y-85657000D03*
X96000000Y-88197000D03*
X96000000Y-90737000D03*
X66380000Y-80577000D03*
X66380000Y-83117000D03*
X66380000Y-85657000D03*
X66380000Y-88197000D03*
X66380000Y-90737000D03*
X68920000Y-80577000D03*
X68920000Y-83117000D03*
X68920000Y-85657000D03*
X68920000Y-88197000D03*
X68920000Y-90737000D03*
X71460000Y-80577000D03*
X71460000Y-83117000D03*
X71460000Y-85657000D03*
X71460000Y-88197000D03*
X71460000Y-90737000D03*
X74000000Y-80577000D03*
X74000000Y-83117000D03*
X74000000Y-85657000D03*
X74000000Y-88197000D03*
X74000000Y-90737000D03*
X49460000Y-80577000D03*
X49460000Y-83117000D03*
X49460000Y-85657000D03*
X49460000Y-88197000D03*
X49460000Y-90737000D03*
X52000000Y-80577000D03*
X52000000Y-83117000D03*
X52000000Y-85657000D03*
X52000000Y-88197000D03*
X52000000Y-90737000D03*
D12*
X103400000Y-46288500D03*
X119900000Y-46288500D03*
D13*
X105575000Y-47263500D03*
D14*
X105350000Y-45463500D03*
D15*
X106700000Y-47113500D03*
D14*
X106250000Y-45463500D03*
D15*
X107600000Y-47113500D03*
D14*
X107150000Y-45463500D03*
D15*
X108500000Y-47113500D03*
D14*
X108050000Y-45463500D03*
D15*
X109400000Y-47113500D03*
D14*
X108950000Y-45463500D03*
D15*
X110300000Y-47113500D03*
D14*
X109850000Y-45463500D03*
D15*
X111200000Y-47113500D03*
D14*
X110750000Y-45463500D03*
D15*
X112100000Y-47113500D03*
D14*
X111650000Y-45463500D03*
D15*
X113000000Y-47113500D03*
D14*
X112550000Y-45463500D03*
D15*
X113900000Y-47113500D03*
D14*
X113450000Y-45463500D03*
D15*
X114800000Y-47113500D03*
D14*
X114350000Y-45463500D03*
D15*
X115700000Y-47113500D03*
D14*
X115250000Y-45463500D03*
D15*
X116600000Y-47113500D03*
D14*
X116150000Y-45463500D03*
D13*
X117725000Y-47263500D03*
D14*
X117050000Y-45463500D03*
X117950000Y-45463500D03*
D16*
X105300000Y-51577000D03*
X105300000Y-54117000D03*
X105300000Y-56657000D03*
X105300000Y-59197000D03*
X105300000Y-61737000D03*
X107840000Y-51577000D03*
X107840000Y-54117000D03*
X107840000Y-56657000D03*
X107840000Y-59197000D03*
X107840000Y-61737000D03*
X110380000Y-51577000D03*
X110380000Y-54117000D03*
X110380000Y-56657000D03*
X110380000Y-59197000D03*
X110380000Y-61737000D03*
X112920000Y-51577000D03*
X112920000Y-54117000D03*
X112920000Y-56657000D03*
X112920000Y-59197000D03*
X112920000Y-61737000D03*
X115460000Y-51577000D03*
X115460000Y-54117000D03*
X115460000Y-56657000D03*
X115460000Y-59197000D03*
X115460000Y-61737000D03*
X118000000Y-51577000D03*
X118000000Y-54117000D03*
X118000000Y-56657000D03*
X118000000Y-59197000D03*
X118000000Y-61737000D03*
D12*
X81400000Y-46288500D03*
X97900000Y-46288500D03*
D13*
X83575000Y-47263500D03*
D14*
X83350000Y-45463500D03*
D15*
X84700000Y-47113500D03*
D14*
X84250000Y-45463500D03*
D15*
X85600000Y-47113500D03*
D14*
X85150000Y-45463500D03*
D15*
X86500000Y-47113500D03*
D14*
X86050000Y-45463500D03*
D15*
X87400000Y-47113500D03*
D14*
X86950000Y-45463500D03*
D15*
X88300000Y-47113500D03*
D14*
X87850000Y-45463500D03*
D15*
X89200000Y-47113500D03*
D14*
X88750000Y-45463500D03*
D15*
X90100000Y-47113500D03*
D14*
X89650000Y-45463500D03*
D15*
X91000000Y-47113500D03*
D14*
X90550000Y-45463500D03*
D15*
X91900000Y-47113500D03*
D14*
X91450000Y-45463500D03*
D15*
X92800000Y-47113500D03*
D14*
X92350000Y-45463500D03*
D15*
X93700000Y-47113500D03*
D14*
X93250000Y-45463500D03*
D15*
X94600000Y-47113500D03*
D14*
X94150000Y-45463500D03*
D13*
X95725000Y-47263500D03*
D14*
X95050000Y-45463500D03*
X95950000Y-45463500D03*
D16*
X83300000Y-51577000D03*
X83300000Y-54117000D03*
X83300000Y-56657000D03*
X83300000Y-59197000D03*
X83300000Y-61737000D03*
X85840000Y-51577000D03*
X85840000Y-54117000D03*
X85840000Y-56657000D03*
X85840000Y-59197000D03*
X85840000Y-61737000D03*
X88380000Y-51577000D03*
X88380000Y-54117000D03*
X88380000Y-56657000D03*
X88380000Y-59197000D03*
X88380000Y-61737000D03*
X90920000Y-51577000D03*
X90920000Y-54117000D03*
X90920000Y-56657000D03*
X90920000Y-59197000D03*
X90920000Y-61737000D03*
X93460000Y-51577000D03*
X93460000Y-54117000D03*
X93460000Y-56657000D03*
X93460000Y-59197000D03*
X93460000Y-61737000D03*
X96000000Y-51577000D03*
X96000000Y-54117000D03*
X96000000Y-56657000D03*
X96000000Y-59197000D03*
X96000000Y-61737000D03*
D12*
X59400000Y-46288500D03*
X75900000Y-46288500D03*
D13*
X61575000Y-47263500D03*
D14*
X61350000Y-45463500D03*
D15*
X62700000Y-47113500D03*
D14*
X62250000Y-45463500D03*
D15*
X63600000Y-47113500D03*
D14*
X63150000Y-45463500D03*
D15*
X64500000Y-47113500D03*
D14*
X64050000Y-45463500D03*
D15*
X65400000Y-47113500D03*
D14*
X64950000Y-45463500D03*
D15*
X66300000Y-47113500D03*
D14*
X65850000Y-45463500D03*
D15*
X67200000Y-47113500D03*
D14*
X66750000Y-45463500D03*
D15*
X68100000Y-47113500D03*
D14*
X67650000Y-45463500D03*
D15*
X69000000Y-47113500D03*
D14*
X68550000Y-45463500D03*
D15*
X69900000Y-47113500D03*
D14*
X69450000Y-45463500D03*
D15*
X70800000Y-47113500D03*
D14*
X70350000Y-45463500D03*
D15*
X71700000Y-47113500D03*
D14*
X71250000Y-45463500D03*
D15*
X72600000Y-47113500D03*
D14*
X72150000Y-45463500D03*
D13*
X73725000Y-47263500D03*
D14*
X73050000Y-45463500D03*
X73950000Y-45463500D03*
D16*
X61300000Y-51577000D03*
X61300000Y-54117000D03*
X61300000Y-56657000D03*
X61300000Y-59197000D03*
X61300000Y-61737000D03*
X63840000Y-51577000D03*
X63840000Y-54117000D03*
X63840000Y-56657000D03*
X63840000Y-59197000D03*
X63840000Y-61737000D03*
X66380000Y-51577000D03*
X66380000Y-54117000D03*
X66380000Y-56657000D03*
X66380000Y-59197000D03*
X66380000Y-61737000D03*
X68920000Y-51577000D03*
X68920000Y-54117000D03*
X68920000Y-56657000D03*
X68920000Y-59197000D03*
X68920000Y-61737000D03*
X71460000Y-51577000D03*
X71460000Y-54117000D03*
X71460000Y-56657000D03*
X71460000Y-59197000D03*
X71460000Y-61737000D03*
X74000000Y-51577000D03*
X74000000Y-54117000D03*
X74000000Y-56657000D03*
X74000000Y-59197000D03*
X74000000Y-61737000D03*
X49460000Y-51577000D03*
X49460000Y-54117000D03*
X49460000Y-56657000D03*
X49460000Y-59197000D03*
X49460000Y-61737000D03*
X52000000Y-51577000D03*
X52000000Y-54117000D03*
X52000000Y-56657000D03*
X52000000Y-59197000D03*
X52000000Y-61737000D03*
D12*
X37400000Y-46288500D03*
X53900000Y-46288500D03*
D13*
X39575000Y-47263500D03*
D14*
X39350000Y-45463500D03*
D15*
X40700000Y-47113500D03*
D14*
X40250000Y-45463500D03*
D15*
X41600000Y-47113500D03*
D14*
X41150000Y-45463500D03*
D15*
X42500000Y-47113500D03*
D14*
X42050000Y-45463500D03*
D15*
X43400000Y-47113500D03*
D14*
X42950000Y-45463500D03*
D15*
X44300000Y-47113500D03*
D14*
X43850000Y-45463500D03*
D15*
X45200000Y-47113500D03*
D14*
X44750000Y-45463500D03*
D15*
X46100000Y-47113500D03*
D14*
X45650000Y-45463500D03*
D15*
X47000000Y-47113500D03*
D14*
X46550000Y-45463500D03*
D15*
X47900000Y-47113500D03*
D14*
X47450000Y-45463500D03*
D15*
X48800000Y-47113500D03*
D14*
X48350000Y-45463500D03*
D15*
X49700000Y-47113500D03*
D14*
X49250000Y-45463500D03*
D15*
X50600000Y-47113500D03*
D14*
X50150000Y-45463500D03*
D13*
X51725000Y-47263500D03*
D14*
X51050000Y-45463500D03*
X51950000Y-45463500D03*
D16*
X44380000Y-51577000D03*
X44380000Y-54117000D03*
X44380000Y-56657000D03*
X44380000Y-59197000D03*
X44380000Y-61737000D03*
X46920000Y-51577000D03*
X46920000Y-54117000D03*
X46920000Y-56657000D03*
X46920000Y-59197000D03*
X46920000Y-61737000D03*
X39300000Y-51577000D03*
X39300000Y-54117000D03*
X39300000Y-56657000D03*
X39300000Y-59197000D03*
X39300000Y-61737000D03*
X41840000Y-51577000D03*
X41840000Y-54117000D03*
X41840000Y-56657000D03*
X41840000Y-59197000D03*
X41840000Y-61737000D03*
D17*
X33650000Y-127788500D03*
X123650000Y-127788500D03*
X123650000Y-37788500D03*
X33650000Y-37788500D03*
D18*
X43650000Y-127788500D03*
X118650000Y-37788500D03*
D19*
X38650000Y-37788500D03*
D18*
X113650000Y-127788500D03*
X38650000Y-37788500D03*
%LPD*%
M02*
