M48
; DRILL file KiCad 10.0.3 date 2026-06-27T15:53:00
; FORMAT={-:-/ absolute / metric / decimal}
; #@! TF.CreationDate,2026-06-27T15:53:00+07:00
; #@! TF.GenerationSoftware,Kicad,Pcbnew,10.0.3
; #@! TF.FileFunction,NonPlated,1,4,NPTH
FMAT,2
METRIC
; #@! TA.AperFunction,NonPlated,NPTH,ComponentDrill
T1C2.000
; #@! TA.AperFunction,NonPlated,NPTH,ComponentDrill
T2C2.050
%
G90
G05
T1
X33.65Y-37.788
X33.65Y-127.788
X123.65Y-37.788
X123.65Y-127.788
T2
X30.4Y-45.288
X30.4Y-65.288
X30.4Y-85.288
X30.4Y-105.288
X46.9Y-45.288
X46.9Y-65.288
X46.9Y-85.288
X46.9Y-105.288
X50.4Y-45.288
X50.4Y-65.288
X50.4Y-85.288
X50.4Y-105.288
X66.9Y-45.288
X66.9Y-65.288
X66.9Y-85.288
X66.9Y-105.288
X70.4Y-45.288
X70.4Y-65.288
X70.4Y-85.288
X70.4Y-105.288
X86.9Y-45.288
X86.9Y-65.288
X86.9Y-85.288
X86.9Y-105.288
X90.4Y-45.288
X90.4Y-65.288
X90.4Y-85.288
X90.4Y-105.288
X106.9Y-45.288
X106.9Y-65.288
X106.9Y-85.288
X106.9Y-105.288
X110.4Y-45.288
X110.4Y-65.288
X110.4Y-85.288
X110.4Y-105.288
X126.9Y-45.288
X126.9Y-65.288
X126.9Y-85.288
X126.9Y-105.288
M30
