M48
; DRILL file KiCad 10.0.3 date 2026-06-27T15:53:00
; FORMAT={-:-/ absolute / metric / decimal}
; #@! TF.CreationDate,2026-06-27T15:53:00+07:00
; #@! TF.GenerationSoftware,Kicad,Pcbnew,10.0.3
; #@! TF.FileFunction,Plated,1,4,PTH
FMAT,2
METRIC
; #@! TA.AperFunction,Plated,PTH,ViaDrill
T1C0.200
; #@! TA.AperFunction,Plated,PTH,ComponentDrill
T2C1.000
%
G90
G05
T1
X29.65Y-48.889
X29.65Y-61.889
X29.65Y-68.888
X29.65Y-81.888
X29.65Y-88.888
X29.65Y-101.888
X29.65Y-108.888
X29.65Y-121.888
X32.35Y-43.889
X32.35Y-63.889
X32.35Y-83.888
X32.35Y-103.888
X32.58Y-46.698
X32.58Y-66.698
X32.58Y-86.698
X32.58Y-106.698
X33.25Y-43.889
X33.25Y-63.889
X33.25Y-83.888
X33.25Y-103.888
X33.7Y-46.688
X33.7Y-66.688
X33.7Y-86.688
X33.7Y-106.688
X34.15Y-43.889
X34.15Y-63.889
X34.15Y-83.888
X34.15Y-103.888
X34.6Y-46.688
X34.6Y-66.688
X34.6Y-86.688
X34.6Y-106.688
X35.05Y-43.889
X35.05Y-63.889
X35.05Y-83.888
X35.05Y-103.888
X35.5Y-46.688
X35.5Y-66.688
X35.5Y-86.688
X35.5Y-106.688
X35.95Y-43.889
X35.95Y-63.889
X35.95Y-83.888
X35.95Y-103.888
X36.4Y-46.688
X36.4Y-66.688
X36.4Y-86.688
X36.4Y-106.688
X36.85Y-43.889
X36.85Y-63.889
X36.85Y-83.888
X36.85Y-103.888
X37.3Y-46.688
X37.3Y-66.688
X37.3Y-86.688
X37.3Y-106.688
X37.75Y-43.889
X37.75Y-63.889
X37.75Y-83.888
X37.75Y-103.888
X38.2Y-46.688
X38.2Y-66.688
X38.2Y-86.688
X38.2Y-106.688
X38.65Y-43.889
X38.65Y-63.889
X38.65Y-83.888
X38.65Y-103.888
X39.1Y-46.688
X39.1Y-66.688
X39.1Y-86.688
X39.1Y-106.688
X39.55Y-43.889
X39.55Y-63.889
X39.55Y-83.888
X39.55Y-103.888
X40.0Y-46.688
X40.0Y-66.688
X40.0Y-86.688
X40.0Y-106.688
X40.45Y-43.889
X40.45Y-63.889
X40.45Y-83.888
X40.45Y-103.888
X40.9Y-46.688
X40.9Y-66.688
X40.9Y-86.688
X40.9Y-106.688
X41.35Y-43.889
X41.35Y-63.889
X41.35Y-83.888
X41.35Y-103.888
X41.8Y-46.688
X41.8Y-66.688
X41.8Y-86.688
X41.8Y-106.688
X42.25Y-43.889
X42.25Y-63.889
X42.25Y-83.888
X42.25Y-103.888
X42.7Y-46.688
X42.7Y-66.688
X42.7Y-86.688
X42.7Y-106.688
X43.15Y-43.889
X43.15Y-63.889
X43.15Y-83.888
X43.15Y-103.888
X43.6Y-46.688
X43.6Y-66.688
X43.6Y-86.688
X43.6Y-106.688
X44.05Y-43.889
X44.05Y-63.889
X44.05Y-83.888
X44.05Y-103.888
X44.25Y-48.188
X44.25Y-68.188
X44.25Y-88.188
X44.25Y-108.188
X44.725Y-46.683
X44.725Y-66.683
X44.725Y-86.683
X44.725Y-106.683
X44.75Y-48.188
X44.75Y-68.188
X44.75Y-88.188
X44.75Y-108.188
X44.95Y-43.889
X44.95Y-63.889
X44.95Y-83.888
X44.95Y-103.888
X45.25Y-48.188
X45.25Y-68.188
X45.25Y-88.188
X45.25Y-108.188
X47.65Y-48.889
X47.65Y-61.889
X47.65Y-68.888
X47.65Y-81.888
X47.65Y-88.888
X47.65Y-101.888
X47.65Y-108.888
X47.65Y-121.888
X49.65Y-48.889
X49.65Y-61.889
X49.65Y-68.888
X49.65Y-81.888
X49.65Y-88.888
X49.65Y-101.888
X49.65Y-108.888
X49.65Y-121.888
X52.35Y-43.889
X52.35Y-63.889
X52.35Y-83.888
X52.35Y-103.888
X52.58Y-46.698
X52.58Y-66.698
X52.58Y-86.698
X52.58Y-106.698
X53.25Y-43.889
X53.25Y-63.889
X53.25Y-83.888
X53.25Y-103.888
X53.7Y-46.688
X53.7Y-66.688
X53.7Y-86.688
X53.7Y-106.688
X54.15Y-43.889
X54.15Y-63.889
X54.15Y-83.888
X54.15Y-103.888
X54.6Y-46.688
X54.6Y-66.688
X54.6Y-86.688
X54.6Y-106.688
X55.05Y-43.889
X55.05Y-63.889
X55.05Y-83.888
X55.05Y-103.888
X55.5Y-46.688
X55.5Y-66.688
X55.5Y-86.688
X55.5Y-106.688
X55.95Y-43.889
X55.95Y-63.889
X55.95Y-83.888
X55.95Y-103.888
X56.4Y-46.688
X56.4Y-66.688
X56.4Y-86.688
X56.4Y-106.688
X56.85Y-43.889
X56.85Y-63.889
X56.85Y-83.888
X56.85Y-103.888
X57.3Y-46.688
X57.3Y-66.688
X57.3Y-86.688
X57.3Y-106.688
X57.75Y-43.889
X57.75Y-63.889
X57.75Y-83.888
X57.75Y-103.888
X58.2Y-46.688
X58.2Y-66.688
X58.2Y-86.688
X58.2Y-106.688
X58.65Y-43.889
X58.65Y-63.889
X58.65Y-83.888
X58.65Y-103.888
X59.1Y-46.688
X59.1Y-66.688
X59.1Y-86.688
X59.1Y-106.688
X59.55Y-43.889
X59.55Y-63.889
X59.55Y-83.888
X59.55Y-103.888
X60.0Y-46.688
X60.0Y-66.688
X60.0Y-86.688
X60.0Y-106.688
X60.45Y-43.889
X60.45Y-63.889
X60.45Y-83.888
X60.45Y-103.888
X60.9Y-46.688
X60.9Y-66.688
X60.9Y-86.688
X60.9Y-106.688
X61.35Y-43.889
X61.35Y-63.889
X61.35Y-83.888
X61.35Y-103.888
X61.8Y-46.688
X61.8Y-66.688
X61.8Y-86.688
X61.8Y-106.688
X62.25Y-43.889
X62.25Y-63.889
X62.25Y-83.888
X62.25Y-103.888
X62.7Y-46.688
X62.7Y-66.688
X62.7Y-86.688
X62.7Y-106.688
X63.15Y-43.889
X63.15Y-63.889
X63.15Y-83.888
X63.15Y-103.888
X63.6Y-46.688
X63.6Y-66.688
X63.6Y-86.688
X63.6Y-106.688
X64.05Y-43.889
X64.05Y-63.889
X64.05Y-83.888
X64.05Y-103.888
X64.25Y-48.188
X64.25Y-68.188
X64.25Y-88.188
X64.25Y-108.188
X64.725Y-46.683
X64.725Y-66.683
X64.725Y-86.683
X64.725Y-106.683
X64.75Y-48.188
X64.75Y-68.188
X64.75Y-88.188
X64.75Y-108.188
X64.95Y-43.889
X64.95Y-63.889
X64.95Y-83.888
X64.95Y-103.888
X65.25Y-48.188
X65.25Y-68.188
X65.25Y-88.188
X65.25Y-108.188
X67.65Y-48.889
X67.65Y-61.889
X67.65Y-68.888
X67.65Y-81.888
X67.65Y-88.888
X67.65Y-101.888
X67.65Y-108.888
X67.65Y-121.888
X69.65Y-48.889
X69.65Y-61.889
X69.65Y-68.888
X69.65Y-81.888
X69.65Y-88.888
X69.65Y-101.888
X69.65Y-108.888
X69.65Y-121.888
X72.35Y-43.889
X72.35Y-63.889
X72.35Y-83.888
X72.35Y-103.888
X72.58Y-46.698
X72.58Y-66.698
X72.58Y-86.698
X72.58Y-106.698
X73.25Y-43.889
X73.25Y-63.889
X73.25Y-83.888
X73.25Y-103.888
X73.7Y-46.688
X73.7Y-66.688
X73.7Y-86.688
X73.7Y-106.688
X74.15Y-43.889
X74.15Y-63.889
X74.15Y-83.888
X74.15Y-103.888
X74.6Y-46.688
X74.6Y-66.688
X74.6Y-86.688
X74.6Y-106.688
X75.05Y-43.889
X75.05Y-63.889
X75.05Y-83.888
X75.05Y-103.888
X75.5Y-46.688
X75.5Y-66.688
X75.5Y-86.688
X75.5Y-106.688
X75.95Y-43.889
X75.95Y-63.889
X75.95Y-83.888
X75.95Y-103.888
X76.4Y-46.688
X76.4Y-66.688
X76.4Y-86.688
X76.4Y-106.688
X76.85Y-43.889
X76.85Y-63.889
X76.85Y-83.888
X76.85Y-103.888
X77.3Y-46.688
X77.3Y-66.688
X77.3Y-86.688
X77.3Y-106.688
X77.75Y-43.889
X77.75Y-63.889
X77.75Y-83.888
X77.75Y-103.888
X78.2Y-46.688
X78.2Y-66.688
X78.2Y-86.688
X78.2Y-106.688
X78.65Y-43.889
X78.65Y-63.889
X78.65Y-83.888
X78.65Y-103.888
X79.1Y-46.688
X79.1Y-66.688
X79.1Y-86.688
X79.1Y-106.688
X79.55Y-43.889
X79.55Y-63.889
X79.55Y-83.888
X79.55Y-103.888
X80.0Y-46.688
X80.0Y-66.688
X80.0Y-86.688
X80.0Y-106.688
X80.45Y-43.889
X80.45Y-63.889
X80.45Y-83.888
X80.45Y-103.888
X80.9Y-46.688
X80.9Y-66.688
X80.9Y-86.688
X80.9Y-106.688
X81.35Y-43.889
X81.35Y-63.889
X81.35Y-83.888
X81.35Y-103.888
X81.8Y-46.688
X81.8Y-66.688
X81.8Y-86.688
X81.8Y-106.688
X82.25Y-43.889
X82.25Y-63.889
X82.25Y-83.888
X82.25Y-103.888
X82.7Y-46.688
X82.7Y-66.688
X82.7Y-86.688
X82.7Y-106.688
X83.15Y-43.889
X83.15Y-63.889
X83.15Y-83.888
X83.15Y-103.888
X83.6Y-46.688
X83.6Y-66.688
X83.6Y-86.688
X83.6Y-106.688
X84.05Y-43.889
X84.05Y-63.889
X84.05Y-83.888
X84.05Y-103.888
X84.25Y-48.188
X84.25Y-68.188
X84.25Y-88.188
X84.25Y-108.188
X84.725Y-46.683
X84.725Y-66.683
X84.725Y-86.683
X84.725Y-106.683
X84.75Y-48.188
X84.75Y-68.188
X84.75Y-88.188
X84.75Y-108.188
X84.95Y-43.889
X84.95Y-63.889
X84.95Y-83.888
X84.95Y-103.888
X85.25Y-48.188
X85.25Y-68.188
X85.25Y-88.188
X85.25Y-108.188
X87.65Y-48.889
X87.65Y-61.889
X87.65Y-68.888
X87.65Y-81.888
X87.65Y-88.888
X87.65Y-101.888
X87.65Y-108.888
X87.65Y-121.888
X89.65Y-48.889
X89.65Y-61.889
X89.65Y-68.888
X89.65Y-81.888
X89.65Y-88.888
X89.65Y-101.888
X89.65Y-108.888
X89.65Y-121.888
X92.35Y-43.889
X92.35Y-63.889
X92.35Y-83.888
X92.35Y-103.888
X92.58Y-46.698
X92.58Y-66.698
X92.58Y-86.698
X92.58Y-106.698
X93.25Y-43.889
X93.25Y-63.889
X93.25Y-83.888
X93.25Y-103.888
X93.7Y-46.688
X93.7Y-66.688
X93.7Y-86.688
X93.7Y-106.688
X94.15Y-43.889
X94.15Y-63.889
X94.15Y-83.888
X94.15Y-103.888
X94.6Y-46.688
X94.6Y-66.688
X94.6Y-86.688
X94.6Y-106.688
X95.05Y-43.889
X95.05Y-63.889
X95.05Y-83.888
X95.05Y-103.888
X95.5Y-46.688
X95.5Y-66.688
X95.5Y-86.688
X95.5Y-106.688
X95.95Y-43.889
X95.95Y-63.889
X95.95Y-83.888
X95.95Y-103.888
X96.4Y-46.688
X96.4Y-66.688
X96.4Y-86.688
X96.4Y-106.688
X96.85Y-43.889
X96.85Y-63.889
X96.85Y-83.888
X96.85Y-103.888
X97.3Y-46.688
X97.3Y-66.688
X97.3Y-86.688
X97.3Y-106.688
X97.75Y-43.889
X97.75Y-63.889
X97.75Y-83.888
X97.75Y-103.888
X98.2Y-46.688
X98.2Y-66.688
X98.2Y-86.688
X98.2Y-106.688
X98.65Y-43.889
X98.65Y-63.889
X98.65Y-83.888
X98.65Y-103.888
X99.1Y-46.688
X99.1Y-66.688
X99.1Y-86.688
X99.1Y-106.688
X99.55Y-43.889
X99.55Y-63.889
X99.55Y-83.888
X99.55Y-103.888
X100.0Y-46.688
X100.0Y-66.688
X100.0Y-86.688
X100.0Y-106.688
X100.45Y-43.889
X100.45Y-63.889
X100.45Y-83.888
X100.45Y-103.888
X100.9Y-46.688
X100.9Y-66.688
X100.9Y-86.688
X100.9Y-106.688
X101.35Y-43.889
X101.35Y-63.889
X101.35Y-83.888
X101.35Y-103.888
X101.8Y-46.688
X101.8Y-66.688
X101.8Y-86.688
X101.8Y-106.688
X102.25Y-43.889
X102.25Y-63.889
X102.25Y-83.888
X102.25Y-103.888
X102.7Y-46.688
X102.7Y-66.688
X102.7Y-86.688
X102.7Y-106.688
X103.15Y-43.889
X103.15Y-63.889
X103.15Y-83.888
X103.15Y-103.888
X103.6Y-46.688
X103.6Y-66.688
X103.6Y-86.688
X103.6Y-106.688
X104.05Y-43.889
X104.05Y-63.889
X104.05Y-83.888
X104.05Y-103.888
X104.25Y-48.188
X104.25Y-68.188
X104.25Y-88.188
X104.25Y-108.188
X104.725Y-46.683
X104.725Y-66.683
X104.725Y-86.683
X104.725Y-106.683
X104.75Y-48.188
X104.75Y-68.188
X104.75Y-88.188
X104.75Y-108.188
X104.95Y-43.889
X104.95Y-63.889
X104.95Y-83.888
X104.95Y-103.888
X105.25Y-48.188
X105.25Y-68.188
X105.25Y-88.188
X105.25Y-108.188
X107.65Y-48.889
X107.65Y-61.889
X107.65Y-68.888
X107.65Y-81.888
X107.65Y-88.888
X107.65Y-101.888
X107.65Y-108.888
X107.65Y-121.888
X109.65Y-48.889
X109.65Y-61.889
X109.65Y-68.888
X109.65Y-81.888
X109.65Y-88.888
X109.65Y-101.888
X109.65Y-108.888
X109.65Y-121.888
X112.35Y-43.889
X112.35Y-63.889
X112.35Y-83.888
X112.35Y-103.888
X112.58Y-46.698
X112.58Y-66.698
X112.58Y-86.698
X112.58Y-106.698
X113.25Y-43.889
X113.25Y-63.889
X113.25Y-83.888
X113.25Y-103.888
X113.7Y-46.688
X113.7Y-66.688
X113.7Y-86.688
X113.7Y-106.688
X114.15Y-43.889
X114.15Y-63.889
X114.15Y-83.888
X114.15Y-103.888
X114.6Y-46.688
X114.6Y-66.688
X114.6Y-86.688
X114.6Y-106.688
X115.05Y-43.889
X115.05Y-63.889
X115.05Y-83.888
X115.05Y-103.888
X115.5Y-46.688
X115.5Y-66.688
X115.5Y-86.688
X115.5Y-106.688
X115.95Y-43.889
X115.95Y-63.889
X115.95Y-83.888
X115.95Y-103.888
X116.4Y-46.688
X116.4Y-66.688
X116.4Y-86.688
X116.4Y-106.688
X116.85Y-43.889
X116.85Y-63.889
X116.85Y-83.888
X116.85Y-103.888
X117.3Y-46.688
X117.3Y-66.688
X117.3Y-86.688
X117.3Y-106.688
X117.75Y-43.889
X117.75Y-63.889
X117.75Y-83.888
X117.75Y-103.888
X118.2Y-46.688
X118.2Y-66.688
X118.2Y-86.688
X118.2Y-106.688
X118.65Y-43.889
X118.65Y-63.889
X118.65Y-83.888
X118.65Y-103.888
X119.1Y-46.688
X119.1Y-66.688
X119.1Y-86.688
X119.1Y-106.688
X119.55Y-43.889
X119.55Y-63.889
X119.55Y-83.888
X119.55Y-103.888
X120.0Y-46.688
X120.0Y-66.688
X120.0Y-86.688
X120.0Y-106.688
X120.45Y-43.889
X120.45Y-63.889
X120.45Y-83.888
X120.45Y-103.888
X120.9Y-46.688
X120.9Y-66.688
X120.9Y-86.688
X120.9Y-106.688
X121.35Y-43.889
X121.35Y-63.889
X121.35Y-83.888
X121.35Y-103.888
X121.8Y-46.688
X121.8Y-66.688
X121.8Y-86.688
X121.8Y-106.688
X122.25Y-43.889
X122.25Y-63.889
X122.25Y-83.888
X122.25Y-103.888
X122.7Y-46.688
X122.7Y-66.688
X122.7Y-86.688
X122.7Y-106.688
X123.15Y-43.889
X123.15Y-63.889
X123.15Y-83.888
X123.15Y-103.888
X123.6Y-46.688
X123.6Y-66.688
X123.6Y-86.688
X123.6Y-106.688
X124.05Y-43.889
X124.05Y-63.889
X124.05Y-83.888
X124.05Y-103.888
X124.25Y-48.188
X124.25Y-68.188
X124.25Y-88.188
X124.25Y-108.188
X124.725Y-46.683
X124.725Y-66.683
X124.725Y-86.683
X124.725Y-106.683
X124.75Y-48.188
X124.75Y-68.188
X124.75Y-88.188
X124.75Y-108.188
X124.95Y-43.889
X124.95Y-63.889
X124.95Y-83.888
X124.95Y-103.888
X125.25Y-48.188
X125.25Y-68.188
X125.25Y-88.188
X125.25Y-108.188
X127.65Y-48.889
X127.65Y-61.889
X127.65Y-68.888
X127.65Y-81.888
X127.65Y-88.888
X127.65Y-101.888
X127.65Y-108.888
X127.65Y-121.888
T2
X32.3Y-50.577
X32.3Y-53.117
X32.3Y-55.657
X32.3Y-58.197
X32.3Y-60.737
X32.3Y-70.577
X32.3Y-73.117
X32.3Y-75.657
X32.3Y-78.197
X32.3Y-80.737
X32.3Y-90.577
X32.3Y-93.117
X32.3Y-95.657
X32.3Y-98.197
X32.3Y-100.737
X32.3Y-110.577
X32.3Y-113.117
X32.3Y-115.657
X32.3Y-118.197
X32.3Y-120.737
X34.84Y-50.577
X34.84Y-53.117
X34.84Y-55.657
X34.84Y-58.197
X34.84Y-60.737
X34.84Y-70.577
X34.84Y-73.117
X34.84Y-75.657
X34.84Y-78.197
X34.84Y-80.737
X34.84Y-90.577
X34.84Y-93.117
X34.84Y-95.657
X34.84Y-98.197
X34.84Y-100.737
X34.84Y-110.577
X34.84Y-113.117
X34.84Y-115.657
X34.84Y-118.197
X34.84Y-120.737
X37.38Y-50.577
X37.38Y-53.117
X37.38Y-55.657
X37.38Y-58.197
X37.38Y-60.737
X37.38Y-70.577
X37.38Y-73.117
X37.38Y-75.657
X37.38Y-78.197
X37.38Y-80.737
X37.38Y-90.577
X37.38Y-93.117
X37.38Y-95.657
X37.38Y-98.197
X37.38Y-100.737
X37.38Y-110.577
X37.38Y-113.117
X37.38Y-115.657
X37.38Y-118.197
X37.38Y-120.737
X39.92Y-50.577
X39.92Y-53.117
X39.92Y-55.657
X39.92Y-58.197
X39.92Y-60.737
X39.92Y-70.577
X39.92Y-73.117
X39.92Y-75.657
X39.92Y-78.197
X39.92Y-80.737
X39.92Y-90.577
X39.92Y-93.117
X39.92Y-95.657
X39.92Y-98.197
X39.92Y-100.737
X39.92Y-110.577
X39.92Y-113.117
X39.92Y-115.657
X39.92Y-118.197
X39.92Y-120.737
X42.46Y-50.577
X42.46Y-53.117
X42.46Y-55.657
X42.46Y-58.197
X42.46Y-60.737
X42.46Y-70.577
X42.46Y-73.117
X42.46Y-75.657
X42.46Y-78.197
X42.46Y-80.737
X42.46Y-90.577
X42.46Y-93.117
X42.46Y-95.657
X42.46Y-98.197
X42.46Y-100.737
X42.46Y-110.577
X42.46Y-113.117
X42.46Y-115.657
X42.46Y-118.197
X42.46Y-120.737
X45.0Y-50.577
X45.0Y-53.117
X45.0Y-55.657
X45.0Y-58.197
X45.0Y-60.737
X45.0Y-70.577
X45.0Y-73.117
X45.0Y-75.657
X45.0Y-78.197
X45.0Y-80.737
X45.0Y-90.577
X45.0Y-93.117
X45.0Y-95.657
X45.0Y-98.197
X45.0Y-100.737
X45.0Y-110.577
X45.0Y-113.117
X45.0Y-115.657
X45.0Y-118.197
X45.0Y-120.737
X52.3Y-50.577
X52.3Y-53.117
X52.3Y-55.657
X52.3Y-58.197
X52.3Y-60.737
X52.3Y-70.577
X52.3Y-73.117
X52.3Y-75.657
X52.3Y-78.197
X52.3Y-80.737
X52.3Y-90.577
X52.3Y-93.117
X52.3Y-95.657
X52.3Y-98.197
X52.3Y-100.737
X52.3Y-110.577
X52.3Y-113.117
X52.3Y-115.657
X52.3Y-118.197
X52.3Y-120.737
X54.84Y-50.577
X54.84Y-53.117
X54.84Y-55.657
X54.84Y-58.197
X54.84Y-60.737
X54.84Y-70.577
X54.84Y-73.117
X54.84Y-75.657
X54.84Y-78.197
X54.84Y-80.737
X54.84Y-90.577
X54.84Y-93.117
X54.84Y-95.657
X54.84Y-98.197
X54.84Y-100.737
X54.84Y-110.577
X54.84Y-113.117
X54.84Y-115.657
X54.84Y-118.197
X54.84Y-120.737
X57.38Y-50.577
X57.38Y-53.117
X57.38Y-55.657
X57.38Y-58.197
X57.38Y-60.737
X57.38Y-70.577
X57.38Y-73.117
X57.38Y-75.657
X57.38Y-78.197
X57.38Y-80.737
X57.38Y-90.577
X57.38Y-93.117
X57.38Y-95.657
X57.38Y-98.197
X57.38Y-100.737
X57.38Y-110.577
X57.38Y-113.117
X57.38Y-115.657
X57.38Y-118.197
X57.38Y-120.737
X59.92Y-50.577
X59.92Y-53.117
X59.92Y-55.657
X59.92Y-58.197
X59.92Y-60.737
X59.92Y-70.577
X59.92Y-73.117
X59.92Y-75.657
X59.92Y-78.197
X59.92Y-80.737
X59.92Y-90.577
X59.92Y-93.117
X59.92Y-95.657
X59.92Y-98.197
X59.92Y-100.737
X59.92Y-110.577
X59.92Y-113.117
X59.92Y-115.657
X59.92Y-118.197
X59.92Y-120.737
X62.46Y-50.577
X62.46Y-53.117
X62.46Y-55.657
X62.46Y-58.197
X62.46Y-60.737
X62.46Y-70.577
X62.46Y-73.117
X62.46Y-75.657
X62.46Y-78.197
X62.46Y-80.737
X62.46Y-90.577
X62.46Y-93.117
X62.46Y-95.657
X62.46Y-98.197
X62.46Y-100.737
X62.46Y-110.577
X62.46Y-113.117
X62.46Y-115.657
X62.46Y-118.197
X62.46Y-120.737
X65.0Y-50.577
X65.0Y-53.117
X65.0Y-55.657
X65.0Y-58.197
X65.0Y-60.737
X65.0Y-70.577
X65.0Y-73.117
X65.0Y-75.657
X65.0Y-78.197
X65.0Y-80.737
X65.0Y-90.577
X65.0Y-93.117
X65.0Y-95.657
X65.0Y-98.197
X65.0Y-100.737
X65.0Y-110.577
X65.0Y-113.117
X65.0Y-115.657
X65.0Y-118.197
X65.0Y-120.737
X72.3Y-50.577
X72.3Y-53.117
X72.3Y-55.657
X72.3Y-58.197
X72.3Y-60.737
X72.3Y-70.577
X72.3Y-73.117
X72.3Y-75.657
X72.3Y-78.197
X72.3Y-80.737
X72.3Y-90.577
X72.3Y-93.117
X72.3Y-95.657
X72.3Y-98.197
X72.3Y-100.737
X72.3Y-110.577
X72.3Y-113.117
X72.3Y-115.657
X72.3Y-118.197
X72.3Y-120.737
X74.84Y-50.577
X74.84Y-53.117
X74.84Y-55.657
X74.84Y-58.197
X74.84Y-60.737
X74.84Y-70.577
X74.84Y-73.117
X74.84Y-75.657
X74.84Y-78.197
X74.84Y-80.737
X74.84Y-90.577
X74.84Y-93.117
X74.84Y-95.657
X74.84Y-98.197
X74.84Y-100.737
X74.84Y-110.577
X74.84Y-113.117
X74.84Y-115.657
X74.84Y-118.197
X74.84Y-120.737
X77.38Y-50.577
X77.38Y-53.117
X77.38Y-55.657
X77.38Y-58.197
X77.38Y-60.737
X77.38Y-70.577
X77.38Y-73.117
X77.38Y-75.657
X77.38Y-78.197
X77.38Y-80.737
X77.38Y-90.577
X77.38Y-93.117
X77.38Y-95.657
X77.38Y-98.197
X77.38Y-100.737
X77.38Y-110.577
X77.38Y-113.117
X77.38Y-115.657
X77.38Y-118.197
X77.38Y-120.737
X79.92Y-50.577
X79.92Y-53.117
X79.92Y-55.657
X79.92Y-58.197
X79.92Y-60.737
X79.92Y-70.577
X79.92Y-73.117
X79.92Y-75.657
X79.92Y-78.197
X79.92Y-80.737
X79.92Y-90.577
X79.92Y-93.117
X79.92Y-95.657
X79.92Y-98.197
X79.92Y-100.737
X79.92Y-110.577
X79.92Y-113.117
X79.92Y-115.657
X79.92Y-118.197
X79.92Y-120.737
X82.46Y-50.577
X82.46Y-53.117
X82.46Y-55.657
X82.46Y-58.197
X82.46Y-60.737
X82.46Y-70.577
X82.46Y-73.117
X82.46Y-75.657
X82.46Y-78.197
X82.46Y-80.737
X82.46Y-90.577
X82.46Y-93.117
X82.46Y-95.657
X82.46Y-98.197
X82.46Y-100.737
X82.46Y-110.577
X82.46Y-113.117
X82.46Y-115.657
X82.46Y-118.197
X82.46Y-120.737
X85.0Y-50.577
X85.0Y-53.117
X85.0Y-55.657
X85.0Y-58.197
X85.0Y-60.737
X85.0Y-70.577
X85.0Y-73.117
X85.0Y-75.657
X85.0Y-78.197
X85.0Y-80.737
X85.0Y-90.577
X85.0Y-93.117
X85.0Y-95.657
X85.0Y-98.197
X85.0Y-100.737
X85.0Y-110.577
X85.0Y-113.117
X85.0Y-115.657
X85.0Y-118.197
X85.0Y-120.737
X92.3Y-50.577
X92.3Y-53.117
X92.3Y-55.657
X92.3Y-58.197
X92.3Y-60.737
X92.3Y-70.577
X92.3Y-73.117
X92.3Y-75.657
X92.3Y-78.197
X92.3Y-80.737
X92.3Y-90.577
X92.3Y-93.117
X92.3Y-95.657
X92.3Y-98.197
X92.3Y-100.737
X92.3Y-110.577
X92.3Y-113.117
X92.3Y-115.657
X92.3Y-118.197
X92.3Y-120.737
X94.84Y-50.577
X94.84Y-53.117
X94.84Y-55.657
X94.84Y-58.197
X94.84Y-60.737
X94.84Y-70.577
X94.84Y-73.117
X94.84Y-75.657
X94.84Y-78.197
X94.84Y-80.737
X94.84Y-90.577
X94.84Y-93.117
X94.84Y-95.657
X94.84Y-98.197
X94.84Y-100.737
X94.84Y-110.577
X94.84Y-113.117
X94.84Y-115.657
X94.84Y-118.197
X94.84Y-120.737
X97.38Y-50.577
X97.38Y-53.117
X97.38Y-55.657
X97.38Y-58.197
X97.38Y-60.737
X97.38Y-70.577
X97.38Y-73.117
X97.38Y-75.657
X97.38Y-78.197
X97.38Y-80.737
X97.38Y-90.577
X97.38Y-93.117
X97.38Y-95.657
X97.38Y-98.197
X97.38Y-100.737
X97.38Y-110.577
X97.38Y-113.117
X97.38Y-115.657
X97.38Y-118.197
X97.38Y-120.737
X99.92Y-50.577
X99.92Y-53.117
X99.92Y-55.657
X99.92Y-58.197
X99.92Y-60.737
X99.92Y-70.577
X99.92Y-73.117
X99.92Y-75.657
X99.92Y-78.197
X99.92Y-80.737
X99.92Y-90.577
X99.92Y-93.117
X99.92Y-95.657
X99.92Y-98.197
X99.92Y-100.737
X99.92Y-110.577
X99.92Y-113.117
X99.92Y-115.657
X99.92Y-118.197
X99.92Y-120.737
X102.46Y-50.577
X102.46Y-53.117
X102.46Y-55.657
X102.46Y-58.197
X102.46Y-60.737
X102.46Y-70.577
X102.46Y-73.117
X102.46Y-75.657
X102.46Y-78.197
X102.46Y-80.737
X102.46Y-90.577
X102.46Y-93.117
X102.46Y-95.657
X102.46Y-98.197
X102.46Y-100.737
X102.46Y-110.577
X102.46Y-113.117
X102.46Y-115.657
X102.46Y-118.197
X102.46Y-120.737
X105.0Y-50.577
X105.0Y-53.117
X105.0Y-55.657
X105.0Y-58.197
X105.0Y-60.737
X105.0Y-70.577
X105.0Y-73.117
X105.0Y-75.657
X105.0Y-78.197
X105.0Y-80.737
X105.0Y-90.577
X105.0Y-93.117
X105.0Y-95.657
X105.0Y-98.197
X105.0Y-100.737
X105.0Y-110.577
X105.0Y-113.117
X105.0Y-115.657
X105.0Y-118.197
X105.0Y-120.737
X112.3Y-50.577
X112.3Y-53.117
X112.3Y-55.657
X112.3Y-58.197
X112.3Y-60.737
X112.3Y-70.577
X112.3Y-73.117
X112.3Y-75.657
X112.3Y-78.197
X112.3Y-80.737
X112.3Y-90.577
X112.3Y-93.117
X112.3Y-95.657
X112.3Y-98.197
X112.3Y-100.737
X112.3Y-110.577
X112.3Y-113.117
X112.3Y-115.657
X112.3Y-118.197
X112.3Y-120.737
X114.84Y-50.577
X114.84Y-53.117
X114.84Y-55.657
X114.84Y-58.197
X114.84Y-60.737
X114.84Y-70.577
X114.84Y-73.117
X114.84Y-75.657
X114.84Y-78.197
X114.84Y-80.737
X114.84Y-90.577
X114.84Y-93.117
X114.84Y-95.657
X114.84Y-98.197
X114.84Y-100.737
X114.84Y-110.577
X114.84Y-113.117
X114.84Y-115.657
X114.84Y-118.197
X114.84Y-120.737
X117.38Y-50.577
X117.38Y-53.117
X117.38Y-55.657
X117.38Y-58.197
X117.38Y-60.737
X117.38Y-70.577
X117.38Y-73.117
X117.38Y-75.657
X117.38Y-78.197
X117.38Y-80.737
X117.38Y-90.577
X117.38Y-93.117
X117.38Y-95.657
X117.38Y-98.197
X117.38Y-100.737
X117.38Y-110.577
X117.38Y-113.117
X117.38Y-115.657
X117.38Y-118.197
X117.38Y-120.737
X119.92Y-50.577
X119.92Y-53.117
X119.92Y-55.657
X119.92Y-58.197
X119.92Y-60.737
X119.92Y-70.577
X119.92Y-73.117
X119.92Y-75.657
X119.92Y-78.197
X119.92Y-80.737
X119.92Y-90.577
X119.92Y-93.117
X119.92Y-95.657
X119.92Y-98.197
X119.92Y-100.737
X119.92Y-110.577
X119.92Y-113.117
X119.92Y-115.657
X119.92Y-118.197
X119.92Y-120.737
X122.46Y-50.577
X122.46Y-53.117
X122.46Y-55.657
X122.46Y-58.197
X122.46Y-60.737
X122.46Y-70.577
X122.46Y-73.117
X122.46Y-75.657
X122.46Y-78.197
X122.46Y-80.737
X122.46Y-90.577
X122.46Y-93.117
X122.46Y-95.657
X122.46Y-98.197
X122.46Y-100.737
X122.46Y-110.577
X122.46Y-113.117
X122.46Y-115.657
X122.46Y-118.197
X122.46Y-120.737
X125.0Y-50.577
X125.0Y-53.117
X125.0Y-55.657
X125.0Y-58.197
X125.0Y-60.737
X125.0Y-70.577
X125.0Y-73.117
X125.0Y-75.657
X125.0Y-78.197
X125.0Y-80.737
X125.0Y-90.577
X125.0Y-93.117
X125.0Y-95.657
X125.0Y-98.197
X125.0Y-100.737
X125.0Y-110.577
X125.0Y-113.117
X125.0Y-115.657
X125.0Y-118.197
X125.0Y-120.737
M30
