M48
; DRILL file KiCad 10.0.3 date 2026-05-27T00:28:26
; FORMAT={-:-/ absolute / metric / decimal}
; #@! TF.CreationDate,2026-05-27T00:28:26+09:00
; #@! TF.GenerationSoftware,Kicad,Pcbnew,10.0.3
; #@! TF.FileFunction,Plated,1,4,PTH
FMAT,2
METRIC
; #@! TA.AperFunction,Plated,PTH,ViaDrill
T1C0.200
; #@! TA.AperFunction,Plated,PTH,ComponentDrill
T2C1.000
%
G90
G05
T1
X36.65Y-49.889
X36.65Y-62.889
X36.65Y-78.888
X36.65Y-91.888
X36.65Y-107.888
X36.65Y-120.888
X39.35Y-44.889
X39.35Y-73.888
X39.35Y-102.888
X39.58Y-47.698
X39.58Y-76.698
X39.58Y-105.698
X40.25Y-44.889
X40.25Y-73.888
X40.25Y-102.888
X40.7Y-47.688
X40.7Y-76.688
X40.7Y-105.688
X41.15Y-44.889
X41.15Y-73.888
X41.15Y-102.888
X41.6Y-47.688
X41.6Y-76.688
X41.6Y-105.688
X42.05Y-44.889
X42.05Y-73.888
X42.05Y-102.888
X42.5Y-47.688
X42.5Y-76.688
X42.5Y-105.688
X42.95Y-44.889
X42.95Y-73.888
X42.95Y-102.888
X43.4Y-47.688
X43.4Y-76.688
X43.4Y-105.688
X43.85Y-44.889
X43.85Y-73.888
X43.85Y-102.888
X44.3Y-47.688
X44.3Y-76.688
X44.3Y-105.688
X44.75Y-44.889
X44.75Y-73.888
X44.75Y-102.888
X45.2Y-47.688
X45.2Y-76.688
X45.2Y-105.688
X45.65Y-44.889
X45.65Y-73.888
X45.65Y-102.888
X46.1Y-47.688
X46.1Y-76.688
X46.1Y-105.688
X46.55Y-44.889
X46.55Y-73.888
X46.55Y-102.888
X47.0Y-47.688
X47.0Y-76.688
X47.0Y-105.688
X47.45Y-44.889
X47.45Y-73.888
X47.45Y-102.888
X47.9Y-47.688
X47.9Y-76.688
X47.9Y-105.688
X48.35Y-44.889
X48.35Y-73.888
X48.35Y-102.888
X48.8Y-47.688
X48.8Y-76.688
X48.8Y-105.688
X49.25Y-44.889
X49.25Y-73.888
X49.25Y-102.888
X49.7Y-47.688
X49.7Y-76.688
X49.7Y-105.688
X50.15Y-44.889
X50.15Y-73.888
X50.15Y-102.888
X50.6Y-47.688
X50.6Y-76.688
X50.6Y-105.688
X51.05Y-44.889
X51.05Y-73.888
X51.05Y-102.888
X51.25Y-49.188
X51.25Y-78.188
X51.25Y-107.188
X51.725Y-47.683
X51.725Y-76.683
X51.725Y-105.683
X51.75Y-49.188
X51.75Y-78.188
X51.75Y-107.188
X51.95Y-44.889
X51.95Y-73.888
X51.95Y-102.888
X52.25Y-49.188
X52.25Y-78.188
X52.25Y-107.188
X54.65Y-49.889
X54.65Y-62.889
X54.65Y-78.888
X54.65Y-91.888
X54.65Y-107.888
X54.65Y-120.888
X58.65Y-49.889
X58.65Y-62.889
X58.65Y-78.888
X58.65Y-91.888
X58.65Y-107.888
X58.65Y-120.888
X61.35Y-44.889
X61.35Y-73.888
X61.35Y-102.888
X61.58Y-47.698
X61.58Y-76.698
X61.58Y-105.698
X62.25Y-44.889
X62.25Y-73.888
X62.25Y-102.888
X62.7Y-47.688
X62.7Y-76.688
X62.7Y-105.688
X63.15Y-44.889
X63.15Y-73.888
X63.15Y-102.888
X63.6Y-47.688
X63.6Y-76.688
X63.6Y-105.688
X64.05Y-44.889
X64.05Y-73.888
X64.05Y-102.888
X64.5Y-47.688
X64.5Y-76.688
X64.5Y-105.688
X64.95Y-44.889
X64.95Y-73.888
X64.95Y-102.888
X65.4Y-47.688
X65.4Y-76.688
X65.4Y-105.688
X65.85Y-44.889
X65.85Y-73.888
X65.85Y-102.888
X66.3Y-47.688
X66.3Y-76.688
X66.3Y-105.688
X66.75Y-44.889
X66.75Y-73.888
X66.75Y-102.888
X67.2Y-47.688
X67.2Y-76.688
X67.2Y-105.688
X67.65Y-44.889
X67.65Y-73.888
X67.65Y-102.888
X68.1Y-47.688
X68.1Y-76.688
X68.1Y-105.688
X68.55Y-44.889
X68.55Y-73.888
X68.55Y-102.888
X69.0Y-47.688
X69.0Y-76.688
X69.0Y-105.688
X69.45Y-44.889
X69.45Y-73.888
X69.45Y-102.888
X69.9Y-47.688
X69.9Y-76.688
X69.9Y-105.688
X70.35Y-44.889
X70.35Y-73.888
X70.35Y-102.888
X70.8Y-47.688
X70.8Y-76.688
X70.8Y-105.688
X71.25Y-44.889
X71.25Y-73.888
X71.25Y-102.888
X71.7Y-47.688
X71.7Y-76.688
X71.7Y-105.688
X72.15Y-44.889
X72.15Y-73.888
X72.15Y-102.888
X72.6Y-47.688
X72.6Y-76.688
X72.6Y-105.688
X73.05Y-44.889
X73.05Y-73.888
X73.05Y-102.888
X73.25Y-49.188
X73.25Y-78.188
X73.25Y-107.188
X73.725Y-47.683
X73.725Y-76.683
X73.725Y-105.683
X73.75Y-49.188
X73.75Y-78.188
X73.75Y-107.188
X73.95Y-44.889
X73.95Y-73.888
X73.95Y-102.888
X74.25Y-49.188
X74.25Y-78.188
X74.25Y-107.188
X76.65Y-49.889
X76.65Y-62.889
X76.65Y-78.888
X76.65Y-91.888
X76.65Y-107.888
X76.65Y-120.888
X80.65Y-49.889
X80.65Y-62.889
X80.65Y-78.888
X80.65Y-91.888
X80.65Y-107.888
X80.65Y-120.888
X83.35Y-44.889
X83.35Y-73.888
X83.35Y-102.888
X83.58Y-47.698
X83.58Y-76.698
X83.58Y-105.698
X84.25Y-44.889
X84.25Y-73.888
X84.25Y-102.888
X84.7Y-47.688
X84.7Y-76.688
X84.7Y-105.688
X85.15Y-44.889
X85.15Y-73.888
X85.15Y-102.888
X85.6Y-47.688
X85.6Y-76.688
X85.6Y-105.688
X86.05Y-44.889
X86.05Y-73.888
X86.05Y-102.888
X86.5Y-47.688
X86.5Y-76.688
X86.5Y-105.688
X86.95Y-44.889
X86.95Y-73.888
X86.95Y-102.888
X87.4Y-47.688
X87.4Y-76.688
X87.4Y-105.688
X87.85Y-44.889
X87.85Y-73.888
X87.85Y-102.888
X88.3Y-47.688
X88.3Y-76.688
X88.3Y-105.688
X88.75Y-44.889
X88.75Y-73.888
X88.75Y-102.888
X89.2Y-47.688
X89.2Y-76.688
X89.2Y-105.688
X89.65Y-44.889
X89.65Y-73.888
X89.65Y-102.888
X90.1Y-47.688
X90.1Y-76.688
X90.1Y-105.688
X90.55Y-44.889
X90.55Y-73.888
X90.55Y-102.888
X91.0Y-47.688
X91.0Y-76.688
X91.0Y-105.688
X91.45Y-44.889
X91.45Y-73.888
X91.45Y-102.888
X91.9Y-47.688
X91.9Y-76.688
X91.9Y-105.688
X92.35Y-44.889
X92.35Y-73.888
X92.35Y-102.888
X92.8Y-47.688
X92.8Y-76.688
X92.8Y-105.688
X93.25Y-44.889
X93.25Y-73.888
X93.25Y-102.888
X93.7Y-47.688
X93.7Y-76.688
X93.7Y-105.688
X94.15Y-44.889
X94.15Y-73.888
X94.15Y-102.888
X94.6Y-47.688
X94.6Y-76.688
X94.6Y-105.688
X95.05Y-44.889
X95.05Y-73.888
X95.05Y-102.888
X95.25Y-49.188
X95.25Y-78.188
X95.25Y-107.188
X95.725Y-47.683
X95.725Y-76.683
X95.725Y-105.683
X95.75Y-49.188
X95.75Y-78.188
X95.75Y-107.188
X95.95Y-44.889
X95.95Y-73.888
X95.95Y-102.888
X96.25Y-49.188
X96.25Y-78.188
X96.25Y-107.188
X98.65Y-49.889
X98.65Y-62.889
X98.65Y-78.888
X98.65Y-91.888
X98.65Y-107.888
X98.65Y-120.888
X102.65Y-49.889
X102.65Y-62.889
X102.65Y-78.888
X102.65Y-91.888
X102.65Y-107.888
X102.65Y-120.888
X105.35Y-44.889
X105.35Y-73.888
X105.35Y-102.888
X105.58Y-47.698
X105.58Y-76.698
X105.58Y-105.698
X106.25Y-44.889
X106.25Y-73.888
X106.25Y-102.888
X106.7Y-47.688
X106.7Y-76.688
X106.7Y-105.688
X107.15Y-44.889
X107.15Y-73.888
X107.15Y-102.888
X107.6Y-47.688
X107.6Y-76.688
X107.6Y-105.688
X108.05Y-44.889
X108.05Y-73.888
X108.05Y-102.888
X108.5Y-47.688
X108.5Y-76.688
X108.5Y-105.688
X108.95Y-44.889
X108.95Y-73.888
X108.95Y-102.888
X109.4Y-47.688
X109.4Y-76.688
X109.4Y-105.688
X109.85Y-44.889
X109.85Y-73.888
X109.85Y-102.888
X110.3Y-47.688
X110.3Y-76.688
X110.3Y-105.688
X110.75Y-44.889
X110.75Y-73.888
X110.75Y-102.888
X111.2Y-47.688
X111.2Y-76.688
X111.2Y-105.688
X111.65Y-44.889
X111.65Y-73.888
X111.65Y-102.888
X112.1Y-47.688
X112.1Y-76.688
X112.1Y-105.688
X112.55Y-44.889
X112.55Y-73.888
X112.55Y-102.888
X113.0Y-47.688
X113.0Y-76.688
X113.0Y-105.688
X113.45Y-44.889
X113.45Y-73.888
X113.45Y-102.888
X113.9Y-47.688
X113.9Y-76.688
X113.9Y-105.688
X114.35Y-44.889
X114.35Y-73.888
X114.35Y-102.888
X114.8Y-47.688
X114.8Y-76.688
X114.8Y-105.688
X115.25Y-44.889
X115.25Y-73.888
X115.25Y-102.888
X115.7Y-47.688
X115.7Y-76.688
X115.7Y-105.688
X116.15Y-44.889
X116.15Y-73.888
X116.15Y-102.888
X116.6Y-47.688
X116.6Y-76.688
X116.6Y-105.688
X117.05Y-44.889
X117.05Y-73.888
X117.05Y-102.888
X117.25Y-49.188
X117.25Y-78.188
X117.25Y-107.188
X117.725Y-47.683
X117.725Y-76.683
X117.725Y-105.683
X117.75Y-49.188
X117.75Y-78.188
X117.75Y-107.188
X117.95Y-44.889
X117.95Y-73.888
X117.95Y-102.888
X118.25Y-49.188
X118.25Y-78.188
X118.25Y-107.188
X120.65Y-49.889
X120.65Y-62.889
X120.65Y-78.888
X120.65Y-91.888
X120.65Y-107.888
X120.65Y-120.888
T2
X39.3Y-51.577
X39.3Y-54.117
X39.3Y-56.657
X39.3Y-59.197
X39.3Y-61.737
X39.3Y-80.577
X39.3Y-83.117
X39.3Y-85.657
X39.3Y-88.197
X39.3Y-90.737
X39.3Y-109.577
X39.3Y-112.117
X39.3Y-114.657
X39.3Y-117.197
X39.3Y-119.737
X41.84Y-51.577
X41.84Y-54.117
X41.84Y-56.657
X41.84Y-59.197
X41.84Y-61.737
X41.84Y-80.577
X41.84Y-83.117
X41.84Y-85.657
X41.84Y-88.197
X41.84Y-90.737
X41.84Y-109.577
X41.84Y-112.117
X41.84Y-114.657
X41.84Y-117.197
X41.84Y-119.737
X44.38Y-51.577
X44.38Y-54.117
X44.38Y-56.657
X44.38Y-59.197
X44.38Y-61.737
X44.38Y-80.577
X44.38Y-83.117
X44.38Y-85.657
X44.38Y-88.197
X44.38Y-90.737
X44.38Y-109.577
X44.38Y-112.117
X44.38Y-114.657
X44.38Y-117.197
X44.38Y-119.737
X46.92Y-51.577
X46.92Y-54.117
X46.92Y-56.657
X46.92Y-59.197
X46.92Y-61.737
X46.92Y-80.577
X46.92Y-83.117
X46.92Y-85.657
X46.92Y-88.197
X46.92Y-90.737
X46.92Y-109.577
X46.92Y-112.117
X46.92Y-114.657
X46.92Y-117.197
X46.92Y-119.737
X49.46Y-51.577
X49.46Y-54.117
X49.46Y-56.657
X49.46Y-59.197
X49.46Y-61.737
X49.46Y-80.577
X49.46Y-83.117
X49.46Y-85.657
X49.46Y-88.197
X49.46Y-90.737
X49.46Y-109.577
X49.46Y-112.117
X49.46Y-114.657
X49.46Y-117.197
X49.46Y-119.737
X52.0Y-51.577
X52.0Y-54.117
X52.0Y-56.657
X52.0Y-59.197
X52.0Y-61.737
X52.0Y-80.577
X52.0Y-83.117
X52.0Y-85.657
X52.0Y-88.197
X52.0Y-90.737
X52.0Y-109.577
X52.0Y-112.117
X52.0Y-114.657
X52.0Y-117.197
X52.0Y-119.737
X61.3Y-51.577
X61.3Y-54.117
X61.3Y-56.657
X61.3Y-59.197
X61.3Y-61.737
X61.3Y-80.577
X61.3Y-83.117
X61.3Y-85.657
X61.3Y-88.197
X61.3Y-90.737
X61.3Y-109.577
X61.3Y-112.117
X61.3Y-114.657
X61.3Y-117.197
X61.3Y-119.737
X63.84Y-51.577
X63.84Y-54.117
X63.84Y-56.657
X63.84Y-59.197
X63.84Y-61.737
X63.84Y-80.577
X63.84Y-83.117
X63.84Y-85.657
X63.84Y-88.197
X63.84Y-90.737
X63.84Y-109.577
X63.84Y-112.117
X63.84Y-114.657
X63.84Y-117.197
X63.84Y-119.737
X66.38Y-51.577
X66.38Y-54.117
X66.38Y-56.657
X66.38Y-59.197
X66.38Y-61.737
X66.38Y-80.577
X66.38Y-83.117
X66.38Y-85.657
X66.38Y-88.197
X66.38Y-90.737
X66.38Y-109.577
X66.38Y-112.117
X66.38Y-114.657
X66.38Y-117.197
X66.38Y-119.737
X68.92Y-51.577
X68.92Y-54.117
X68.92Y-56.657
X68.92Y-59.197
X68.92Y-61.737
X68.92Y-80.577
X68.92Y-83.117
X68.92Y-85.657
X68.92Y-88.197
X68.92Y-90.737
X68.92Y-109.577
X68.92Y-112.117
X68.92Y-114.657
X68.92Y-117.197
X68.92Y-119.737
X71.46Y-51.577
X71.46Y-54.117
X71.46Y-56.657
X71.46Y-59.197
X71.46Y-61.737
X71.46Y-80.577
X71.46Y-83.117
X71.46Y-85.657
X71.46Y-88.197
X71.46Y-90.737
X71.46Y-109.577
X71.46Y-112.117
X71.46Y-114.657
X71.46Y-117.197
X71.46Y-119.737
X74.0Y-51.577
X74.0Y-54.117
X74.0Y-56.657
X74.0Y-59.197
X74.0Y-61.737
X74.0Y-80.577
X74.0Y-83.117
X74.0Y-85.657
X74.0Y-88.197
X74.0Y-90.737
X74.0Y-109.577
X74.0Y-112.117
X74.0Y-114.657
X74.0Y-117.197
X74.0Y-119.737
X83.3Y-51.577
X83.3Y-54.117
X83.3Y-56.657
X83.3Y-59.197
X83.3Y-61.737
X83.3Y-80.577
X83.3Y-83.117
X83.3Y-85.657
X83.3Y-88.197
X83.3Y-90.737
X83.3Y-109.577
X83.3Y-112.117
X83.3Y-114.657
X83.3Y-117.197
X83.3Y-119.737
X85.84Y-51.577
X85.84Y-54.117
X85.84Y-56.657
X85.84Y-59.197
X85.84Y-61.737
X85.84Y-80.577
X85.84Y-83.117
X85.84Y-85.657
X85.84Y-88.197
X85.84Y-90.737
X85.84Y-109.577
X85.84Y-112.117
X85.84Y-114.657
X85.84Y-117.197
X85.84Y-119.737
X88.38Y-51.577
X88.38Y-54.117
X88.38Y-56.657
X88.38Y-59.197
X88.38Y-61.737
X88.38Y-80.577
X88.38Y-83.117
X88.38Y-85.657
X88.38Y-88.197
X88.38Y-90.737
X88.38Y-109.577
X88.38Y-112.117
X88.38Y-114.657
X88.38Y-117.197
X88.38Y-119.737
X90.92Y-51.577
X90.92Y-54.117
X90.92Y-56.657
X90.92Y-59.197
X90.92Y-61.737
X90.92Y-80.577
X90.92Y-83.117
X90.92Y-85.657
X90.92Y-88.197
X90.92Y-90.737
X90.92Y-109.577
X90.92Y-112.117
X90.92Y-114.657
X90.92Y-117.197
X90.92Y-119.737
X93.46Y-51.577
X93.46Y-54.117
X93.46Y-56.657
X93.46Y-59.197
X93.46Y-61.737
X93.46Y-80.577
X93.46Y-83.117
X93.46Y-85.657
X93.46Y-88.197
X93.46Y-90.737
X93.46Y-109.577
X93.46Y-112.117
X93.46Y-114.657
X93.46Y-117.197
X93.46Y-119.737
X96.0Y-51.577
X96.0Y-54.117
X96.0Y-56.657
X96.0Y-59.197
X96.0Y-61.737
X96.0Y-80.577
X96.0Y-83.117
X96.0Y-85.657
X96.0Y-88.197
X96.0Y-90.737
X96.0Y-109.577
X96.0Y-112.117
X96.0Y-114.657
X96.0Y-117.197
X96.0Y-119.737
X105.3Y-51.577
X105.3Y-54.117
X105.3Y-56.657
X105.3Y-59.197
X105.3Y-61.737
X105.3Y-80.577
X105.3Y-83.117
X105.3Y-85.657
X105.3Y-88.197
X105.3Y-90.737
X105.3Y-109.577
X105.3Y-112.117
X105.3Y-114.657
X105.3Y-117.197
X105.3Y-119.737
X107.84Y-51.577
X107.84Y-54.117
X107.84Y-56.657
X107.84Y-59.197
X107.84Y-61.737
X107.84Y-80.577
X107.84Y-83.117
X107.84Y-85.657
X107.84Y-88.197
X107.84Y-90.737
X107.84Y-109.577
X107.84Y-112.117
X107.84Y-114.657
X107.84Y-117.197
X107.84Y-119.737
X110.38Y-51.577
X110.38Y-54.117
X110.38Y-56.657
X110.38Y-59.197
X110.38Y-61.737
X110.38Y-80.577
X110.38Y-83.117
X110.38Y-85.657
X110.38Y-88.197
X110.38Y-90.737
X110.38Y-109.577
X110.38Y-112.117
X110.38Y-114.657
X110.38Y-117.197
X110.38Y-119.737
X112.92Y-51.577
X112.92Y-54.117
X112.92Y-56.657
X112.92Y-59.197
X112.92Y-61.737
X112.92Y-80.577
X112.92Y-83.117
X112.92Y-85.657
X112.92Y-88.197
X112.92Y-90.737
X112.92Y-109.577
X112.92Y-112.117
X112.92Y-114.657
X112.92Y-117.197
X112.92Y-119.737
X115.46Y-51.577
X115.46Y-54.117
X115.46Y-56.657
X115.46Y-59.197
X115.46Y-61.737
X115.46Y-80.577
X115.46Y-83.117
X115.46Y-85.657
X115.46Y-88.197
X115.46Y-90.737
X115.46Y-109.577
X115.46Y-112.117
X115.46Y-114.657
X115.46Y-117.197
X115.46Y-119.737
X118.0Y-51.577
X118.0Y-54.117
X118.0Y-56.657
X118.0Y-59.197
X118.0Y-61.737
X118.0Y-80.577
X118.0Y-83.117
X118.0Y-85.657
X118.0Y-88.197
X118.0Y-90.737
X118.0Y-109.577
X118.0Y-112.117
X118.0Y-114.657
X118.0Y-117.197
X118.0Y-119.737
M30
