M48
; DRILL file KiCad 10.0.3 date 2026-05-27T00:28:26
; FORMAT={-:-/ absolute / metric / decimal}
; #@! TF.CreationDate,2026-05-27T00:28:26+09:00
; #@! TF.GenerationSoftware,Kicad,Pcbnew,10.0.3
; #@! TF.FileFunction,NonPlated,1,4,NPTH
FMAT,2
METRIC
; #@! TA.AperFunction,NonPlated,NPTH,ComponentDrill
T1C2.000
; #@! TA.AperFunction,NonPlated,NPTH,ComponentDrill
T2C2.050
%
G90
G05
T1
X33.65Y-37.788
X33.65Y-127.788
X123.65Y-37.788
X123.65Y-127.788
T2
X37.4Y-46.288
X37.4Y-75.288
X37.4Y-104.288
X53.9Y-46.288
X53.9Y-75.288
X53.9Y-104.288
X59.4Y-46.288
X59.4Y-75.288
X59.4Y-104.288
X75.9Y-46.288
X75.9Y-75.288
X75.9Y-104.288
X81.4Y-46.288
X81.4Y-75.288
X81.4Y-104.288
X97.9Y-46.288
X97.9Y-75.288
X97.9Y-104.288
X103.4Y-46.288
X103.4Y-75.288
X103.4Y-104.288
X119.9Y-46.288
X119.9Y-75.288
X119.9Y-104.288
M30
