G04 #@! TF.GenerationSoftware,KiCad,Pcbnew,10.0.3*
G04 #@! TF.CreationDate,2026-06-27T15:52:58+07:00*
G04 #@! TF.ProjectId,ax02-29-pin_panelized,61783032-2d32-4392-9d70-696e5f70616e,v1.0*
G04 #@! TF.SameCoordinates,Original*
G04 #@! TF.FileFunction,Other,ECO1*
%FSLAX46Y46*%
G04 Gerber Fmt 4.6, Leading zero omitted, Abs format (unit mm)*
G04 Created by KiCad (PCBNEW 10.0.3) date 2026-06-27 15:52:58*
%MOMM*%
%LPD*%
G01*
G04 APERTURE LIST*
%ADD10C,0.150000*%
%ADD11C,0.100000*%
G04 APERTURE END LIST*
D10*
X48104819Y-26594577D02*
X49104819Y-26261244D01*
X49104819Y-26261244D02*
X48104819Y-25927911D01*
X48723866Y-25594577D02*
X48723866Y-24832673D01*
X49009580Y-23785054D02*
X49057200Y-23832673D01*
X49057200Y-23832673D02*
X49104819Y-23975530D01*
X49104819Y-23975530D02*
X49104819Y-24070768D01*
X49104819Y-24070768D02*
X49057200Y-24213625D01*
X49057200Y-24213625D02*
X48961961Y-24308863D01*
X48961961Y-24308863D02*
X48866723Y-24356482D01*
X48866723Y-24356482D02*
X48676247Y-24404101D01*
X48676247Y-24404101D02*
X48533390Y-24404101D01*
X48533390Y-24404101D02*
X48342914Y-24356482D01*
X48342914Y-24356482D02*
X48247676Y-24308863D01*
X48247676Y-24308863D02*
X48152438Y-24213625D01*
X48152438Y-24213625D02*
X48104819Y-24070768D01*
X48104819Y-24070768D02*
X48104819Y-23975530D01*
X48104819Y-23975530D02*
X48152438Y-23832673D01*
X48152438Y-23832673D02*
X48200057Y-23785054D01*
X48104819Y-23356482D02*
X48914342Y-23356482D01*
X48914342Y-23356482D02*
X49009580Y-23308863D01*
X49009580Y-23308863D02*
X49057200Y-23261244D01*
X49057200Y-23261244D02*
X49104819Y-23166006D01*
X49104819Y-23166006D02*
X49104819Y-22975530D01*
X49104819Y-22975530D02*
X49057200Y-22880292D01*
X49057200Y-22880292D02*
X49009580Y-22832673D01*
X49009580Y-22832673D02*
X48914342Y-22785054D01*
X48914342Y-22785054D02*
X48104819Y-22785054D01*
X48104819Y-22451720D02*
X48104819Y-21880292D01*
X49104819Y-22166006D02*
X48104819Y-22166006D01*
X68104819Y-26594577D02*
X69104819Y-26261244D01*
X69104819Y-26261244D02*
X68104819Y-25927911D01*
X68723866Y-25594577D02*
X68723866Y-24832673D01*
X69009580Y-23785054D02*
X69057200Y-23832673D01*
X69057200Y-23832673D02*
X69104819Y-23975530D01*
X69104819Y-23975530D02*
X69104819Y-24070768D01*
X69104819Y-24070768D02*
X69057200Y-24213625D01*
X69057200Y-24213625D02*
X68961961Y-24308863D01*
X68961961Y-24308863D02*
X68866723Y-24356482D01*
X68866723Y-24356482D02*
X68676247Y-24404101D01*
X68676247Y-24404101D02*
X68533390Y-24404101D01*
X68533390Y-24404101D02*
X68342914Y-24356482D01*
X68342914Y-24356482D02*
X68247676Y-24308863D01*
X68247676Y-24308863D02*
X68152438Y-24213625D01*
X68152438Y-24213625D02*
X68104819Y-24070768D01*
X68104819Y-24070768D02*
X68104819Y-23975530D01*
X68104819Y-23975530D02*
X68152438Y-23832673D01*
X68152438Y-23832673D02*
X68200057Y-23785054D01*
X68104819Y-23356482D02*
X68914342Y-23356482D01*
X68914342Y-23356482D02*
X69009580Y-23308863D01*
X69009580Y-23308863D02*
X69057200Y-23261244D01*
X69057200Y-23261244D02*
X69104819Y-23166006D01*
X69104819Y-23166006D02*
X69104819Y-22975530D01*
X69104819Y-22975530D02*
X69057200Y-22880292D01*
X69057200Y-22880292D02*
X69009580Y-22832673D01*
X69009580Y-22832673D02*
X68914342Y-22785054D01*
X68914342Y-22785054D02*
X68104819Y-22785054D01*
X68104819Y-22451720D02*
X68104819Y-21880292D01*
X69104819Y-22166006D02*
X68104819Y-22166006D01*
X88104819Y-26594577D02*
X89104819Y-26261244D01*
X89104819Y-26261244D02*
X88104819Y-25927911D01*
X88723866Y-25594577D02*
X88723866Y-24832673D01*
X89009580Y-23785054D02*
X89057200Y-23832673D01*
X89057200Y-23832673D02*
X89104819Y-23975530D01*
X89104819Y-23975530D02*
X89104819Y-24070768D01*
X89104819Y-24070768D02*
X89057200Y-24213625D01*
X89057200Y-24213625D02*
X88961961Y-24308863D01*
X88961961Y-24308863D02*
X88866723Y-24356482D01*
X88866723Y-24356482D02*
X88676247Y-24404101D01*
X88676247Y-24404101D02*
X88533390Y-24404101D01*
X88533390Y-24404101D02*
X88342914Y-24356482D01*
X88342914Y-24356482D02*
X88247676Y-24308863D01*
X88247676Y-24308863D02*
X88152438Y-24213625D01*
X88152438Y-24213625D02*
X88104819Y-24070768D01*
X88104819Y-24070768D02*
X88104819Y-23975530D01*
X88104819Y-23975530D02*
X88152438Y-23832673D01*
X88152438Y-23832673D02*
X88200057Y-23785054D01*
X88104819Y-23356482D02*
X88914342Y-23356482D01*
X88914342Y-23356482D02*
X89009580Y-23308863D01*
X89009580Y-23308863D02*
X89057200Y-23261244D01*
X89057200Y-23261244D02*
X89104819Y-23166006D01*
X89104819Y-23166006D02*
X89104819Y-22975530D01*
X89104819Y-22975530D02*
X89057200Y-22880292D01*
X89057200Y-22880292D02*
X89009580Y-22832673D01*
X89009580Y-22832673D02*
X88914342Y-22785054D01*
X88914342Y-22785054D02*
X88104819Y-22785054D01*
X88104819Y-22451720D02*
X88104819Y-21880292D01*
X89104819Y-22166006D02*
X88104819Y-22166006D01*
X108104819Y-26594577D02*
X109104819Y-26261244D01*
X109104819Y-26261244D02*
X108104819Y-25927911D01*
X108723866Y-25594577D02*
X108723866Y-24832673D01*
X109009580Y-23785054D02*
X109057200Y-23832673D01*
X109057200Y-23832673D02*
X109104819Y-23975530D01*
X109104819Y-23975530D02*
X109104819Y-24070768D01*
X109104819Y-24070768D02*
X109057200Y-24213625D01*
X109057200Y-24213625D02*
X108961961Y-24308863D01*
X108961961Y-24308863D02*
X108866723Y-24356482D01*
X108866723Y-24356482D02*
X108676247Y-24404101D01*
X108676247Y-24404101D02*
X108533390Y-24404101D01*
X108533390Y-24404101D02*
X108342914Y-24356482D01*
X108342914Y-24356482D02*
X108247676Y-24308863D01*
X108247676Y-24308863D02*
X108152438Y-24213625D01*
X108152438Y-24213625D02*
X108104819Y-24070768D01*
X108104819Y-24070768D02*
X108104819Y-23975530D01*
X108104819Y-23975530D02*
X108152438Y-23832673D01*
X108152438Y-23832673D02*
X108200057Y-23785054D01*
X108104819Y-23356482D02*
X108914342Y-23356482D01*
X108914342Y-23356482D02*
X109009580Y-23308863D01*
X109009580Y-23308863D02*
X109057200Y-23261244D01*
X109057200Y-23261244D02*
X109104819Y-23166006D01*
X109104819Y-23166006D02*
X109104819Y-22975530D01*
X109104819Y-22975530D02*
X109057200Y-22880292D01*
X109057200Y-22880292D02*
X109009580Y-22832673D01*
X109009580Y-22832673D02*
X108914342Y-22785054D01*
X108914342Y-22785054D02*
X108104819Y-22785054D01*
X108104819Y-22451720D02*
X108104819Y-21880292D01*
X109104819Y-22166006D02*
X108104819Y-22166006D01*
X139843922Y-122243319D02*
X140177255Y-123243319D01*
X140177255Y-123243319D02*
X140510588Y-122243319D01*
X140843922Y-122862366D02*
X141605827Y-122862366D01*
X142653445Y-123148080D02*
X142605826Y-123195700D01*
X142605826Y-123195700D02*
X142462969Y-123243319D01*
X142462969Y-123243319D02*
X142367731Y-123243319D01*
X142367731Y-123243319D02*
X142224874Y-123195700D01*
X142224874Y-123195700D02*
X142129636Y-123100461D01*
X142129636Y-123100461D02*
X142082017Y-123005223D01*
X142082017Y-123005223D02*
X142034398Y-122814747D01*
X142034398Y-122814747D02*
X142034398Y-122671890D01*
X142034398Y-122671890D02*
X142082017Y-122481414D01*
X142082017Y-122481414D02*
X142129636Y-122386176D01*
X142129636Y-122386176D02*
X142224874Y-122290938D01*
X142224874Y-122290938D02*
X142367731Y-122243319D01*
X142367731Y-122243319D02*
X142462969Y-122243319D01*
X142462969Y-122243319D02*
X142605826Y-122290938D01*
X142605826Y-122290938D02*
X142653445Y-122338557D01*
X143082017Y-122243319D02*
X143082017Y-123052842D01*
X143082017Y-123052842D02*
X143129636Y-123148080D01*
X143129636Y-123148080D02*
X143177255Y-123195700D01*
X143177255Y-123195700D02*
X143272493Y-123243319D01*
X143272493Y-123243319D02*
X143462969Y-123243319D01*
X143462969Y-123243319D02*
X143558207Y-123195700D01*
X143558207Y-123195700D02*
X143605826Y-123148080D01*
X143605826Y-123148080D02*
X143653445Y-123052842D01*
X143653445Y-123052842D02*
X143653445Y-122243319D01*
X143986779Y-122243319D02*
X144558207Y-122243319D01*
X144272493Y-123243319D02*
X144272493Y-122243319D01*
X139843922Y-102243319D02*
X140177255Y-103243319D01*
X140177255Y-103243319D02*
X140510588Y-102243319D01*
X140843922Y-102862366D02*
X141605827Y-102862366D01*
X142653445Y-103148080D02*
X142605826Y-103195700D01*
X142605826Y-103195700D02*
X142462969Y-103243319D01*
X142462969Y-103243319D02*
X142367731Y-103243319D01*
X142367731Y-103243319D02*
X142224874Y-103195700D01*
X142224874Y-103195700D02*
X142129636Y-103100461D01*
X142129636Y-103100461D02*
X142082017Y-103005223D01*
X142082017Y-103005223D02*
X142034398Y-102814747D01*
X142034398Y-102814747D02*
X142034398Y-102671890D01*
X142034398Y-102671890D02*
X142082017Y-102481414D01*
X142082017Y-102481414D02*
X142129636Y-102386176D01*
X142129636Y-102386176D02*
X142224874Y-102290938D01*
X142224874Y-102290938D02*
X142367731Y-102243319D01*
X142367731Y-102243319D02*
X142462969Y-102243319D01*
X142462969Y-102243319D02*
X142605826Y-102290938D01*
X142605826Y-102290938D02*
X142653445Y-102338557D01*
X143082017Y-102243319D02*
X143082017Y-103052842D01*
X143082017Y-103052842D02*
X143129636Y-103148080D01*
X143129636Y-103148080D02*
X143177255Y-103195700D01*
X143177255Y-103195700D02*
X143272493Y-103243319D01*
X143272493Y-103243319D02*
X143462969Y-103243319D01*
X143462969Y-103243319D02*
X143558207Y-103195700D01*
X143558207Y-103195700D02*
X143605826Y-103148080D01*
X143605826Y-103148080D02*
X143653445Y-103052842D01*
X143653445Y-103052842D02*
X143653445Y-102243319D01*
X143986779Y-102243319D02*
X144558207Y-102243319D01*
X144272493Y-103243319D02*
X144272493Y-102243319D01*
X139843922Y-82243319D02*
X140177255Y-83243319D01*
X140177255Y-83243319D02*
X140510588Y-82243319D01*
X140843922Y-82862366D02*
X141605827Y-82862366D01*
X142653445Y-83148080D02*
X142605826Y-83195700D01*
X142605826Y-83195700D02*
X142462969Y-83243319D01*
X142462969Y-83243319D02*
X142367731Y-83243319D01*
X142367731Y-83243319D02*
X142224874Y-83195700D01*
X142224874Y-83195700D02*
X142129636Y-83100461D01*
X142129636Y-83100461D02*
X142082017Y-83005223D01*
X142082017Y-83005223D02*
X142034398Y-82814747D01*
X142034398Y-82814747D02*
X142034398Y-82671890D01*
X142034398Y-82671890D02*
X142082017Y-82481414D01*
X142082017Y-82481414D02*
X142129636Y-82386176D01*
X142129636Y-82386176D02*
X142224874Y-82290938D01*
X142224874Y-82290938D02*
X142367731Y-82243319D01*
X142367731Y-82243319D02*
X142462969Y-82243319D01*
X142462969Y-82243319D02*
X142605826Y-82290938D01*
X142605826Y-82290938D02*
X142653445Y-82338557D01*
X143082017Y-82243319D02*
X143082017Y-83052842D01*
X143082017Y-83052842D02*
X143129636Y-83148080D01*
X143129636Y-83148080D02*
X143177255Y-83195700D01*
X143177255Y-83195700D02*
X143272493Y-83243319D01*
X143272493Y-83243319D02*
X143462969Y-83243319D01*
X143462969Y-83243319D02*
X143558207Y-83195700D01*
X143558207Y-83195700D02*
X143605826Y-83148080D01*
X143605826Y-83148080D02*
X143653445Y-83052842D01*
X143653445Y-83052842D02*
X143653445Y-82243319D01*
X143986779Y-82243319D02*
X144558207Y-82243319D01*
X144272493Y-83243319D02*
X144272493Y-82243319D01*
X139843922Y-62243319D02*
X140177255Y-63243319D01*
X140177255Y-63243319D02*
X140510588Y-62243319D01*
X140843922Y-62862366D02*
X141605827Y-62862366D01*
X142653445Y-63148080D02*
X142605826Y-63195700D01*
X142605826Y-63195700D02*
X142462969Y-63243319D01*
X142462969Y-63243319D02*
X142367731Y-63243319D01*
X142367731Y-63243319D02*
X142224874Y-63195700D01*
X142224874Y-63195700D02*
X142129636Y-63100461D01*
X142129636Y-63100461D02*
X142082017Y-63005223D01*
X142082017Y-63005223D02*
X142034398Y-62814747D01*
X142034398Y-62814747D02*
X142034398Y-62671890D01*
X142034398Y-62671890D02*
X142082017Y-62481414D01*
X142082017Y-62481414D02*
X142129636Y-62386176D01*
X142129636Y-62386176D02*
X142224874Y-62290938D01*
X142224874Y-62290938D02*
X142367731Y-62243319D01*
X142367731Y-62243319D02*
X142462969Y-62243319D01*
X142462969Y-62243319D02*
X142605826Y-62290938D01*
X142605826Y-62290938D02*
X142653445Y-62338557D01*
X143082017Y-62243319D02*
X143082017Y-63052842D01*
X143082017Y-63052842D02*
X143129636Y-63148080D01*
X143129636Y-63148080D02*
X143177255Y-63195700D01*
X143177255Y-63195700D02*
X143272493Y-63243319D01*
X143272493Y-63243319D02*
X143462969Y-63243319D01*
X143462969Y-63243319D02*
X143558207Y-63195700D01*
X143558207Y-63195700D02*
X143605826Y-63148080D01*
X143605826Y-63148080D02*
X143653445Y-63052842D01*
X143653445Y-63052842D02*
X143653445Y-62243319D01*
X143986779Y-62243319D02*
X144558207Y-62243319D01*
X144272493Y-63243319D02*
X144272493Y-62243319D01*
X139843922Y-42243319D02*
X140177255Y-43243319D01*
X140177255Y-43243319D02*
X140510588Y-42243319D01*
X140843922Y-42862366D02*
X141605827Y-42862366D01*
X142653445Y-43148080D02*
X142605826Y-43195700D01*
X142605826Y-43195700D02*
X142462969Y-43243319D01*
X142462969Y-43243319D02*
X142367731Y-43243319D01*
X142367731Y-43243319D02*
X142224874Y-43195700D01*
X142224874Y-43195700D02*
X142129636Y-43100461D01*
X142129636Y-43100461D02*
X142082017Y-43005223D01*
X142082017Y-43005223D02*
X142034398Y-42814747D01*
X142034398Y-42814747D02*
X142034398Y-42671890D01*
X142034398Y-42671890D02*
X142082017Y-42481414D01*
X142082017Y-42481414D02*
X142129636Y-42386176D01*
X142129636Y-42386176D02*
X142224874Y-42290938D01*
X142224874Y-42290938D02*
X142367731Y-42243319D01*
X142367731Y-42243319D02*
X142462969Y-42243319D01*
X142462969Y-42243319D02*
X142605826Y-42290938D01*
X142605826Y-42290938D02*
X142653445Y-42338557D01*
X143082017Y-42243319D02*
X143082017Y-43052842D01*
X143082017Y-43052842D02*
X143129636Y-43148080D01*
X143129636Y-43148080D02*
X143177255Y-43195700D01*
X143177255Y-43195700D02*
X143272493Y-43243319D01*
X143272493Y-43243319D02*
X143462969Y-43243319D01*
X143462969Y-43243319D02*
X143558207Y-43195700D01*
X143558207Y-43195700D02*
X143605826Y-43148080D01*
X143605826Y-43148080D02*
X143653445Y-43052842D01*
X143653445Y-43052842D02*
X143653445Y-42243319D01*
X143986779Y-42243319D02*
X144558207Y-42243319D01*
X144272493Y-43243319D02*
X144272493Y-42243319D01*
D11*
X108650000Y-27788500D02*
X108650000Y-142788500D01*
X88650000Y-27788500D02*
X88650000Y-142788500D01*
X68650000Y-27788500D02*
X68650000Y-142788500D01*
X48650000Y-27788500D02*
X48650000Y-142788500D01*
X23650000Y-122788500D02*
X138650000Y-122788500D01*
X23650000Y-102788500D02*
X138650000Y-102788500D01*
X23650000Y-82788500D02*
X138650000Y-82788500D01*
X23650000Y-62788500D02*
X138650000Y-62788500D01*
X23650000Y-42788500D02*
X138650000Y-42788500D01*
M02*
